{"glyphs":{"0":{"ha":842,"x_min":61,"x_max":781,"o":"m 422 -16 q 156 120 252 -16 q 61 490 61 256 q 157 858 61 722 q 422 995 253 995 q 686 859 591 995 q 781 490 781 723 q 686 120 781 256 q 422 -16 591 -16 m 246 197 q 277 144 246 197 q 422 90 309 90 q 597 197 535 90 q 659 490 659 304 q 596 780 659 673 q 422 888 534 888 q 247 780 310 888 q 184 490 184 672 q 246 197 184 304 z "},"1":{"ha":616,"x_min":53,"x_max":446,"o":"m 430 5 q 421 -3 430 5 q 387 -12 413 -12 q 345 5 361 -12 q 328 51 328 23 l 328 845 l 326 845 l 142 717 q 101 703 122 703 q 66 716 79 703 q 53 753 53 730 q 60 781 53 769 q 87 807 68 793 l 296 957 q 341 984 325 977 q 378 991 357 991 q 428 972 410 991 q 446 922 446 954 l 446 51 q 430 5 446 23 z "},"2":{"ha":786,"x_min":76,"x_max":732,"o":"m 135 0 q 92 14 108 0 q 76 50 76 27 q 82 81 76 69 q 111 117 89 94 l 424 444 q 554 600 522 547 q 587 715 587 654 q 535 839 587 790 q 405 888 484 888 q 271 848 326 888 q 192 728 217 807 q 137 686 178 686 q 96 701 111 686 q 81 740 81 715 q 83 764 81 752 q 112 843 88 804 q 174 917 135 882 q 273 973 212 951 q 405 995 334 995 q 623 918 537 995 q 709 723 709 842 q 663 568 709 643 q 492 363 618 492 l 247 111 l 247 109 l 674 109 q 716 94 700 109 q 732 54 732 79 q 716 15 732 30 q 674 0 700 0 l 135 0 z "},"3":{"ha":822,"x_min":76,"x_max":749,"o":"m 409 -16 q 98 136 188 -16 q 76 214 76 175 q 91 256 76 240 q 132 271 106 271 q 165 260 153 271 q 189 223 178 248 q 409 90 240 90 q 565 139 505 90 q 625 265 624 188 q 566 404 625 355 q 401 454 506 454 l 323 454 q 284 468 299 454 q 269 505 269 482 q 284 543 269 528 q 323 557 299 557 l 396 557 q 538 605 483 557 q 594 726 594 652 q 547 845 594 802 q 408 889 499 889 q 280 856 328 889 q 205 755 233 823 q 184 717 196 728 q 151 707 173 707 q 111 721 125 707 q 96 762 96 736 q 117 841 96 803 q 231 955 155 915 q 408 995 307 995 q 633 923 550 995 q 717 743 717 851 q 660 593 717 654 q 509 512 604 532 l 509 509 q 683 436 618 500 q 749 269 749 372 q 651 64 749 144 q 409 -16 554 -16 z "},"4":{"ha":840,"x_min":50,"x_max":809,"o":"m 646 5 q 638 -3 646 5 q 604 -12 629 -12 q 561 5 578 -12 q 545 51 545 23 l 545 203 l 121 203 q 69 222 88 203 q 50 273 50 241 q 56 315 50 296 q 79 365 62 335 q 422 888 167 521 q 493 969 464 947 q 563 991 523 991 q 637 966 612 991 q 663 895 663 942 l 663 311 l 752 311 q 793 296 777 311 q 809 257 809 281 q 793 218 809 233 q 752 203 777 203 l 663 203 l 663 51 q 646 5 663 23 m 545 311 l 545 873 l 543 873 q 172 313 264 475 l 172 311 l 545 311 z "},"5":{"ha":812,"x_min":92,"x_max":764,"o":"m 416 -16 q 224 33 309 -16 q 106 165 140 83 q 92 231 92 199 q 107 272 92 256 q 149 288 123 288 q 184 276 171 288 q 205 239 197 265 q 283 130 228 168 q 418 91 338 91 q 580 154 517 91 q 642 317 642 217 q 579 475 642 413 q 418 537 516 537 q 323 519 368 537 q 248 469 278 501 q 201 425 215 434 q 163 416 186 416 q 120 434 136 416 q 104 479 104 452 q 105 495 104 489 l 140 883 q 170 957 144 935 q 250 979 195 979 l 659 979 q 700 964 684 979 q 716 924 716 949 q 700 885 716 900 q 659 870 684 870 l 249 870 l 218 549 l 220 549 q 311 618 254 593 q 441 642 369 642 q 673 552 583 642 q 764 320 764 461 q 667 78 764 172 q 416 -16 569 -16 z "},"6":{"ha":831,"x_min":62,"x_max":780,"o":"m 433 -17 q 239 40 323 -17 q 110 203 155 98 q 62 473 62 315 q 162 858 62 720 q 441 996 262 996 q 613 955 536 996 q 731 842 690 913 q 749 784 749 811 q 733 746 749 761 q 692 732 717 732 q 660 743 674 732 q 629 779 646 753 q 440 888 561 888 q 252 785 319 888 q 180 491 184 682 l 180 482 l 182 482 q 286 596 213 551 q 455 641 359 641 q 687 549 595 641 q 780 317 780 456 q 682 78 780 172 q 433 -17 584 -17 m 274 157 q 306 124 274 157 q 432 92 338 92 q 591 156 526 92 q 656 313 656 220 q 593 472 656 410 q 434 534 531 534 q 273 472 337 534 q 209 317 209 410 q 274 157 209 222 z "},"7":{"ha":760,"x_min":46,"x_max":707,"o":"m 214 -12 q 173 1 189 -12 q 157 38 157 15 q 168 77 157 56 l 579 867 l 579 870 l 104 870 q 62 885 79 870 q 46 924 46 900 q 62 964 46 949 q 104 979 79 979 l 630 979 q 687 959 667 979 q 707 905 707 940 q 680 827 707 879 l 269 23 q 214 -12 250 -12 z "},"8":{"ha":832,"x_min":61,"x_max":771,"o":"m 416 -16 q 161 63 260 -16 q 61 264 61 142 q 119 425 61 356 q 271 516 176 494 l 271 519 q 143 602 190 544 q 96 738 96 661 q 187 922 96 849 q 416 995 278 995 q 645 922 555 995 q 734 737 734 849 q 688 603 734 661 q 560 519 642 545 l 560 516 q 713 425 655 494 q 771 264 771 355 q 671 63 771 142 q 416 -16 572 -16 m 416 564 q 558 610 503 564 q 614 726 614 655 q 558 844 614 798 q 416 890 503 890 q 273 844 328 890 q 218 726 218 798 q 273 610 218 655 q 416 564 328 564 m 416 90 q 582 142 517 90 q 646 273 646 193 q 582 406 646 354 q 416 457 517 457 q 250 405 315 457 q 185 273 185 353 q 250 142 185 193 q 416 90 315 90 z "},"9":{"ha":831,"x_min":52,"x_max":770,"o":"m 391 -16 q 285 -2 335 -16 q 198 35 235 12 q 136 85 161 58 q 94 140 110 112 q 78 195 78 170 q 93 233 78 219 q 133 248 108 248 q 167 237 153 248 q 197 200 181 227 q 278 116 234 142 q 392 90 323 90 q 581 193 514 90 q 652 486 647 296 l 652 498 l 650 498 q 544 381 618 425 q 376 338 470 338 q 144 430 237 338 q 52 661 52 522 q 150 901 52 806 q 398 996 248 996 q 593 938 509 996 q 722 776 677 881 q 770 506 770 665 q 670 121 770 258 q 391 -16 570 -16 m 397 445 q 559 507 494 445 q 623 662 623 568 q 558 821 623 756 q 399 886 494 886 q 240 822 305 886 q 175 665 175 758 q 238 507 175 570 q 397 445 301 445 z "}," ":{"ha":0,"x_min":0,"x_max":0,"o":""}," ":{"ha":0,"x_min":0,"x_max":0,"o":""}," ":{"ha":285,"x_min":0,"x_max":0,"o":""},"!":{"ha":370,"x_min":108,"x_max":262,"o":"m 224 330 q 217 323 224 330 q 185 315 210 315 q 146 330 161 315 q 132 372 132 345 l 125 930 q 142 974 125 957 q 185 991 159 991 q 228 974 211 991 q 245 930 245 957 l 239 372 q 224 330 238 345 m 185 -7 q 130 16 153 -7 q 108 71 108 38 q 130 126 108 104 q 185 148 153 148 q 240 126 218 148 q 262 71 262 104 q 240 16 262 38 q 185 -7 218 -7 z "},"\"":{"ha":547,"x_min":92,"x_max":456,"o":"m 185 637 q 177 629 185 637 q 146 621 170 621 q 107 637 122 621 q 92 677 92 652 l 92 935 q 107 975 92 960 q 146 991 122 991 q 185 975 170 991 q 200 935 200 960 l 200 677 q 185 637 200 652 m 440 637 q 433 629 440 637 q 401 621 425 621 q 362 637 378 621 q 347 677 347 652 l 347 935 q 362 975 347 960 q 401 991 378 991 q 440 975 425 991 q 456 935 456 960 l 456 677 q 440 637 456 652 z "},"#":{"ha":840,"x_min":0,"x_max":835,"o":"m 159 273 l 41 273 q 12 286 23 273 q 0 317 0 298 q 15 356 0 341 q 52 371 29 371 l 180 371 l 229 618 l 104 618 q 74 630 85 618 q 62 661 62 642 q 77 700 62 685 q 115 715 92 715 l 249 715 l 297 945 q 347 991 307 991 q 380 979 368 991 q 393 947 393 968 q 391 929 393 937 l 347 715 l 573 715 l 621 945 q 671 991 631 991 q 705 979 692 991 q 717 947 717 968 q 715 929 717 937 l 671 715 l 793 715 q 823 703 812 715 q 835 671 835 690 q 820 633 835 648 q 783 618 806 618 l 650 618 l 600 371 l 730 371 q 760 359 748 371 q 771 328 771 347 q 756 289 771 304 q 719 273 742 273 l 580 273 l 531 34 q 481 -12 522 -12 q 448 -1 460 -12 q 435 32 435 11 q 437 50 435 41 l 483 273 l 256 273 l 207 32 q 157 -12 197 -12 q 123 -1 136 -12 q 111 32 111 11 q 113 50 111 41 l 159 273 m 275 369 l 503 369 l 554 619 l 326 619 l 275 369 z "},"$":{"ha":840,"x_min":85,"x_max":753,"o":"m 448 -97 q 443 -103 448 -97 q 419 -109 437 -109 q 390 -97 401 -109 q 378 -68 378 -86 l 378 20 q 191 82 271 29 q 89 222 112 135 q 85 253 85 237 q 100 293 85 277 q 140 308 116 308 q 201 260 184 308 q 378 125 239 141 l 378 449 l 363 453 q 168 545 233 484 q 103 703 103 605 q 179 879 103 810 q 378 959 256 948 l 378 1046 q 390 1076 378 1065 q 419 1087 401 1087 q 448 1076 437 1087 q 460 1046 460 1065 l 460 960 q 637 896 562 950 q 734 757 711 842 q 739 726 739 742 q 723 687 739 702 q 683 671 707 671 q 623 720 638 671 q 460 853 578 838 l 460 545 l 481 540 q 685 447 617 507 q 753 283 753 387 q 712 146 753 205 q 607 56 672 87 q 460 19 542 25 l 460 -68 q 448 -97 460 -86 m 221 711 q 258 621 221 658 q 378 564 294 585 l 378 852 q 262 803 304 843 q 221 711 221 762 m 464 429 l 460 429 l 460 125 q 592 172 550 132 q 635 274 635 212 q 598 369 635 333 q 464 429 561 405 z "},"%":{"ha":1084,"x_min":43,"x_max":1041,"o":"m 224 -12 q 191 -1 203 -12 q 178 28 178 10 q 189 61 178 46 l 507 516 l 816 962 q 838 985 827 979 q 863 991 848 991 q 893 979 880 991 q 906 951 906 968 q 896 919 906 932 l 587 475 l 269 16 q 248 -6 258 0 q 224 -12 238 -12 m 374 561 q 349 527 374 561 q 234 494 323 494 q 94 560 144 494 q 43 742 43 627 q 94 923 43 857 q 234 989 145 989 q 374 923 323 989 q 425 742 425 857 q 374 561 425 627 m 164 615 q 176 593 164 615 q 234 570 189 570 q 304 615 279 570 q 329 742 329 660 q 304 868 329 823 q 234 912 279 912 q 164 868 189 912 q 139 742 139 823 q 164 615 139 660 m 990 57 q 965 23 990 57 q 850 -10 939 -10 q 709 56 760 -10 q 659 238 659 123 q 710 419 659 353 q 850 485 761 485 q 990 419 939 485 q 1041 238 1041 353 q 990 57 1041 123 m 780 111 q 792 89 780 111 q 850 66 804 66 q 920 111 895 66 q 945 238 945 156 q 920 364 945 319 q 850 408 895 408 q 780 364 805 408 q 755 238 755 319 q 780 111 755 156 z "},"&":{"ha":929,"x_min":56,"x_max":882,"o":"m 829 -12 q 801 -7 812 -12 q 776 14 789 -1 l 696 98 q 553 14 635 43 q 384 -16 471 -16 q 147 61 239 -16 q 56 260 56 138 q 248 532 56 430 q 285 551 283 550 q 191 672 219 621 q 163 778 163 724 q 234 933 163 871 q 410 995 304 995 q 588 933 518 995 q 658 777 658 871 q 609 643 658 702 q 448 526 560 585 l 690 264 q 742 508 742 356 q 756 552 742 536 q 795 569 770 569 q 836 552 821 569 q 850 508 850 536 q 769 182 850 304 l 859 89 q 877 64 872 75 q 882 39 882 54 q 867 2 882 17 q 829 -12 852 -12 m 383 594 q 507 680 471 639 q 544 772 544 720 q 507 864 544 829 q 411 899 470 899 q 316 863 353 899 q 279 771 279 827 q 302 691 279 731 q 383 594 326 651 m 395 85 q 523 110 460 85 q 625 176 586 135 l 350 478 q 317 460 330 469 q 209 370 241 414 q 176 269 176 325 q 237 136 176 186 q 395 85 297 85 z "},"'":{"ha":292,"x_min":92,"x_max":200,"o":"m 185 637 q 177 629 185 637 q 146 621 170 621 q 107 637 122 621 q 92 677 92 652 l 92 935 q 107 975 92 960 q 146 991 122 991 q 185 975 170 991 q 200 935 200 960 l 200 677 q 185 637 200 652 z "},"(":{"ha":448,"x_min":129,"x_max":397,"o":"m 388 -210 q 383 -215 388 -210 q 361 -219 378 -219 q 332 -211 345 -219 q 302 -180 319 -203 q 170 80 212 -50 q 129 386 129 211 q 304 955 129 722 q 333 984 321 977 q 361 991 345 991 q 387 982 376 991 q 397 958 397 973 q 384 922 397 945 q 285 673 321 812 q 249 386 249 533 q 285 99 249 239 q 384 -151 321 -41 q 397 -189 397 -174 q 388 -210 397 -201 z "},")":{"ha":448,"x_min":50,"x_max":319,"o":"m 116 -211 q 109 -215 116 -211 q 86 -219 102 -219 q 60 -210 70 -219 q 50 -189 50 -201 q 64 -151 50 -174 q 163 99 127 -41 q 199 386 199 239 q 163 673 199 533 q 64 922 127 812 q 50 958 50 945 q 61 982 50 973 q 87 991 71 991 q 115 984 103 991 q 143 955 126 977 q 319 386 319 722 q 277 80 319 211 q 146 -180 236 -50 q 116 -211 129 -203 z "},"*":{"ha":556,"x_min":56,"x_max":498,"o":"m 279 514 q 247 526 258 514 q 235 559 235 538 l 241 685 l 124 609 q 98 602 113 602 q 68 613 81 602 q 56 645 56 625 q 81 683 56 669 l 203 749 l 81 814 q 56 852 56 829 q 68 884 56 872 q 98 896 81 896 q 124 888 113 896 l 241 814 l 235 946 q 247 979 235 966 q 279 991 258 991 q 310 979 299 991 q 321 946 321 967 l 315 814 l 431 888 q 457 896 442 896 q 486 884 474 896 q 498 852 498 872 q 473 814 498 829 l 352 749 l 473 683 q 498 645 498 669 q 486 613 498 625 q 457 602 474 602 q 431 609 442 602 l 315 685 l 321 559 q 310 526 321 538 q 279 514 299 514 z "},"+":{"ha":840,"x_min":81,"x_max":758,"o":"m 459 51 q 452 43 459 51 q 420 35 444 35 q 380 51 395 35 q 365 93 365 68 l 365 331 l 140 331 q 98 346 115 331 q 81 386 81 361 q 98 426 81 410 q 140 441 115 441 l 365 441 l 365 680 q 380 721 365 705 q 420 738 395 738 q 459 721 444 738 q 475 680 475 705 l 475 441 l 699 441 q 741 426 724 441 q 758 386 758 410 q 741 346 758 361 q 699 331 724 331 l 475 331 l 475 93 q 459 51 475 68 z "},",":{"ha":353,"x_min":66,"x_max":233,"o":"m 174 157 q 217 143 201 157 q 233 104 233 128 q 228 66 233 86 l 165 -167 q 114 -210 155 -210 q 79 -198 93 -210 q 66 -167 66 -186 q 68 -146 66 -158 l 116 106 q 174 157 126 157 z "},"-":{"ha":595,"x_min":65,"x_max":530,"o":"m 123 342 q 82 357 98 342 q 65 397 65 372 q 82 436 65 421 q 123 452 98 452 l 472 452 q 514 436 497 452 q 530 397 530 421 q 514 357 530 372 q 472 342 497 342 l 123 342 z "},"‐":{"ha":595,"x_min":65,"x_max":530,"o":"m 123 342 q 82 357 98 342 q 65 397 65 372 q 82 436 65 421 q 123 452 98 452 l 472 452 q 514 436 497 452 q 530 397 530 421 q 514 357 530 372 q 472 342 497 342 l 123 342 z "},"‑":{"ha":595,"x_min":65,"x_max":530,"o":"m 123 342 q 82 357 98 342 q 65 397 65 372 q 82 436 65 421 q 123 452 98 452 l 472 452 q 514 436 497 452 q 530 397 530 421 q 514 357 530 372 q 472 342 497 342 l 123 342 z "},".":{"ha":353,"x_min":99,"x_max":254,"o":"m 231 16 q 220 4 231 16 q 176 -7 209 -7 q 121 16 144 -7 q 99 71 99 38 q 121 125 99 103 q 176 148 144 148 q 231 125 209 148 q 254 71 254 103 q 231 16 254 38 z "},"/":{"ha":448,"x_min":8,"x_max":435,"o":"m 56 -235 q 22 -223 35 -235 q 8 -191 8 -212 q 12 -170 8 -182 l 338 948 q 389 991 350 991 q 422 978 410 991 q 435 946 435 966 q 433 928 435 937 l 104 -196 q 56 -235 93 -235 z "},":":{"ha":353,"x_min":99,"x_max":254,"o":"m 231 515 q 220 504 231 515 q 176 492 209 492 q 121 515 144 492 q 99 570 99 537 q 121 625 99 602 q 176 647 144 647 q 231 625 209 647 q 254 570 254 602 q 231 515 254 537 m 231 16 q 220 4 231 16 q 176 -7 209 -7 q 121 16 144 -7 q 99 71 99 38 q 121 125 99 103 q 176 148 144 148 q 231 125 209 148 q 254 71 254 103 q 231 16 254 38 z "},";":{"ha":353,"x_min":66,"x_max":254,"o":"m 231 515 q 220 504 231 515 q 176 492 209 492 q 121 515 144 492 q 99 570 99 537 q 121 625 99 602 q 176 647 144 647 q 231 625 209 647 q 254 570 254 602 q 231 515 254 537 m 174 157 q 217 143 201 157 q 233 104 233 128 q 228 66 233 86 l 165 -167 q 114 -210 155 -210 q 79 -198 93 -210 q 66 -167 66 -186 q 68 -146 66 -158 l 116 106 q 174 157 126 157 z "},"<":{"ha":840,"x_min":92,"x_max":765,"o":"m 711 60 q 674 70 696 60 l 153 306 q 92 385 92 333 q 152 464 92 436 l 674 702 q 711 711 696 711 q 750 696 734 711 q 765 657 765 681 q 722 600 765 618 l 233 393 l 233 387 l 722 172 q 765 115 765 152 q 750 76 765 91 q 711 60 734 60 z "},"=":{"ha":840,"x_min":95,"x_max":745,"o":"m 151 481 q 111 495 126 481 q 95 533 95 510 q 111 571 95 557 q 151 585 126 585 l 689 585 q 729 571 713 585 q 745 533 745 557 q 729 495 745 510 q 689 481 713 481 l 151 481 m 151 187 q 111 202 126 187 q 95 239 95 216 q 111 277 95 263 q 151 292 126 292 l 689 292 q 729 277 713 292 q 745 239 745 263 q 729 202 745 216 q 689 187 713 187 l 151 187 z "},">":{"ha":840,"x_min":75,"x_max":747,"o":"m 129 60 q 90 76 105 60 q 75 115 75 91 q 118 172 75 153 l 607 379 l 607 385 l 118 600 q 75 657 75 620 q 90 696 75 681 q 129 711 105 711 q 165 702 144 711 l 687 466 q 747 387 747 439 q 688 308 747 336 l 165 70 q 129 60 144 60 z "},"?":{"ha":680,"x_min":46,"x_max":621,"o":"m 311 275 q 266 294 281 275 q 250 345 250 313 l 250 363 q 283 480 250 431 q 386 571 315 529 q 470 644 445 607 q 495 732 495 681 q 449 840 495 799 q 329 880 404 880 q 218 848 262 880 q 157 753 174 815 q 135 711 148 723 q 100 699 123 699 q 60 714 74 699 q 46 755 46 728 q 64 833 46 795 q 165 946 94 905 q 334 986 236 986 q 541 917 460 986 q 621 739 621 847 q 479 507 621 592 q 392 435 416 469 q 369 347 369 401 q 311 275 369 275 m 310 -7 q 255 16 277 -7 q 233 71 233 38 q 255 126 233 104 q 310 148 277 148 q 365 126 343 148 q 387 71 387 104 q 365 16 387 38 q 310 -7 343 -7 z "},"@":{"ha":1215,"x_min":66,"x_max":1171,"o":"m 66 402 q 108 638 66 531 q 223 818 149 745 q 401 932 297 892 q 629 973 506 973 q 908 912 785 973 q 1100 734 1030 850 q 1171 466 1171 618 q 1102 214 1171 313 q 920 116 1034 116 q 813 145 857 116 q 764 227 770 175 l 758 227 q 690 145 736 174 q 585 116 645 116 q 415 196 481 116 q 350 404 350 276 q 415 608 350 529 q 583 687 480 687 q 685 662 640 687 q 750 591 730 636 l 755 591 l 755 632 q 769 672 755 658 q 807 687 783 687 q 844 672 831 687 q 858 632 858 658 l 858 276 q 879 223 858 241 q 938 204 899 204 q 1037 276 998 204 q 1075 461 1075 348 q 1039 645 1075 563 q 942 780 1004 728 q 800 860 880 832 q 628 888 720 888 q 383 826 489 888 q 219 653 277 764 q 162 398 162 542 q 224 143 162 250 q 397 -18 287 36 q 655 -73 508 -73 q 852 -44 738 -73 q 876 -41 865 -41 q 903 -50 893 -41 q 913 -75 913 -59 q 855 -129 913 -110 q 633 -159 762 -159 q 342 -93 469 -159 q 140 100 214 -28 q 66 402 66 229 m 602 212 q 713 264 671 212 q 754 405 754 317 q 713 542 754 491 q 603 593 672 593 q 497 543 535 593 q 458 404 458 493 q 496 263 458 314 q 602 212 534 212 z "},"A":{"ha":876,"x_min":37,"x_max":839,"o":"m 98 -9 q 55 6 72 -9 q 37 44 37 21 q 45 78 37 58 l 359 929 q 439 988 381 988 q 516 930 494 988 l 831 78 q 839 44 839 58 q 822 6 839 21 q 778 -9 804 -9 q 718 37 734 -9 l 631 280 l 244 280 l 158 37 q 98 -9 142 -9 m 279 384 l 597 384 l 440 830 l 436 830 l 279 384 z "},"B":{"ha":840,"x_min":95,"x_max":796,"o":"m 156 0 q 112 17 128 0 q 95 63 95 34 l 95 916 q 112 962 95 945 q 156 979 128 979 l 466 979 q 669 911 591 979 q 747 734 747 844 q 697 596 747 658 q 578 521 648 534 l 578 515 q 737 437 677 503 q 796 275 796 372 q 708 73 796 145 q 465 0 621 0 l 156 0 m 217 557 l 400 557 q 566 599 509 557 q 623 720 623 641 q 575 832 623 793 q 438 871 527 871 l 217 871 l 217 557 m 217 108 l 446 108 q 614 152 557 108 q 671 281 671 196 q 435 452 671 452 l 217 452 l 217 108 z "},"C":{"ha":953,"x_min":57,"x_max":889,"o":"m 498 -16 q 176 120 295 -16 q 57 490 57 257 q 177 858 57 720 q 498 995 297 995 q 733 931 631 995 q 879 758 836 867 q 889 709 889 732 q 874 669 889 684 q 834 654 859 654 q 770 705 789 654 q 663 836 736 789 q 498 882 590 882 q 269 775 355 882 q 182 490 182 668 q 268 203 182 309 q 498 96 353 96 q 667 138 596 96 q 772 260 739 179 q 829 302 791 302 q 869 287 854 302 q 885 248 885 271 q 869 186 885 219 q 725 36 820 88 q 498 -16 631 -16 z "},"D":{"ha":942,"x_min":95,"x_max":886,"o":"m 156 0 q 112 17 128 0 q 95 63 95 34 l 95 916 q 112 962 95 945 q 156 979 128 979 l 424 979 q 764 849 642 979 q 886 490 886 720 q 764 129 886 258 q 424 0 642 0 l 156 0 m 217 110 l 416 110 q 671 208 582 110 q 761 488 761 306 q 672 770 761 672 q 416 869 583 869 l 217 869 l 217 110 z "},"E":{"ha":767,"x_min":95,"x_max":711,"o":"m 156 0 q 112 17 128 0 q 95 63 95 34 l 95 916 q 112 962 95 945 q 156 979 128 979 l 653 979 q 695 963 679 979 q 711 924 711 948 q 695 884 711 899 q 653 869 679 869 l 217 869 l 217 555 l 629 555 q 670 540 654 555 q 686 500 686 525 q 670 461 686 477 q 629 446 654 446 l 217 446 l 217 110 l 653 110 q 695 95 679 110 q 711 55 711 79 q 695 15 711 31 q 653 0 679 0 l 156 0 z "},"F":{"ha":733,"x_min":95,"x_max":699,"o":"m 200 7 q 192 -1 200 7 q 156 -9 184 -9 q 112 7 128 -9 q 95 54 95 24 l 95 916 q 112 962 95 945 q 156 979 128 979 l 641 979 q 683 963 667 979 q 699 924 699 948 q 683 884 699 899 q 641 869 667 869 l 217 869 l 217 532 l 603 532 q 645 517 629 532 q 661 478 661 503 q 645 439 661 454 q 603 424 629 424 l 217 424 l 217 54 q 200 7 217 24 z "},"G":{"ha":981,"x_min":57,"x_max":920,"o":"m 505 -16 q 179 122 300 -16 q 57 494 57 261 q 178 859 57 724 q 505 995 300 995 q 741 932 638 995 q 884 766 844 869 q 893 714 893 741 q 878 674 893 689 q 838 659 863 659 q 800 670 815 659 q 774 709 785 682 q 667 838 736 794 q 505 882 598 882 q 268 780 354 882 q 182 495 182 677 q 269 203 182 311 q 505 96 356 96 q 717 173 635 96 q 798 373 798 250 l 798 391 l 570 391 q 528 406 545 391 q 512 444 512 420 q 528 483 512 468 q 570 498 545 498 l 859 498 q 904 481 887 498 q 920 435 920 464 l 920 405 q 811 95 920 206 q 505 -16 701 -16 z "},"H":{"ha":971,"x_min":95,"x_max":876,"o":"m 200 7 q 192 -1 200 7 q 156 -9 184 -9 q 112 7 128 -9 q 95 54 95 24 l 95 925 q 112 971 95 954 q 156 988 128 988 q 200 971 184 988 q 217 925 217 954 l 217 555 l 754 555 l 754 925 q 771 971 754 954 q 815 988 787 988 q 860 971 843 988 q 876 925 876 954 l 876 54 q 860 7 876 24 q 815 -9 843 -9 q 771 7 787 -9 q 754 54 754 24 l 754 446 l 217 446 l 217 54 q 200 7 217 24 z "},"I":{"ha":312,"x_min":95,"x_max":217,"o":"m 200 7 q 192 -1 200 7 q 156 -9 184 -9 q 112 7 128 -9 q 95 54 95 24 l 95 925 q 112 971 95 954 q 156 988 128 988 q 200 971 184 988 q 217 925 217 954 l 217 54 q 200 7 217 24 z "},"J":{"ha":688,"x_min":29,"x_max":593,"o":"m 305 -16 q 140 29 211 -16 q 41 152 68 75 q 29 216 29 187 q 44 262 29 245 q 87 279 60 279 q 147 224 132 279 q 205 129 164 162 q 304 96 245 96 q 428 143 385 96 q 471 280 471 191 l 471 925 q 487 971 471 954 q 532 988 504 988 q 576 971 559 988 q 593 925 593 954 l 593 279 q 517 62 593 140 q 305 -16 441 -16 z "},"K":{"ha":854,"x_min":95,"x_max":804,"o":"m 200 7 q 192 -1 200 7 q 156 -9 184 -9 q 112 7 128 -9 q 95 54 95 24 l 95 925 q 112 971 95 954 q 156 988 128 988 q 200 971 184 988 q 217 925 217 954 l 217 501 l 224 501 l 660 965 q 708 989 682 989 q 748 973 732 989 q 764 933 764 957 q 748 895 764 911 l 411 545 l 786 94 q 804 48 804 72 q 787 7 804 24 q 745 -10 770 -10 q 690 20 714 -10 l 326 458 l 217 342 l 217 54 q 200 7 217 24 z "},"L":{"ha":728,"x_min":95,"x_max":699,"o":"m 156 0 q 112 17 128 0 q 95 63 95 34 l 95 925 q 112 971 95 954 q 156 988 128 988 q 200 971 184 988 q 217 925 217 954 l 217 110 l 641 110 q 683 95 667 110 q 699 55 699 79 q 683 15 699 31 q 641 0 667 0 l 156 0 z "},"M":{"ha":1154,"x_min":95,"x_max":1059,"o":"m 194 6 q 186 -2 194 6 q 152 -9 178 -9 q 110 6 125 -9 q 95 50 95 22 l 95 912 q 116 967 95 946 q 173 988 138 988 q 224 972 204 988 q 258 923 244 957 l 574 162 l 580 162 l 895 923 q 930 972 909 957 q 983 988 951 988 q 1038 967 1017 988 q 1059 912 1059 947 l 1059 50 q 1044 6 1059 22 q 1002 -9 1029 -9 q 961 6 976 -9 q 945 50 945 22 l 945 754 l 941 754 l 650 60 q 577 7 628 7 q 504 58 526 7 l 214 754 l 209 754 l 209 50 q 194 6 209 22 z "},"N":{"ha":971,"x_min":95,"x_max":876,"o":"m 199 7 q 191 -1 199 7 q 155 -9 183 -9 q 111 7 127 -9 q 95 54 95 24 l 95 917 q 114 968 95 949 q 165 988 134 988 q 204 980 189 988 q 235 947 219 971 l 749 210 l 755 210 l 755 925 q 772 971 755 954 q 816 988 788 988 q 860 971 844 988 q 876 925 876 954 l 876 57 q 858 8 876 26 q 807 -9 840 -9 q 767 -1 782 -9 q 736 31 753 7 l 222 766 l 216 766 l 216 54 q 199 7 216 24 z "},"O":{"ha":1016,"x_min":57,"x_max":959,"o":"m 838 120 q 777 52 838 120 q 508 -16 716 -16 q 178 120 300 -16 q 57 489 57 256 q 178 859 57 722 q 508 995 300 995 q 838 859 716 995 q 959 489 959 722 q 838 120 959 256 m 270 202 q 314 149 270 202 q 508 96 358 96 q 746 202 658 96 q 833 489 833 309 q 746 776 833 670 q 508 882 658 882 q 270 776 358 882 q 182 489 182 670 q 270 202 182 309 z "},"P":{"ha":802,"x_min":95,"x_max":758,"o":"m 200 7 q 192 -1 200 7 q 156 -9 184 -9 q 112 7 128 -9 q 95 54 95 24 l 95 916 q 112 962 95 945 q 156 979 128 979 l 444 979 q 670 891 582 979 q 758 665 758 803 q 669 437 758 526 q 443 349 581 349 l 217 349 l 217 54 q 200 7 217 24 m 217 458 l 412 458 q 574 512 517 458 q 632 665 632 567 q 575 816 632 762 q 412 870 517 870 l 217 870 l 217 458 z "},"Q":{"ha":1016,"x_min":57,"x_max":959,"o":"m 508 -16 q 178 120 300 -16 q 57 489 57 256 q 178 859 57 722 q 508 995 300 995 q 838 859 716 995 q 959 489 959 722 q 913 240 959 348 q 781 68 867 132 l 856 -35 q 869 -73 869 -54 q 853 -111 869 -96 q 814 -126 838 -126 q 766 -100 785 -126 l 683 14 q 508 -16 605 -16 m 508 96 q 612 112 563 96 l 545 204 q 531 243 531 222 q 547 281 531 266 q 586 296 562 296 q 613 290 602 296 q 635 269 623 284 l 710 166 q 802 299 770 216 q 833 489 833 382 q 746 776 833 670 q 508 882 658 882 q 270 776 358 882 q 182 489 182 670 q 270 202 182 309 q 508 96 358 96 z "},"R":{"ha":832,"x_min":95,"x_max":774,"o":"m 200 5 q 192 -4 200 5 q 156 -12 184 -12 q 112 5 128 -12 q 95 51 95 22 l 95 916 q 112 962 95 945 q 156 979 128 979 l 462 979 q 689 899 604 979 q 774 687 774 819 q 722 510 774 585 q 577 406 669 435 l 756 87 q 769 44 769 64 q 751 4 769 20 q 707 -12 733 -12 q 672 -3 686 -12 q 647 27 659 5 l 451 387 l 217 387 l 217 51 q 200 5 217 22 m 217 495 l 451 495 q 596 544 545 495 q 648 683 648 593 q 594 821 648 771 q 446 870 541 870 l 217 870 l 217 495 z "},"S":{"ha":825,"x_min":58,"x_max":777,"o":"m 416 -16 q 186 39 280 -16 q 64 184 92 94 q 58 227 58 207 q 73 273 58 256 q 114 290 88 290 q 173 242 159 290 q 261 131 195 168 q 422 94 327 94 q 587 140 522 94 q 652 260 652 187 q 607 363 652 323 q 462 426 562 404 l 353 450 q 140 548 208 481 q 73 720 73 614 q 169 918 73 841 q 418 995 266 995 q 631 937 541 995 q 748 781 722 879 q 751 750 751 768 q 736 710 751 726 q 696 695 720 695 q 635 743 651 695 q 414 885 586 885 q 259 842 320 885 q 198 726 198 799 q 242 627 198 666 q 384 566 286 587 l 492 543 q 710 446 644 509 q 777 278 777 383 q 679 63 777 142 q 416 -16 581 -16 z "},"T":{"ha":807,"x_min":24,"x_max":783,"o":"m 448 7 q 440 -1 448 7 q 404 -9 431 -9 q 359 7 376 -9 q 342 54 342 24 l 342 869 l 82 869 q 40 884 56 869 q 24 924 24 899 q 40 963 24 948 q 82 979 56 979 l 725 979 q 767 963 751 979 q 783 924 783 948 q 767 884 783 899 q 725 869 751 869 l 465 869 l 465 54 q 448 7 465 24 z "},"U":{"ha":967,"x_min":95,"x_max":872,"o":"m 767 84 q 715 34 767 84 q 484 -16 663 -16 q 200 84 304 -16 q 95 343 95 184 l 95 925 q 112 971 95 954 q 156 988 128 988 q 200 971 184 988 q 217 925 217 954 l 217 351 q 288 167 217 238 q 484 96 359 96 q 679 167 608 96 q 750 351 750 238 l 750 925 q 767 971 750 954 q 811 988 783 988 q 856 971 839 988 q 872 925 872 954 l 872 343 q 767 84 872 184 z "},"V":{"ha":876,"x_min":27,"x_max":849,"o":"m 484 3 q 476 -3 484 3 q 438 -9 467 -9 q 392 3 409 -9 q 363 47 374 16 l 35 901 q 27 935 27 920 q 44 974 27 959 q 88 988 60 988 q 146 945 131 988 l 436 149 l 440 149 l 730 945 q 752 978 739 968 q 787 988 765 988 q 832 973 814 988 q 849 935 849 958 q 842 901 849 922 l 513 46 q 484 3 501 16 z "},"W":{"ha":1283,"x_min":41,"x_max":1242,"o":"m 354 -9 q 311 4 327 -9 q 286 49 294 18 l 46 899 q 41 932 41 918 q 58 972 41 957 q 101 988 75 988 q 161 939 149 988 l 354 180 l 359 180 l 566 920 q 593 972 576 956 q 642 988 611 988 q 690 972 672 988 q 717 922 707 957 l 924 180 l 929 180 l 1122 939 q 1182 988 1134 988 q 1225 972 1208 988 q 1242 932 1242 957 q 1237 899 1242 918 l 998 49 q 972 4 989 18 q 929 -9 956 -9 q 884 4 901 -9 q 859 48 868 18 l 645 777 l 638 777 l 425 48 q 399 4 415 18 q 354 -9 382 -9 z "},"X":{"ha":882,"x_min":61,"x_max":821,"o":"m 121 -9 q 78 6 96 -9 q 61 43 61 22 q 75 82 61 62 l 363 490 l 363 495 l 81 891 q 68 931 68 910 q 86 971 68 955 q 131 988 104 988 q 160 981 149 988 q 186 952 172 973 l 443 585 l 448 585 l 709 955 q 733 981 722 974 q 761 988 744 988 q 803 972 786 988 q 821 935 821 957 q 807 897 821 916 l 513 489 l 513 485 l 798 85 q 811 47 811 67 q 793 7 811 24 q 749 -9 774 -9 q 696 22 718 -9 l 437 390 l 433 390 l 173 24 q 149 -3 159 4 q 121 -9 138 -9 z "},"Y":{"ha":850,"x_min":35,"x_max":815,"o":"m 470 7 q 461 -1 470 7 q 425 -9 453 -9 q 381 7 397 -9 q 364 54 364 24 l 364 421 l 47 895 q 35 935 35 913 q 52 973 35 958 q 94 988 69 988 q 148 957 127 988 l 423 539 l 427 539 l 703 957 q 756 988 724 988 q 798 973 781 988 q 815 935 815 958 q 803 895 815 913 l 486 421 l 486 54 q 470 7 486 24 z "},"Z":{"ha":857,"x_min":66,"x_max":800,"o":"m 131 0 q 84 17 102 0 q 66 62 66 34 q 88 117 66 86 l 625 864 l 625 869 l 134 869 q 92 884 108 869 q 75 924 75 899 q 92 963 75 948 q 134 979 108 979 l 712 979 q 760 961 742 979 q 779 916 779 944 q 757 861 779 892 l 223 115 l 223 110 l 742 110 q 784 95 768 110 q 800 55 800 79 q 784 15 800 31 q 742 0 768 0 l 131 0 z "},"[":{"ha":448,"x_min":139,"x_max":441,"o":"m 218 -208 q 161 -186 182 -208 q 139 -129 139 -165 l 139 899 q 161 957 139 935 q 218 979 182 979 l 393 979 q 428 966 414 979 q 441 933 441 954 q 428 899 441 912 q 393 886 415 886 l 253 886 l 253 -117 l 393 -117 q 428 -129 415 -117 q 441 -161 441 -141 q 428 -195 441 -182 q 393 -208 415 -208 l 218 -208 z "},"\\":{"ha":448,"x_min":10,"x_max":437,"o":"m 389 -235 q 341 -196 353 -235 l 12 928 q 10 946 10 937 q 23 978 10 966 q 57 991 36 991 q 108 948 96 991 l 434 -170 q 437 -191 437 -182 q 424 -223 437 -212 q 389 -235 410 -235 z "},"]":{"ha":448,"x_min":7,"x_max":309,"o":"m 230 -208 l 54 -208 q 20 -195 33 -208 q 7 -161 7 -182 q 20 -129 7 -141 q 54 -117 33 -117 l 195 -117 l 195 886 l 54 886 q 20 899 33 886 q 7 933 7 912 q 20 966 7 954 q 54 979 33 979 l 230 979 q 287 957 265 979 q 309 899 309 935 l 309 -129 q 287 -186 309 -165 q 230 -208 265 -208 z "},"^":{"ha":556,"x_min":57,"x_max":499,"o":"m 107 536 q 71 548 85 536 q 57 581 57 560 q 64 609 57 595 l 191 880 q 228 934 209 919 q 277 949 247 949 q 328 934 309 949 q 366 881 348 919 l 492 609 q 499 581 499 595 q 485 548 499 560 q 449 536 471 536 q 401 570 417 536 l 281 839 l 274 839 l 155 570 q 107 536 139 536 z "},"_":{"ha":562,"x_min":-43,"x_max":605,"o":"m 1 -159 q -31 -147 -18 -159 q -43 -115 -43 -135 q -31 -84 -43 -96 q 1 -73 -18 -73 l 561 -73 q 592 -84 580 -73 q 605 -115 605 -96 q 592 -147 605 -135 q 561 -159 580 -159 l 1 -159 z "},"`":{"ha":682,"x_min":240,"x_max":452,"o":"m 412 856 q 370 878 388 856 l 254 1021 q 240 1057 240 1037 q 254 1089 240 1077 q 289 1102 267 1102 q 316 1095 305 1102 q 341 1067 327 1088 l 442 923 q 452 892 452 908 q 441 866 452 877 q 412 856 429 856 z "},"a":{"ha":697,"x_min":47,"x_max":624,"o":"m 282 -12 q 112 46 177 -12 q 47 199 47 104 q 114 345 47 290 q 303 406 181 399 l 506 417 l 506 476 q 465 577 506 541 q 351 614 425 614 q 253 591 293 614 q 183 516 212 568 q 134 488 168 488 q 97 502 111 488 q 82 541 82 517 q 96 589 82 564 q 197 682 126 647 q 354 718 268 718 q 551 655 478 718 q 624 488 624 593 l 624 47 q 608 4 624 21 q 568 -12 593 -12 q 528 4 543 -12 q 512 47 512 21 l 512 121 l 509 121 q 416 24 478 61 q 282 -12 353 -12 m 309 88 q 449 140 392 88 q 506 268 506 192 l 506 326 l 317 314 q 207 279 245 309 q 168 199 168 250 q 206 119 168 149 q 309 88 245 88 z "},"b":{"ha":770,"x_min":83,"x_max":728,"o":"m 179 4 q 171 -4 179 4 q 138 -12 163 -12 q 98 4 113 -12 q 83 45 83 20 l 83 928 q 99 973 83 956 q 142 991 116 991 q 184 973 168 991 q 201 928 201 956 l 201 587 l 203 587 q 297 683 237 648 q 430 718 356 718 q 646 618 564 718 q 728 353 728 518 q 646 87 728 186 q 428 -12 564 -12 q 293 22 352 -12 q 198 119 233 57 l 195 119 l 195 45 q 179 4 195 20 m 405 92 q 553 162 498 92 q 607 353 607 232 q 553 543 607 473 q 405 614 498 614 q 257 542 315 614 q 200 353 200 469 q 257 163 200 235 q 405 92 315 92 z "},"c":{"ha":696,"x_min":42,"x_max":647,"o":"m 368 -12 q 131 86 220 -12 q 42 351 42 185 q 131 617 42 517 q 366 718 220 718 q 544 668 465 718 q 642 545 622 618 q 646 519 646 532 q 633 482 646 496 q 596 468 619 468 q 565 477 577 468 q 540 509 552 486 q 368 614 484 614 q 219 542 275 614 q 162 353 162 471 q 219 162 162 233 q 368 92 275 92 q 471 118 429 92 q 541 196 512 144 q 565 229 553 220 q 596 237 576 237 q 633 223 619 237 q 647 186 647 209 q 642 156 647 174 q 539 35 616 82 q 368 -12 463 -12 z "},"d":{"ha":769,"x_min":42,"x_max":686,"o":"m 344 -12 q 125 87 208 -12 q 42 353 42 187 q 125 617 42 517 q 341 718 208 718 q 475 684 416 718 q 566 591 534 650 l 568 591 l 568 928 q 585 973 568 956 q 627 991 602 991 q 670 973 653 991 q 686 928 686 956 l 686 45 q 670 4 686 20 q 629 -12 654 -12 q 586 4 603 -12 q 568 45 568 20 l 568 126 l 566 126 q 480 24 536 61 q 344 -12 425 -12 m 366 92 q 513 163 458 92 q 569 353 569 235 q 513 542 569 471 q 366 614 457 614 q 218 543 273 614 q 163 353 163 472 q 218 162 163 233 q 366 92 273 92 z "},"e":{"ha":711,"x_min":42,"x_max":669,"o":"m 372 -12 q 129 83 216 -12 q 42 350 42 179 q 129 617 42 517 q 362 718 216 718 q 584 626 498 718 q 669 389 669 534 q 652 339 669 357 q 604 321 635 321 l 163 321 q 218 152 163 214 q 368 90 273 90 q 474 115 431 90 q 558 200 517 140 q 602 224 575 224 q 640 210 626 224 q 654 172 654 195 q 646 138 654 159 q 541 27 612 66 q 372 -12 469 -12 m 164 413 l 547 413 q 494 560 545 505 q 360 615 442 615 q 223 559 277 615 q 164 413 170 504 z "},"f":{"ha":422,"x_min":6,"x_max":390,"o":"m 217 5 q 209 -4 217 5 q 174 -12 201 -12 q 131 5 146 -12 q 115 50 115 22 l 115 608 l 56 608 q 20 621 33 608 q 6 656 6 634 q 20 692 6 678 q 56 705 33 705 l 115 705 l 115 784 q 161 934 115 884 q 294 984 207 984 q 365 970 340 984 q 390 929 390 956 q 358 888 390 897 q 321 884 342 884 q 253 859 275 884 q 232 780 232 834 l 232 705 l 336 705 q 373 692 359 705 q 387 656 387 678 q 373 621 387 634 q 336 608 359 608 l 233 608 l 233 50 q 217 5 233 22 z "},"g":{"ha":763,"x_min":42,"x_max":687,"o":"m 361 -266 q 203 -232 273 -265 q 96 -140 133 -198 q 82 -96 82 -119 q 97 -59 82 -73 q 135 -45 112 -45 q 160 -51 149 -45 q 184 -72 171 -56 q 271 -143 230 -122 q 366 -165 313 -165 q 514 -118 460 -167 q 569 10 569 -70 l 569 121 l 566 121 q 473 29 533 63 q 340 -5 413 -5 q 123 93 205 -5 q 42 355 42 191 q 124 619 42 521 q 342 718 205 718 q 473 684 416 718 q 567 589 531 650 l 569 589 l 569 656 q 586 701 569 684 q 628 718 602 718 q 670 701 654 718 q 687 656 687 684 l 687 14 q 599 -190 687 -113 q 361 -266 511 -267 m 363 98 q 512 169 456 98 q 569 355 569 239 q 512 543 569 471 q 363 614 456 614 q 217 544 272 614 q 163 355 163 473 q 217 168 163 237 q 363 98 272 98 z "},"h":{"ha":749,"x_min":83,"x_max":675,"o":"m 184 5 q 176 -3 184 5 q 142 -12 168 -12 q 99 5 116 -12 q 83 51 83 23 l 83 929 q 99 974 83 957 q 142 991 115 991 q 185 974 169 991 q 201 929 201 957 l 201 593 l 203 593 q 291 685 233 652 q 427 718 348 718 q 609 646 543 718 q 675 456 675 575 l 675 51 q 659 5 675 23 q 616 -12 642 -12 q 574 5 591 -12 q 557 51 557 23 l 557 434 q 515 566 557 519 q 391 613 473 613 q 252 558 303 613 q 201 411 201 503 l 201 51 q 184 5 201 23 z "},"i":{"ha":283,"x_min":68,"x_max":216,"o":"m 142 824 q 90 846 112 824 q 68 897 68 867 q 90 949 68 928 q 142 970 112 970 q 194 949 172 970 q 216 897 216 928 q 194 846 216 867 q 142 824 172 824 m 184 5 q 176 -3 184 5 q 142 -12 168 -12 q 99 5 116 -12 q 83 51 83 23 l 83 654 q 99 700 83 682 q 142 718 116 718 q 184 700 168 718 q 201 654 201 682 l 201 51 q 184 5 201 23 z "},"j":{"ha":283,"x_min":-50,"x_max":216,"o":"m 142 824 q 90 846 112 824 q 68 897 68 867 q 90 949 68 928 q 142 970 112 970 q 194 949 172 970 q 216 897 216 928 q 194 846 216 867 q 142 824 172 824 m 99 700 q 108 709 99 700 q 142 718 116 718 q 184 700 168 718 q 201 654 201 682 l 201 -52 q 154 -194 201 -145 q 20 -242 107 -242 q -31 -228 -12 -242 q -50 -191 -50 -214 q 3 -142 -50 -149 l 8 -141 q 66 -111 49 -135 q 83 -40 83 -87 l 83 654 q 99 700 83 682 z "},"k":{"ha":674,"x_min":83,"x_max":630,"o":"m 184 5 q 176 -3 184 5 q 142 -12 168 -12 q 99 5 116 -12 q 83 51 83 23 l 83 928 q 99 973 83 956 q 142 991 116 991 q 184 973 168 991 q 201 928 201 956 l 201 392 l 516 698 q 559 718 536 718 q 594 703 580 718 q 609 669 609 688 q 590 629 609 647 l 350 401 l 615 78 q 630 38 630 60 q 614 2 630 17 q 576 -12 599 -12 q 532 9 550 -12 l 267 328 l 201 266 l 201 51 q 184 5 201 23 z "},"l":{"ha":283,"x_min":83,"x_max":201,"o":"m 184 5 q 176 -3 184 5 q 142 -12 168 -12 q 99 5 116 -12 q 83 51 83 23 l 83 928 q 99 973 83 956 q 142 991 116 991 q 184 973 168 991 q 201 928 201 956 l 201 51 q 184 5 201 23 z "},"m":{"ha":1116,"x_min":77,"x_max":1042,"o":"m 178 6 q 170 -3 178 6 q 136 -12 162 -12 q 93 6 109 -12 q 77 51 77 24 l 77 658 q 92 701 77 684 q 132 718 108 718 q 172 701 157 718 q 188 658 188 684 l 188 593 l 191 593 q 269 684 216 650 q 391 718 321 718 q 514 683 463 718 q 589 583 566 648 l 591 583 q 679 682 621 646 q 812 718 738 718 q 980 655 917 718 q 1042 487 1042 592 l 1042 51 q 1026 6 1042 24 q 983 -12 1010 -12 q 941 6 957 -12 q 924 51 924 24 l 924 460 q 886 573 924 532 q 778 613 848 613 q 663 567 708 613 q 618 448 618 520 l 618 51 q 602 6 618 24 q 559 -12 586 -12 q 517 6 533 -12 q 500 51 500 24 l 500 473 q 461 575 500 536 q 356 613 422 613 q 240 564 286 613 q 195 442 195 515 l 195 51 q 178 6 195 24 z "},"n":{"ha":732,"x_min":77,"x_max":659,"o":"m 178 5 q 170 -3 178 5 q 136 -12 161 -12 q 93 5 110 -12 q 77 51 77 23 l 77 658 q 92 701 77 684 q 132 718 108 718 q 172 701 157 718 q 188 658 188 684 l 188 593 l 191 593 q 278 685 221 652 q 414 718 335 718 q 594 648 530 718 q 659 458 659 578 l 659 51 q 642 5 659 23 q 600 -12 625 -12 q 557 5 574 -12 q 541 51 541 23 l 541 437 q 500 568 541 523 q 378 613 459 613 q 245 559 295 613 q 195 415 195 505 l 195 51 q 178 5 195 23 z "},"o":{"ha":737,"x_min":42,"x_max":695,"o":"m 369 -12 q 132 86 221 -12 q 42 353 42 185 q 132 619 42 520 q 369 718 221 718 q 606 619 516 718 q 695 353 695 520 q 606 87 695 186 q 369 -12 516 -12 m 218 161 q 246 126 218 161 q 369 92 274 92 q 519 160 464 92 q 575 353 575 229 q 519 545 575 476 q 369 614 464 614 q 218 545 274 614 q 162 353 162 475 q 218 161 162 230 z "},"p":{"ha":763,"x_min":77,"x_max":721,"o":"m 178 -231 q 170 -240 178 -231 q 136 -249 161 -249 q 93 -231 110 -249 q 77 -186 77 -214 l 77 658 q 92 701 77 684 q 133 718 108 718 q 173 701 157 718 q 189 658 189 684 l 189 586 l 191 586 q 284 682 224 647 q 419 718 344 718 q 638 618 555 718 q 721 353 721 518 q 638 88 721 188 q 422 -12 555 -12 q 288 22 347 -12 q 197 115 229 56 l 195 115 l 195 -186 q 178 -231 195 -214 m 396 92 q 545 162 490 92 q 600 353 600 233 q 545 543 600 473 q 396 614 490 614 q 250 542 305 614 q 194 353 194 470 q 250 163 194 235 q 396 92 305 92 z "},"q":{"ha":763,"x_min":42,"x_max":686,"o":"m 340 -12 q 124 87 205 -12 q 42 353 42 187 q 124 618 42 519 q 342 718 206 718 q 477 683 418 718 q 571 586 536 648 l 574 586 l 574 658 q 589 701 574 684 q 630 718 605 718 q 671 701 655 718 q 686 658 686 684 l 686 -186 q 670 -231 686 -214 q 627 -249 653 -249 q 585 -231 602 -249 q 568 -186 568 -214 l 568 118 l 566 118 q 473 22 532 57 q 340 -12 414 -12 m 363 92 q 511 163 454 92 q 568 353 568 235 q 511 542 568 470 q 363 614 454 614 q 217 544 271 614 q 163 353 163 473 q 217 162 163 232 q 363 92 271 92 z "},"r":{"ha":428,"x_min":77,"x_max":421,"o":"m 178 5 q 170 -3 178 5 q 136 -12 161 -12 q 93 5 110 -12 q 77 51 77 23 l 77 658 q 92 701 77 684 q 132 718 108 718 q 172 701 157 718 q 188 658 188 684 l 188 590 l 191 590 q 252 681 205 645 q 351 718 298 718 q 406 701 388 718 q 421 661 421 686 q 403 620 421 634 q 347 605 385 605 q 233 558 271 605 q 195 438 195 511 l 195 51 q 178 5 195 23 z "},"s":{"ha":646,"x_min":58,"x_max":602,"o":"m 321 -12 q 159 27 228 -12 q 64 132 90 66 q 58 160 58 146 q 73 196 58 183 q 112 209 88 209 q 163 174 144 209 q 228 105 191 125 q 331 84 265 84 q 441 112 399 84 q 482 189 482 140 q 457 250 482 228 q 374 287 433 272 l 266 314 q 64 511 64 364 q 138 661 64 604 q 331 718 212 718 q 486 674 418 718 q 568 568 555 631 q 570 550 570 557 q 558 516 570 529 q 524 504 545 504 q 472 536 489 504 q 414 600 449 580 q 324 621 378 621 q 220 592 260 621 q 180 517 180 563 q 296 416 180 444 l 401 390 q 557 320 511 363 q 602 199 602 277 q 525 46 602 104 q 321 -12 447 -12 z "},"t":{"ha":418,"x_min":3,"x_max":379,"o":"m 115 163 l 115 608 l 56 608 q 17 621 31 608 q 3 657 3 633 q 17 693 3 680 q 56 705 31 705 l 115 705 l 115 826 q 131 871 115 854 q 174 889 148 889 q 216 871 199 889 q 233 826 233 854 l 233 705 l 323 705 q 362 693 349 705 q 376 657 376 680 q 362 621 376 633 q 323 608 349 608 l 233 608 l 233 189 q 251 121 233 143 q 313 96 269 99 l 323 96 q 379 50 379 92 q 360 8 379 21 q 293 -5 340 -5 l 286 -5 q 115 163 115 -5 z "},"u":{"ha":732,"x_min":73,"x_max":656,"o":"m 317 -12 q 138 57 203 -12 q 73 248 73 127 l 73 654 q 90 700 73 682 q 132 718 106 718 q 175 700 158 718 q 191 654 191 682 l 191 269 q 354 92 191 92 q 489 146 439 92 q 538 291 538 200 l 538 654 q 554 700 538 682 q 597 718 571 718 q 639 700 623 718 q 656 654 656 682 l 656 47 q 641 5 656 22 q 600 -12 625 -12 q 559 5 575 -12 q 544 47 544 22 l 544 115 l 541 115 q 317 -12 475 -12 z "},"v":{"ha":671,"x_min":27,"x_max":644,"o":"m 335 -12 q 288 2 306 -12 q 258 47 271 16 l 33 633 q 27 663 27 648 q 43 703 27 688 q 86 718 60 718 q 141 673 125 718 l 334 125 l 337 125 l 531 673 q 585 718 547 718 q 628 703 612 718 q 644 663 644 688 q 637 633 644 648 l 414 47 q 335 -12 391 -12 z "},"w":{"ha":994,"x_min":27,"x_max":966,"o":"m 275 -12 q 204 45 221 -12 l 32 636 q 27 667 27 652 q 43 704 27 690 q 85 718 58 718 q 119 706 106 718 q 138 669 132 695 l 277 132 l 280 132 l 428 665 q 497 718 442 718 q 564 665 550 718 l 713 132 l 716 132 l 855 669 q 874 706 862 695 q 909 718 887 718 q 951 704 935 718 q 966 667 966 690 q 962 636 966 652 l 789 45 q 718 -12 773 -12 q 644 45 661 -12 l 498 546 l 495 546 l 349 45 q 275 -12 333 -12 z "},"x":{"ha":652,"x_min":47,"x_max":604,"o":"m 103 -12 q 63 2 79 -12 q 47 39 47 17 q 59 73 47 56 l 262 353 l 63 631 q 51 667 51 648 q 67 703 51 688 q 109 718 84 718 q 153 692 136 718 l 328 441 l 330 441 l 500 690 q 546 718 519 718 q 588 703 571 718 q 604 667 604 689 q 593 633 604 648 l 391 357 l 590 75 q 602 39 602 56 q 586 3 602 18 q 546 -12 570 -12 q 501 11 516 -12 l 326 269 l 323 269 l 147 11 q 103 -12 131 -12 z "},"y":{"ha":675,"x_min":27,"x_max":648,"o":"m 146 -264 q 80 -249 103 -264 q 57 -205 57 -233 q 70 -174 57 -186 q 104 -162 82 -162 q 124 -162 113 -162 q 144 -163 135 -163 q 260 -50 223 -163 l 276 -1 l 33 632 q 27 663 27 649 q 44 703 27 688 q 86 718 60 718 q 142 674 127 718 l 337 118 l 339 118 l 534 674 q 555 708 543 698 q 590 718 568 718 q 631 702 615 718 q 648 663 648 687 q 642 632 648 649 l 381 -50 q 284 -217 336 -171 q 146 -264 233 -264 z "},"z":{"ha":650,"x_min":56,"x_max":595,"o":"m 124 0 q 78 16 96 0 q 61 58 61 32 q 81 111 61 85 l 452 606 l 452 608 l 109 608 q 70 621 83 608 q 56 657 56 633 q 70 693 56 680 q 109 705 83 705 l 517 705 q 569 689 550 705 q 587 645 587 673 q 559 582 587 619 l 198 99 l 198 97 l 543 97 q 582 84 568 97 q 595 49 595 72 q 582 13 595 25 q 543 0 568 0 l 124 0 z "},"{":{"ha":448,"x_min":9,"x_max":456,"o":"m 161 25 l 161 176 q 140 276 161 244 q 65 317 118 309 q 22 339 34 323 q 9 386 9 355 q 65 453 9 444 q 140 494 118 463 q 161 594 161 526 l 161 745 q 219 921 161 864 q 397 979 277 979 q 427 973 414 979 q 456 929 456 961 q 424 886 456 895 q 404 883 412 884 q 302 843 332 876 q 273 730 273 810 l 273 552 q 124 393 273 408 l 124 377 q 273 218 273 362 l 273 40 q 302 -73 273 -39 q 404 -113 332 -106 q 424 -116 412 -113 q 456 -159 456 -125 q 427 -203 456 -191 q 397 -208 414 -208 q 219 -151 277 -208 q 161 25 161 -94 z "},"|":{"ha":448,"x_min":174,"x_max":273,"o":"m 259 -218 q 252 -226 259 -218 q 224 -233 245 -233 q 188 -218 202 -233 q 174 -180 174 -203 l 174 938 q 188 976 174 961 q 224 991 202 991 q 259 976 245 991 q 273 938 273 961 l 273 -180 q 259 -218 273 -203 z "},"}":{"ha":448,"x_min":-8,"x_max":438,"o":"m 286 25 q 229 -151 286 -94 q 51 -208 171 -208 q 21 -203 34 -208 q -8 -159 -8 -191 q 24 -116 -8 -125 q 44 -113 35 -113 q 145 -73 115 -106 q 175 40 175 -39 l 175 218 q 323 377 175 362 l 323 393 q 175 552 175 408 l 175 730 q 145 843 175 810 q 44 883 115 876 q 24 886 35 884 q -8 929 -8 895 q 21 973 -8 961 q 51 979 34 979 q 229 921 171 979 q 286 745 286 864 l 286 594 q 308 494 286 526 q 382 453 330 463 q 438 386 438 444 q 426 339 438 355 q 382 317 414 323 q 308 276 330 309 q 286 176 286 244 l 286 25 z "},"~":{"ha":840,"x_min":84,"x_max":755,"o":"m 139 274 q 98 291 113 274 q 84 334 84 307 q 90 380 84 358 q 156 479 106 444 q 274 515 206 515 q 362 495 323 515 q 452 433 401 475 q 519 382 492 399 q 572 366 547 366 q 622 386 603 366 q 650 450 640 406 q 703 496 660 496 q 741 480 727 496 q 755 439 755 464 q 748 387 755 412 q 684 292 730 327 q 573 258 638 258 q 480 280 524 258 q 374 355 436 302 q 343 381 354 372 q 312 398 332 389 q 275 407 293 407 q 220 386 240 407 q 190 321 200 365 q 139 274 179 274 z "}," ":{"ha":285,"x_min":0,"x_max":0,"o":""},"¡":{"ha":370,"x_min":108,"x_max":262,"o":"m 185 755 q 240 732 218 755 q 262 677 262 710 q 240 622 262 644 q 185 600 218 600 q 130 622 152 600 q 108 677 108 644 q 130 732 108 710 q 185 755 152 755 m 146 418 q 154 425 146 418 q 185 433 161 433 q 224 418 210 433 q 239 376 238 403 l 245 -188 q 228 -232 245 -215 q 185 -249 211 -249 q 142 -232 159 -249 q 125 -188 125 -215 l 132 376 q 146 418 132 403 z "},"¢":{"ha":840,"x_min":100,"x_max":741,"o":"m 466 1 q 460 -5 466 1 q 437 -10 454 -10 q 408 1 419 -10 q 396 31 396 12 l 396 121 q 180 233 260 136 q 100 490 100 331 q 180 745 100 646 q 396 859 260 844 l 396 948 q 408 978 396 966 q 437 989 419 989 q 466 978 454 989 q 477 948 477 966 l 477 860 q 642 804 574 852 q 733 688 710 756 q 739 655 739 669 q 725 616 739 631 q 686 601 710 601 q 631 640 647 601 q 477 755 587 741 l 477 224 q 632 340 587 238 q 685 378 650 378 q 725 363 709 378 q 741 324 741 349 q 734 291 741 311 q 643 175 711 222 q 477 119 574 127 l 477 31 q 466 1 477 12 m 220 490 q 267 309 220 377 q 396 226 314 241 l 396 753 q 267 669 314 738 q 220 490 220 601 z "},"£":{"ha":840,"x_min":56,"x_max":797,"o":"m 114 7 q 75 22 90 7 q 60 61 60 37 q 72 99 60 85 q 110 123 83 114 q 213 198 170 142 q 255 339 255 254 q 238 446 255 376 l 106 446 q 71 458 85 446 q 56 492 56 471 q 71 525 56 512 q 106 538 85 538 l 216 538 q 198 666 198 612 q 290 895 198 810 q 536 980 382 980 q 699 958 642 980 q 747 900 747 939 q 735 866 747 878 q 700 853 723 853 q 641 863 690 853 q 547 872 593 872 q 384 818 444 872 q 323 675 323 764 q 341 538 323 611 l 630 538 q 665 525 651 538 q 680 492 680 512 q 665 458 680 471 q 630 446 651 446 l 364 446 q 375 345 375 391 q 342 198 375 259 q 254 114 309 136 l 254 111 l 741 111 q 781 97 766 111 q 797 59 797 83 q 781 21 797 35 q 741 7 766 7 l 114 7 z "},"¤":{"ha":840,"x_min":100,"x_max":740,"o":"m 740 171 q 725 138 740 153 q 691 124 710 124 q 646 145 667 124 l 567 224 q 421 180 501 180 q 273 225 340 180 l 194 145 q 149 124 173 124 q 115 138 130 124 q 100 171 100 153 q 121 216 100 195 l 201 297 q 156 445 156 364 q 201 592 156 526 l 121 673 q 100 718 100 694 q 115 750 100 736 q 149 764 130 764 q 194 743 173 764 l 273 664 q 421 710 340 710 q 568 665 500 710 l 646 743 q 691 764 667 764 q 725 750 710 764 q 740 718 740 736 q 719 673 740 694 l 640 593 q 685 445 685 526 q 639 296 685 363 l 719 216 q 740 171 740 195 m 295 318 q 321 292 295 318 q 421 266 347 266 q 547 318 495 266 q 599 445 599 371 q 547 571 599 519 q 421 624 495 624 q 295 571 347 624 q 242 445 242 519 q 295 318 242 371 z "},"¥":{"ha":840,"x_min":54,"x_max":797,"o":"m 163 203 q 135 214 146 203 q 124 243 124 226 q 135 273 124 261 q 163 284 146 284 l 366 284 l 366 393 l 163 393 q 135 404 146 393 q 124 433 124 416 q 135 463 124 451 q 163 474 146 474 l 326 474 l 66 898 q 54 937 54 918 q 71 976 54 960 q 113 991 87 991 q 166 960 149 991 l 423 518 l 427 518 l 684 960 q 737 991 702 991 q 780 976 763 991 q 797 937 797 960 q 785 898 797 918 l 525 474 l 687 474 q 715 463 705 474 q 726 433 726 451 q 715 404 726 416 q 687 393 705 393 l 485 393 l 485 284 l 687 284 q 715 273 705 284 q 726 243 726 261 q 715 214 726 226 q 687 203 705 203 l 485 203 l 485 52 q 468 8 485 25 q 425 -9 452 -9 q 382 8 399 -9 q 366 52 366 25 l 366 203 l 163 203 z "},"¦":{"ha":448,"x_min":174,"x_max":273,"o":"m 259 507 q 252 500 259 507 q 224 492 245 492 q 188 507 202 492 q 174 545 174 522 l 174 938 q 188 976 174 961 q 224 991 202 991 q 259 976 245 991 q 273 938 273 961 l 273 545 q 259 507 273 522 m 259 -205 q 252 -212 259 -205 q 224 -220 245 -220 q 188 -205 202 -220 q 174 -167 174 -190 l 174 225 q 188 263 174 248 q 224 278 202 278 q 259 263 245 278 q 273 225 273 248 l 273 -167 q 259 -205 273 -190 z "},"§":{"ha":787,"x_min":113,"x_max":673,"o":"m 397 -174 q 230 -135 300 -174 q 138 -28 159 -96 q 134 3 134 -16 q 148 45 134 30 q 188 60 163 60 q 241 19 226 60 q 299 -51 258 -27 q 403 -75 340 -75 q 515 -45 472 -75 q 558 32 558 -16 q 526 96 558 70 q 424 140 494 121 l 328 166 q 165 243 217 196 q 113 361 113 290 q 154 474 113 427 q 271 542 195 522 l 271 547 q 116 735 116 604 q 191 889 116 830 q 388 947 267 947 q 557 907 489 947 q 643 804 626 866 q 648 770 648 786 q 634 728 648 743 q 595 713 621 713 q 541 754 551 713 q 489 824 531 800 q 385 848 446 848 q 275 819 317 848 q 233 742 233 789 q 264 677 233 703 q 366 633 296 652 l 461 607 q 622 532 571 578 q 673 417 673 486 q 624 292 673 347 q 494 222 575 237 l 494 217 q 673 40 673 179 q 596 -114 673 -54 q 397 -174 518 -174 m 349 271 l 406 259 q 511 296 468 259 q 553 389 553 334 q 524 460 553 431 q 438 502 494 490 l 382 514 q 277 476 320 514 q 233 385 233 438 q 263 313 233 342 q 349 271 294 283 z "},"¨":{"ha":681,"x_min":140,"x_max":541,"o":"m 267 904 q 256 893 267 904 q 214 882 245 882 q 162 904 184 882 q 140 957 140 926 q 162 1010 140 988 q 214 1031 184 1031 q 267 1010 245 1031 q 289 957 289 988 q 267 904 289 926 m 519 904 q 508 893 519 904 q 467 882 497 882 q 414 904 436 882 q 392 957 392 926 q 414 1010 392 988 q 467 1031 436 1031 q 519 1010 497 1031 q 541 957 541 988 q 519 904 541 926 z "},"©":{"ha":1157,"x_min":41,"x_max":1116,"o":"m 578 -114 q 306 -44 429 -114 q 112 150 183 26 q 41 425 41 274 q 112 700 41 576 q 306 893 183 823 q 578 963 429 963 q 851 893 728 963 q 1045 700 975 823 q 1116 425 1116 576 q 1045 150 1116 274 q 851 -44 975 26 q 578 -114 728 -114 m 578 -19 q 803 39 701 -19 q 962 198 904 96 q 1021 425 1021 300 q 962 652 1021 550 q 803 811 904 753 q 578 868 701 868 q 355 811 456 868 q 195 652 254 753 q 136 425 136 550 q 195 198 136 300 q 355 39 254 96 q 578 -19 456 -19 m 591 138 q 395 216 468 138 q 322 426 322 293 q 395 633 322 556 q 590 711 468 711 q 727 674 667 711 q 810 592 787 637 q 818 562 818 576 q 806 532 818 544 q 775 521 795 521 q 728 554 748 521 q 590 627 683 627 q 465 573 511 627 q 418 426 418 519 q 465 277 418 332 q 590 222 512 222 q 730 295 686 222 q 752 323 743 316 q 776 331 762 331 q 807 318 795 331 q 820 287 820 305 q 812 256 820 271 q 731 175 794 212 q 591 138 669 138 z "},"ª":{"ha":414,"x_min":35,"x_max":366,"o":"m 208 988 q 323 955 281 988 q 366 865 366 921 l 366 642 q 353 612 366 623 q 321 601 340 601 q 289 612 301 601 q 277 642 277 623 l 277 667 l 275 667 q 228 619 260 637 q 160 602 196 602 q 71 633 106 602 q 35 714 35 664 q 72 793 35 764 q 178 826 109 822 l 275 832 l 275 858 q 257 902 275 886 q 205 918 239 918 q 132 874 159 918 q 95 850 117 850 q 65 861 75 850 q 56 886 56 871 q 64 918 56 901 q 118 968 80 948 q 208 988 155 988 m 189 670 q 250 691 225 670 q 275 745 275 713 l 275 774 l 191 768 q 144 753 161 766 q 127 718 127 740 q 144 683 127 696 q 189 670 161 670 z "},"«":{"ha":883,"x_min":109,"x_max":751,"o":"m 372 74 q 327 101 350 74 l 132 332 q 109 382 109 359 q 115 411 109 399 q 136 441 121 422 l 327 665 q 372 692 350 692 q 411 677 395 692 q 427 642 427 662 q 410 601 427 620 l 229 388 l 229 378 l 410 165 q 427 125 427 146 q 411 89 427 104 q 372 74 395 74 m 696 74 q 651 101 674 74 l 456 332 q 433 382 433 359 q 439 411 433 399 q 460 441 445 422 l 651 665 q 696 692 674 692 q 735 677 719 692 q 751 642 751 662 q 734 601 751 620 l 553 388 l 553 378 l 734 165 q 751 125 751 146 q 735 89 751 104 q 696 74 719 74 z "},"¬":{"ha":840,"x_min":99,"x_max":730,"o":"m 714 51 q 707 43 714 51 q 674 35 699 35 q 634 51 649 35 q 620 93 620 67 l 620 332 l 157 332 q 115 346 132 332 q 99 385 99 360 q 115 426 99 410 q 157 441 132 441 l 643 441 q 706 417 682 441 q 730 353 730 393 l 730 93 q 714 51 730 68 z "},"®":{"ha":787,"x_min":68,"x_max":719,"o":"m 393 401 q 229 444 304 401 q 111 559 155 486 q 68 720 68 633 q 162 946 68 854 q 393 1039 257 1039 q 624 947 530 1039 q 719 720 719 854 q 624 494 719 587 q 393 401 530 401 m 393 469 q 571 542 498 469 q 644 720 644 615 q 571 898 644 825 q 393 971 498 971 q 215 898 288 971 q 142 720 142 825 q 216 543 142 616 q 393 469 289 469 m 271 844 q 279 869 271 859 q 302 879 288 879 l 420 879 q 497 852 467 879 q 528 786 528 826 q 509 725 528 749 q 456 696 490 701 l 511 621 q 519 598 519 610 q 511 575 519 584 q 488 567 503 567 q 457 585 469 567 l 389 687 l 335 687 l 335 600 q 326 576 335 585 q 302 567 317 567 q 279 576 288 567 q 271 600 271 585 l 271 844 m 335 825 l 335 736 l 408 736 q 445 749 431 736 q 458 783 458 761 q 410 825 458 825 l 335 825 z "},"¯":{"ha":678,"x_min":134,"x_max":544,"o":"m 176 917 q 146 928 157 917 q 134 956 134 939 q 146 984 134 973 q 176 996 158 996 l 502 996 q 532 984 520 996 q 544 956 544 973 q 532 928 544 939 q 502 917 521 917 l 176 917 z "},"°":{"ha":556,"x_min":68,"x_max":488,"o":"m 278 537 q 129 598 189 537 q 68 747 68 659 q 129 897 68 836 q 278 958 189 958 q 427 897 366 958 q 488 747 488 836 q 427 598 488 659 q 278 537 366 537 m 278 635 q 355 668 324 635 q 387 747 387 700 q 355 827 387 795 q 278 859 324 859 q 202 827 234 859 q 170 747 170 795 q 202 668 170 701 q 278 635 234 635 z "},"±":{"ha":840,"x_min":65,"x_max":775,"o":"m 457 230 q 450 223 457 230 q 420 216 444 216 q 384 230 397 216 q 370 269 370 245 l 370 426 l 119 426 q 80 439 96 426 q 65 476 65 453 q 80 513 65 499 q 119 527 96 527 l 370 527 l 370 683 q 384 722 370 707 q 420 737 397 737 q 457 722 444 737 q 471 683 471 707 l 471 527 l 721 527 q 760 513 745 527 q 775 476 775 499 q 760 439 775 453 q 721 426 745 426 l 471 426 l 471 269 q 457 230 471 245 m 119 45 q 80 59 96 45 q 65 95 65 73 q 80 132 65 117 q 119 146 96 146 l 722 146 q 760 132 745 146 q 775 95 775 117 q 760 59 775 73 q 722 45 745 45 l 119 45 z "},"²":{"ha":433,"x_min":49,"x_max":401,"o":"m 94 606 q 60 616 72 606 q 49 646 49 627 q 68 689 49 670 l 217 831 q 276 898 262 875 q 291 947 291 921 q 270 996 291 977 q 217 1016 250 1016 q 163 1000 185 1016 q 134 954 141 984 q 120 925 130 933 q 92 916 110 916 q 50 960 50 916 q 97 1053 50 1015 q 217 1090 144 1090 q 338 1052 292 1090 q 384 953 384 1013 q 361 878 384 911 q 275 781 339 844 l 174 684 l 174 682 l 366 682 q 391 671 382 682 q 401 644 401 660 q 391 616 401 627 q 366 606 382 606 l 94 606 z "},"³":{"ha":451,"x_min":53,"x_max":406,"o":"m 224 595 q 126 616 168 595 q 66 667 85 636 q 53 710 53 687 q 64 740 53 728 q 94 751 75 751 q 136 720 120 751 q 224 672 162 672 q 286 691 262 672 q 310 742 309 711 q 286 797 310 777 q 216 816 261 816 l 182 816 q 147 850 147 816 q 156 875 147 865 q 182 884 165 884 l 215 884 q 276 903 253 884 q 298 951 298 922 q 279 999 298 982 q 222 1017 259 1017 q 142 970 168 1017 q 124 946 133 953 q 99 939 115 939 q 71 950 81 939 q 61 981 61 961 q 74 1022 61 1002 q 133 1071 92 1052 q 223 1090 173 1090 q 343 1056 298 1090 q 389 965 389 1021 q 361 892 389 921 q 290 854 334 863 l 290 852 q 375 817 343 847 q 406 739 406 787 q 356 635 406 674 q 224 595 305 595 z "},"´":{"ha":682,"x_min":228,"x_max":440,"o":"m 269 856 q 239 866 251 856 q 228 892 228 877 q 238 923 228 908 l 339 1067 q 364 1095 353 1088 q 391 1102 375 1102 q 427 1089 413 1102 q 440 1057 440 1077 q 427 1021 440 1037 l 310 878 q 269 856 292 856 z "},"µ":{"ha":798,"x_min":77,"x_max":773,"o":"m 178 -231 q 170 -240 178 -231 q 136 -249 161 -249 q 93 -231 110 -249 q 77 -186 77 -214 l 77 654 q 93 700 77 682 q 136 718 110 718 q 178 700 161 718 q 195 654 195 682 l 195 272 q 236 139 195 185 q 355 94 277 94 q 492 146 442 94 q 541 291 541 199 l 541 654 q 558 700 541 682 q 600 718 574 718 q 642 700 626 718 q 659 654 659 682 l 659 187 q 672 117 659 138 q 718 96 685 97 q 758 84 745 94 q 773 50 773 73 q 759 13 773 27 q 692 -6 740 -6 q 589 27 627 -6 q 545 118 551 60 l 544 118 q 461 21 510 55 q 352 -12 412 -12 q 258 11 300 -12 q 196 75 216 34 l 195 75 l 195 -186 q 178 -231 195 -214 z "},"¶":{"ha":787,"x_min":95,"x_max":692,"o":"m 641 -159 q 603 -144 616 -159 q 589 -104 589 -130 l 589 935 q 603 974 589 959 q 641 989 616 989 q 678 974 665 989 q 692 935 692 959 l 692 -104 q 678 -144 692 -130 q 641 -159 665 -159 m 422 979 q 472 960 454 979 q 491 909 491 941 l 491 -104 q 477 -144 491 -130 q 440 -159 464 -159 q 402 -144 416 -159 q 389 -104 389 -130 l 389 461 l 377 461 q 176 533 257 461 q 95 715 95 606 q 176 904 95 829 q 378 979 258 979 l 422 979 z "},"·":{"ha":353,"x_min":98,"x_max":255,"o":"m 232 354 q 221 343 232 354 q 176 332 210 332 q 120 354 143 332 q 98 410 98 377 q 120 466 98 444 q 176 489 143 489 q 232 466 210 489 q 255 410 255 444 q 232 354 255 377 z "},"¸":{"ha":682,"x_min":208,"x_max":469,"o":"m 311 -317 q 254 -313 276 -317 q 208 -274 208 -305 q 217 -252 208 -260 q 245 -243 227 -243 q 267 -245 252 -243 q 294 -247 283 -247 q 380 -198 380 -247 q 294 -155 380 -155 l 275 -155 q 245 -145 256 -155 q 233 -120 233 -136 q 240 -90 233 -108 l 278 5 l 362 5 l 362 0 l 324 -88 q 430 -118 391 -90 q 469 -197 469 -146 q 424 -285 469 -253 q 311 -317 379 -317 z "},"¹":{"ha":351,"x_min":32,"x_max":262,"o":"m 215 597 q 181 610 195 597 q 168 644 168 623 l 168 992 l 166 992 l 97 945 q 66 933 79 933 q 41 942 51 933 q 32 966 32 951 q 59 1004 32 986 l 144 1064 q 189 1087 173 1084 q 208 1089 198 1089 q 248 1075 233 1089 q 262 1035 262 1060 l 262 644 q 249 610 262 623 q 215 597 236 597 z "},"º":{"ha":433,"x_min":35,"x_max":399,"o":"m 350 652 q 325 626 350 652 q 217 600 300 600 q 84 652 134 600 q 35 794 35 704 q 85 936 35 884 q 217 988 134 988 q 349 936 300 988 q 399 794 399 884 q 350 652 399 704 m 217 672 q 281 704 258 672 q 305 794 305 736 q 281 884 305 852 q 217 916 258 916 q 152 884 176 916 q 128 794 128 852 q 152 704 128 736 q 217 672 176 672 z "},"»":{"ha":883,"x_min":132,"x_max":774,"o":"m 774 382 q 751 332 774 359 l 556 101 q 511 74 533 74 q 472 89 488 74 q 456 125 456 104 q 473 165 456 146 l 654 378 l 654 388 l 473 601 q 456 642 456 620 q 472 677 456 662 q 511 692 488 692 q 556 665 533 692 l 747 441 q 768 411 762 422 q 774 382 774 399 m 450 382 q 427 332 450 359 l 232 101 q 187 74 209 74 q 148 89 164 74 q 132 125 132 104 q 149 165 132 146 l 330 378 l 330 388 l 149 601 q 132 642 132 620 q 148 677 132 662 q 187 692 164 692 q 232 665 209 692 l 422 441 q 444 411 438 422 q 450 382 450 399 z "},"¼":{"ha":928,"x_min":32,"x_max":903,"o":"m 123 -12 q 90 -1 103 -12 q 77 28 77 10 q 88 61 77 46 l 406 516 l 715 962 q 737 985 727 979 q 762 991 747 991 q 793 979 780 991 q 806 951 806 968 q 795 919 806 932 l 487 475 l 168 16 q 148 -6 157 0 q 123 -12 138 -12 m 215 495 q 181 508 195 495 q 168 542 168 521 l 168 890 l 166 890 l 97 844 q 66 831 79 831 q 41 841 51 831 q 32 864 32 850 q 59 903 32 884 l 144 962 q 189 985 173 982 q 208 987 198 987 q 248 973 233 987 q 262 933 262 958 l 262 542 q 249 508 262 521 q 215 495 236 495 m 784 -10 q 752 3 765 -10 q 740 37 740 17 l 740 88 l 549 88 q 513 102 528 88 q 498 136 498 115 q 517 193 498 157 q 666 431 557 270 q 708 473 686 462 q 760 485 730 485 q 811 466 791 485 q 830 416 830 446 l 830 165 l 865 165 q 892 154 881 165 q 903 127 903 143 q 892 99 903 110 q 865 88 881 88 l 830 88 l 830 36 q 817 3 830 16 q 784 -10 804 -10 m 587 165 l 587 162 l 741 162 l 741 406 l 740 406 q 587 165 637 258 z "},"½":{"ha":949,"x_min":32,"x_max":916,"o":"m 123 -12 q 90 -1 103 -12 q 77 28 77 10 q 88 61 77 46 l 406 516 l 715 962 q 737 985 727 979 q 762 991 747 991 q 793 979 780 991 q 806 951 806 968 q 795 919 806 932 l 487 475 l 168 16 q 148 -6 157 0 q 123 -12 138 -12 m 215 495 q 181 508 195 495 q 168 542 168 521 l 168 890 l 166 890 l 97 844 q 66 831 79 831 q 41 841 51 831 q 32 864 32 850 q 59 903 32 884 l 144 962 q 189 985 173 982 q 208 987 198 987 q 248 973 233 987 q 262 933 262 958 l 262 542 q 249 508 262 521 q 215 495 236 495 m 610 0 q 576 11 587 0 q 564 41 564 22 q 584 83 564 64 l 732 226 q 792 292 777 269 q 806 341 806 315 q 786 391 806 371 q 732 410 765 410 q 679 394 701 410 q 650 349 656 378 q 635 319 645 328 q 607 311 625 311 q 566 355 566 311 q 613 447 566 409 q 732 485 660 485 q 853 446 807 485 q 899 347 899 407 q 877 272 899 306 q 790 176 854 238 l 690 78 l 690 76 l 882 76 q 907 65 897 76 q 916 38 916 54 q 907 11 916 22 q 882 0 897 0 l 610 0 z "},"¾":{"ha":1011,"x_min":53,"x_max":987,"o":"m 207 -12 q 174 -1 186 -12 q 161 28 161 10 q 172 61 161 46 l 490 516 l 799 962 q 821 985 810 979 q 846 991 831 991 q 876 979 863 991 q 889 951 889 968 q 879 919 889 932 l 570 475 l 252 16 q 231 -6 241 0 q 207 -12 221 -12 m 224 494 q 126 514 168 494 q 66 565 85 534 q 53 608 53 585 q 64 638 53 627 q 94 650 75 650 q 136 618 120 650 q 224 570 162 570 q 286 590 262 570 q 310 640 309 609 q 286 695 310 675 q 216 714 261 714 l 182 714 q 147 748 147 714 q 156 773 147 764 q 182 783 165 783 l 215 783 q 276 801 253 783 q 298 850 298 820 q 279 898 298 880 q 222 915 259 915 q 142 869 168 915 q 124 844 133 851 q 99 838 115 838 q 71 848 81 838 q 61 879 61 859 q 74 920 61 900 q 133 969 92 950 q 223 989 173 989 q 343 954 298 989 q 389 863 389 920 q 361 790 389 819 q 290 752 334 761 l 290 750 q 375 715 343 745 q 406 637 406 685 q 356 533 406 572 q 224 494 305 494 m 867 -10 q 836 3 848 -10 q 823 37 823 17 l 823 88 l 633 88 q 596 102 611 88 q 582 136 582 115 q 600 193 582 157 q 749 431 640 270 q 791 473 770 462 q 844 485 813 485 q 894 466 875 485 q 913 416 913 446 l 913 165 l 948 165 q 976 154 964 165 q 987 127 987 143 q 976 99 987 110 q 948 88 964 88 l 913 88 l 913 36 q 901 3 913 16 q 867 -10 888 -10 m 670 165 l 670 162 l 825 162 l 825 406 l 823 406 q 670 165 720 258 z "},"¿":{"ha":680,"x_min":58,"x_max":633,"o":"m 361 600 q 306 623 328 600 q 283 677 283 645 q 306 733 283 711 q 361 755 328 755 q 416 733 394 755 q 438 677 438 711 q 416 623 438 645 q 361 600 394 600 m 346 -242 q 139 -173 220 -242 q 58 5 58 -103 q 200 237 58 152 q 287 309 264 275 q 311 397 311 343 q 369 469 311 469 q 414 450 399 469 q 429 399 429 431 l 429 380 q 397 264 429 313 q 294 173 364 215 q 210 100 235 137 q 184 12 184 63 q 230 -96 184 -55 q 351 -136 276 -136 q 462 -104 418 -136 q 523 -9 506 -71 q 544 33 532 21 q 580 45 557 45 q 620 30 606 45 q 633 -11 633 16 q 616 -90 633 -52 q 515 -202 586 -161 q 346 -242 444 -242 z "},"À":{"ha":876,"x_min":37,"x_max":839,"o":"m 417 1036 q 397 1041 405 1036 q 376 1059 389 1046 l 256 1192 q 238 1232 238 1213 q 252 1265 238 1252 q 287 1278 265 1278 q 337 1248 315 1278 l 444 1107 q 458 1074 458 1088 q 446 1047 458 1058 q 417 1036 435 1036 m 98 -9 q 55 6 72 -9 q 37 44 37 21 q 45 78 37 58 l 359 929 q 439 988 381 988 q 516 930 494 988 l 831 78 q 839 44 839 58 q 822 6 839 21 q 778 -9 804 -9 q 718 37 734 -9 l 631 280 l 244 280 l 158 37 q 98 -9 142 -9 m 279 384 l 597 384 l 440 830 l 436 830 l 279 384 z "},"Á":{"ha":876,"x_min":37,"x_max":839,"o":"m 459 1036 q 430 1047 441 1036 q 418 1074 418 1058 q 432 1107 418 1088 l 539 1248 q 589 1278 562 1278 q 625 1265 611 1278 q 638 1232 638 1252 q 620 1192 638 1213 l 500 1059 q 479 1041 488 1046 q 459 1036 471 1036 m 98 -9 q 55 6 72 -9 q 37 44 37 21 q 45 78 37 58 l 359 929 q 439 988 381 988 q 516 930 494 988 l 831 78 q 839 44 839 58 q 822 6 839 21 q 778 -9 804 -9 q 718 37 734 -9 l 631 280 l 244 280 l 158 37 q 98 -9 142 -9 m 279 384 l 597 384 l 440 830 l 436 830 l 279 384 z "},"Â":{"ha":876,"x_min":37,"x_max":839,"o":"m 280 1030 q 252 1042 263 1030 q 240 1069 240 1053 q 254 1101 240 1086 l 379 1232 q 438 1261 408 1261 q 497 1232 470 1261 l 623 1100 q 637 1068 637 1085 q 625 1041 637 1053 q 596 1030 613 1030 q 575 1035 584 1030 q 553 1055 567 1040 l 440 1175 l 436 1175 l 323 1055 q 301 1035 309 1040 q 280 1030 292 1030 m 98 -9 q 55 6 72 -9 q 37 44 37 21 q 45 78 37 58 l 359 929 q 439 988 381 988 q 516 930 494 988 l 831 78 q 839 44 839 58 q 822 6 839 21 q 778 -9 804 -9 q 718 37 734 -9 l 631 280 l 244 280 l 158 37 q 98 -9 142 -9 m 279 384 l 597 384 l 440 830 l 436 830 l 279 384 z "},"Ã":{"ha":876,"x_min":37,"x_max":839,"o":"m 262 1061 q 233 1073 243 1061 q 222 1105 222 1084 q 259 1212 222 1172 q 353 1251 296 1251 q 401 1241 378 1251 q 440 1215 425 1230 q 471 1184 456 1200 q 499 1159 485 1169 q 528 1148 514 1148 q 574 1216 564 1148 q 586 1251 577 1240 q 614 1261 595 1261 q 642 1250 631 1261 q 653 1219 653 1238 q 617 1113 653 1154 q 527 1072 581 1072 q 469 1088 496 1072 q 425 1123 441 1104 q 389 1158 408 1142 q 352 1175 369 1175 q 317 1158 329 1175 q 302 1103 306 1141 q 262 1061 298 1061 m 98 -9 q 55 6 72 -9 q 37 44 37 21 q 45 78 37 58 l 359 929 q 439 988 381 988 q 516 930 494 988 l 831 78 q 839 44 839 58 q 822 6 839 21 q 778 -9 804 -9 q 718 37 734 -9 l 631 280 l 244 280 l 158 37 q 98 -9 142 -9 m 279 384 l 597 384 l 440 830 l 436 830 l 279 384 z "},"Ä":{"ha":876,"x_min":37,"x_max":839,"o":"m 365 1109 q 353 1099 365 1109 q 312 1088 342 1088 q 259 1109 281 1088 q 237 1162 237 1131 q 259 1215 237 1194 q 312 1237 281 1237 q 365 1215 342 1237 q 387 1162 387 1194 q 365 1109 387 1131 m 617 1109 q 606 1099 617 1109 q 564 1088 595 1088 q 512 1109 534 1088 q 490 1162 490 1131 q 512 1215 490 1194 q 564 1237 534 1237 q 617 1215 595 1237 q 639 1162 639 1194 q 617 1109 639 1131 m 98 -9 q 55 6 72 -9 q 37 44 37 21 q 45 78 37 58 l 359 929 q 439 988 381 988 q 516 930 494 988 l 831 78 q 839 44 839 58 q 822 6 839 21 q 778 -9 804 -9 q 718 37 734 -9 l 631 280 l 244 280 l 158 37 q 98 -9 142 -9 m 279 384 l 597 384 l 440 830 l 436 830 l 279 384 z "},"Å":{"ha":876,"x_min":37,"x_max":839,"o":"m 530 1066 q 511 1047 530 1066 q 438 1028 492 1028 q 347 1066 385 1028 q 309 1158 309 1104 q 347 1249 309 1211 q 438 1287 385 1287 q 530 1249 492 1287 q 568 1158 568 1211 q 530 1066 568 1104 m 389 1108 q 399 1098 389 1108 q 438 1088 409 1088 q 488 1108 467 1088 q 508 1158 508 1128 q 488 1207 508 1187 q 438 1227 467 1227 q 389 1207 409 1227 q 368 1158 368 1187 q 389 1108 368 1128 m 98 -9 q 55 6 72 -9 q 37 44 37 21 q 45 78 37 58 l 359 929 q 439 988 381 988 q 516 930 494 988 l 831 78 q 839 44 839 58 q 822 6 839 21 q 778 -9 804 -9 q 718 37 734 -9 l 631 280 l 244 280 l 158 37 q 98 -9 142 -9 m 279 384 l 597 384 l 440 830 l 436 830 l 279 384 z "},"Æ":{"ha":1338,"x_min":31,"x_max":1255,"o":"m 87 -12 q 46 2 62 -12 q 31 37 31 16 q 41 77 31 54 l 443 922 q 480 966 458 954 q 543 979 501 979 l 1197 979 q 1239 963 1222 979 q 1255 924 1255 948 q 1239 884 1255 899 q 1197 869 1222 869 l 774 869 l 774 548 l 1173 548 q 1214 533 1198 548 q 1230 494 1230 518 q 1214 454 1230 469 q 1173 439 1198 439 l 774 439 l 774 110 l 1197 110 q 1239 95 1222 110 q 1255 55 1255 79 q 1239 15 1255 31 q 1197 0 1222 0 l 713 0 q 669 17 686 0 q 652 63 652 34 l 652 311 l 277 311 l 146 35 q 120 -1 134 9 q 87 -12 107 -12 m 326 415 l 652 415 l 652 876 l 545 876 l 326 415 z "},"Ç":{"ha":953,"x_min":57,"x_max":889,"o":"m 500 -317 q 444 -313 466 -317 q 397 -274 397 -305 q 407 -252 397 -260 q 435 -243 417 -243 q 457 -245 441 -243 q 484 -247 473 -247 q 570 -198 570 -247 q 484 -155 570 -155 l 465 -155 q 435 -145 446 -155 q 423 -120 423 -136 q 430 -90 423 -108 l 460 -15 q 165 134 274 -1 q 57 490 57 269 q 177 858 57 720 q 498 995 297 995 q 733 931 631 995 q 879 758 836 867 q 889 709 889 732 q 874 669 889 684 q 834 654 859 654 q 770 705 789 654 q 663 836 736 789 q 498 882 590 882 q 269 775 355 882 q 182 490 182 668 q 268 203 182 309 q 498 96 353 96 q 667 138 596 96 q 772 260 739 179 q 829 302 791 302 q 869 287 854 302 q 885 248 885 271 q 869 186 885 219 q 743 46 825 98 q 546 -14 661 -5 l 514 -88 q 620 -118 581 -90 q 659 -197 659 -146 q 614 -285 659 -253 q 500 -317 569 -317 z "},"È":{"ha":767,"x_min":95,"x_max":711,"o":"m 377 1036 q 357 1041 365 1036 q 336 1059 349 1046 l 216 1192 q 198 1232 198 1213 q 212 1265 198 1252 q 247 1278 225 1278 q 297 1248 275 1278 l 404 1107 q 418 1074 418 1088 q 406 1047 418 1058 q 377 1036 395 1036 m 156 0 q 112 17 128 0 q 95 63 95 34 l 95 916 q 112 962 95 945 q 156 979 128 979 l 653 979 q 695 963 679 979 q 711 924 711 948 q 695 884 711 899 q 653 869 679 869 l 217 869 l 217 555 l 629 555 q 670 540 654 555 q 686 500 686 525 q 670 461 686 477 q 629 446 654 446 l 217 446 l 217 110 l 653 110 q 695 95 679 110 q 711 55 711 79 q 695 15 711 31 q 653 0 679 0 l 156 0 z "},"É":{"ha":767,"x_min":95,"x_max":711,"o":"m 419 1036 q 390 1047 401 1036 q 378 1074 378 1058 q 392 1107 378 1088 l 499 1248 q 549 1278 522 1278 q 585 1265 571 1278 q 598 1232 598 1252 q 580 1192 598 1213 l 460 1059 q 439 1041 448 1046 q 419 1036 431 1036 m 156 0 q 112 17 128 0 q 95 63 95 34 l 95 916 q 112 962 95 945 q 156 979 128 979 l 653 979 q 695 963 679 979 q 711 924 711 948 q 695 884 711 899 q 653 869 679 869 l 217 869 l 217 555 l 629 555 q 670 540 654 555 q 686 500 686 525 q 670 461 686 477 q 629 446 654 446 l 217 446 l 217 110 l 653 110 q 695 95 679 110 q 711 55 711 79 q 695 15 711 31 q 653 0 679 0 l 156 0 z "},"Ê":{"ha":767,"x_min":95,"x_max":711,"o":"m 240 1030 q 212 1042 223 1030 q 200 1069 200 1053 q 214 1101 200 1086 l 339 1232 q 398 1261 368 1261 q 457 1232 430 1261 l 583 1100 q 597 1068 597 1085 q 585 1041 597 1053 q 556 1030 573 1030 q 535 1035 544 1030 q 513 1055 527 1040 l 400 1175 l 396 1175 l 283 1055 q 261 1035 269 1040 q 240 1030 252 1030 m 156 0 q 112 17 128 0 q 95 63 95 34 l 95 916 q 112 962 95 945 q 156 979 128 979 l 653 979 q 695 963 679 979 q 711 924 711 948 q 695 884 711 899 q 653 869 679 869 l 217 869 l 217 555 l 629 555 q 670 540 654 555 q 686 500 686 525 q 670 461 686 477 q 629 446 654 446 l 217 446 l 217 110 l 653 110 q 695 95 679 110 q 711 55 711 79 q 695 15 711 31 q 653 0 679 0 l 156 0 z "},"Ë":{"ha":767,"x_min":95,"x_max":711,"o":"m 325 1109 q 313 1099 325 1109 q 272 1088 302 1088 q 219 1109 241 1088 q 197 1162 197 1131 q 219 1215 197 1194 q 272 1237 241 1237 q 325 1215 302 1237 q 347 1162 347 1194 q 325 1109 347 1131 m 577 1109 q 566 1099 577 1109 q 524 1088 555 1088 q 472 1109 494 1088 q 450 1162 450 1131 q 472 1215 450 1194 q 524 1237 494 1237 q 577 1215 555 1237 q 599 1162 599 1194 q 577 1109 599 1131 m 156 0 q 112 17 128 0 q 95 63 95 34 l 95 916 q 112 962 95 945 q 156 979 128 979 l 653 979 q 695 963 679 979 q 711 924 711 948 q 695 884 711 899 q 653 869 679 869 l 217 869 l 217 555 l 629 555 q 670 540 654 555 q 686 500 686 525 q 670 461 686 477 q 629 446 654 446 l 217 446 l 217 110 l 653 110 q 695 95 679 110 q 711 55 711 79 q 695 15 711 31 q 653 0 679 0 l 156 0 z "},"Ì":{"ha":312,"x_min":-44,"x_max":217,"o":"m 135 1036 q 115 1041 123 1036 q 94 1059 106 1046 l -26 1192 q -44 1232 -44 1213 q -31 1265 -44 1252 q 5 1278 -17 1278 q 55 1248 33 1278 l 162 1107 q 176 1074 176 1088 q 164 1047 176 1058 q 135 1036 153 1036 m 200 7 q 192 -1 200 7 q 156 -9 184 -9 q 112 7 128 -9 q 95 54 95 24 l 95 925 q 112 971 95 954 q 156 988 128 988 q 200 971 184 988 q 217 925 217 954 l 217 54 q 200 7 217 24 z "},"Í":{"ha":312,"x_min":95,"x_max":356,"o":"m 177 1036 q 148 1047 159 1036 q 136 1074 136 1058 q 150 1107 136 1088 l 257 1248 q 307 1278 279 1278 q 342 1265 329 1278 q 356 1232 356 1252 q 338 1192 356 1213 l 218 1059 q 197 1041 205 1046 q 177 1036 189 1036 m 200 7 q 192 -1 200 7 q 156 -9 184 -9 q 112 7 128 -9 q 95 54 95 24 l 95 925 q 112 971 95 954 q 156 988 128 988 q 200 971 184 988 q 217 925 217 954 l 217 54 q 200 7 217 24 z "},"Î":{"ha":312,"x_min":-42,"x_max":355,"o":"m -2 1030 q -31 1042 -19 1030 q -42 1069 -42 1053 q -28 1101 -42 1086 l 97 1232 q 156 1261 125 1261 q 215 1232 188 1261 l 340 1100 q 355 1068 355 1085 q 343 1041 355 1053 q 314 1030 331 1030 q 293 1035 302 1030 q 271 1055 285 1040 l 158 1175 l 154 1175 l 41 1055 q 19 1035 27 1040 q -2 1030 10 1030 m 200 7 q 192 -1 200 7 q 156 -9 184 -9 q 112 7 128 -9 q 95 54 95 24 l 95 925 q 112 971 95 954 q 156 988 128 988 q 200 971 184 988 q 217 925 217 954 l 217 54 q 200 7 217 24 z "},"Ï":{"ha":312,"x_min":-45,"x_max":357,"o":"m 82 1109 q 71 1099 82 1109 q 30 1088 60 1088 q -23 1109 -1 1088 q -45 1162 -45 1131 q -23 1215 -45 1194 q 30 1237 -1 1237 q 82 1215 60 1237 q 104 1162 104 1194 q 82 1109 104 1131 m 335 1109 q 324 1099 335 1109 q 282 1088 313 1088 q 230 1109 252 1088 q 208 1162 208 1131 q 230 1215 208 1194 q 282 1237 252 1237 q 335 1215 313 1237 q 357 1162 357 1194 q 335 1109 357 1131 m 200 7 q 192 -1 200 7 q 156 -9 184 -9 q 112 7 128 -9 q 95 54 95 24 l 95 925 q 112 971 95 954 q 156 988 128 988 q 200 971 184 988 q 217 925 217 954 l 217 54 q 200 7 217 24 z "},"Ð":{"ha":958,"x_min":6,"x_max":895,"o":"m 165 0 q 120 17 137 0 q 104 63 104 34 l 104 450 l 65 450 q 23 465 39 450 q 6 505 6 480 q 23 545 6 529 q 65 560 39 560 l 104 560 l 104 916 q 120 962 104 945 q 165 979 137 979 l 433 979 q 772 849 650 979 q 895 490 895 720 q 773 129 895 258 q 433 0 651 0 l 165 0 m 226 110 l 425 110 q 680 208 591 110 q 770 488 770 306 q 681 770 770 672 q 425 869 591 869 l 226 869 l 226 560 l 365 560 q 407 545 391 560 q 424 505 424 529 q 407 465 424 480 q 365 450 391 450 l 226 450 l 226 110 z "},"Ñ":{"ha":971,"x_min":95,"x_max":876,"o":"m 309 1061 q 280 1073 291 1061 q 270 1105 270 1084 q 307 1212 270 1172 q 400 1251 343 1251 q 449 1241 426 1251 q 488 1215 472 1230 q 518 1184 504 1200 q 547 1159 532 1169 q 575 1148 562 1148 q 621 1216 612 1148 q 634 1251 625 1240 q 661 1261 643 1261 q 690 1250 679 1261 q 701 1219 701 1238 q 664 1113 701 1154 q 574 1072 628 1072 q 516 1088 544 1072 q 472 1123 489 1104 q 436 1158 456 1142 q 399 1175 416 1175 q 365 1158 376 1175 q 349 1103 353 1141 q 309 1061 345 1061 m 199 7 q 191 -1 199 7 q 155 -9 183 -9 q 111 7 127 -9 q 95 54 95 24 l 95 917 q 114 968 95 949 q 165 988 134 988 q 204 980 189 988 q 235 947 219 971 l 749 210 l 755 210 l 755 925 q 772 971 755 954 q 816 988 788 988 q 860 971 844 988 q 876 925 876 954 l 876 57 q 858 8 876 26 q 807 -9 840 -9 q 767 -1 782 -9 q 736 31 753 7 l 222 766 l 216 766 l 216 54 q 199 7 216 24 z "},"Ò":{"ha":1016,"x_min":57,"x_max":959,"o":"m 487 1036 q 467 1041 475 1036 q 446 1059 458 1046 l 326 1192 q 308 1232 308 1213 q 321 1265 308 1252 q 357 1278 335 1278 q 407 1248 385 1278 l 514 1107 q 528 1074 528 1088 q 516 1047 528 1058 q 487 1036 505 1036 m 838 120 q 777 52 838 120 q 508 -16 716 -16 q 178 120 300 -16 q 57 489 57 256 q 178 859 57 722 q 508 995 300 995 q 838 859 716 995 q 959 489 959 722 q 838 120 959 256 m 270 202 q 314 149 270 202 q 508 96 358 96 q 746 202 658 96 q 833 489 833 309 q 746 776 833 670 q 508 882 658 882 q 270 776 358 882 q 182 489 182 670 q 270 202 182 309 z "},"Ó":{"ha":1016,"x_min":57,"x_max":959,"o":"m 529 1036 q 500 1047 511 1036 q 488 1074 488 1058 q 502 1107 488 1088 l 609 1248 q 659 1278 631 1278 q 694 1265 681 1278 q 708 1232 708 1252 q 690 1192 708 1213 l 570 1059 q 549 1041 557 1046 q 529 1036 541 1036 m 838 120 q 777 52 838 120 q 508 -16 716 -16 q 178 120 300 -16 q 57 489 57 256 q 178 859 57 722 q 508 995 300 995 q 838 859 716 995 q 959 489 959 722 q 838 120 959 256 m 270 202 q 314 149 270 202 q 508 96 358 96 q 746 202 658 96 q 833 489 833 309 q 746 776 833 670 q 508 882 658 882 q 270 776 358 882 q 182 489 182 670 q 270 202 182 309 z "},"Ô":{"ha":1016,"x_min":57,"x_max":959,"o":"m 350 1030 q 321 1042 333 1030 q 310 1069 310 1053 q 324 1101 310 1086 l 449 1232 q 508 1261 477 1261 q 567 1232 540 1261 l 692 1100 q 707 1068 707 1085 q 695 1041 707 1053 q 666 1030 683 1030 q 645 1035 654 1030 q 623 1055 637 1040 l 510 1175 l 506 1175 l 393 1055 q 371 1035 379 1040 q 350 1030 362 1030 m 838 120 q 777 52 838 120 q 508 -16 716 -16 q 178 120 300 -16 q 57 489 57 256 q 178 859 57 722 q 508 995 300 995 q 838 859 716 995 q 959 489 959 722 q 838 120 959 256 m 270 202 q 314 149 270 202 q 508 96 358 96 q 746 202 658 96 q 833 489 833 309 q 746 776 833 670 q 508 882 658 882 q 270 776 358 882 q 182 489 182 670 q 270 202 182 309 z "},"Õ":{"ha":1016,"x_min":57,"x_max":959,"o":"m 332 1061 q 303 1073 313 1061 q 292 1105 292 1084 q 329 1212 292 1172 q 422 1251 366 1251 q 471 1241 448 1251 q 510 1215 494 1230 q 541 1184 526 1200 q 569 1159 555 1169 q 597 1148 584 1148 q 644 1216 634 1148 q 656 1251 647 1240 q 684 1261 665 1261 q 712 1250 701 1261 q 723 1219 723 1238 q 687 1113 723 1154 q 597 1072 650 1072 q 539 1088 566 1072 q 495 1123 511 1104 q 458 1158 478 1142 q 422 1175 439 1175 q 387 1158 399 1175 q 372 1103 376 1141 q 332 1061 368 1061 m 838 120 q 777 52 838 120 q 508 -16 716 -16 q 178 120 300 -16 q 57 489 57 256 q 178 859 57 722 q 508 995 300 995 q 838 859 716 995 q 959 489 959 722 q 838 120 959 256 m 270 202 q 314 149 270 202 q 508 96 358 96 q 746 202 658 96 q 833 489 833 309 q 746 776 833 670 q 508 882 658 882 q 270 776 358 882 q 182 489 182 670 q 270 202 182 309 z "},"Ö":{"ha":1016,"x_min":57,"x_max":959,"o":"m 434 1109 q 423 1099 434 1109 q 382 1088 412 1088 q 329 1109 351 1088 q 307 1162 307 1131 q 329 1215 307 1194 q 382 1237 351 1237 q 434 1215 412 1237 q 456 1162 456 1194 q 434 1109 456 1131 m 687 1109 q 676 1099 687 1109 q 634 1088 665 1088 q 582 1109 604 1088 q 559 1162 559 1131 q 582 1215 559 1194 q 634 1237 604 1237 q 687 1215 665 1237 q 709 1162 709 1194 q 687 1109 709 1131 m 838 120 q 777 52 838 120 q 508 -16 716 -16 q 178 120 300 -16 q 57 489 57 256 q 178 859 57 722 q 508 995 300 995 q 838 859 716 995 q 959 489 959 722 q 838 120 959 256 m 270 202 q 314 149 270 202 q 508 96 358 96 q 746 202 658 96 q 833 489 833 309 q 746 776 833 670 q 508 882 658 882 q 270 776 358 882 q 182 489 182 670 q 270 202 182 309 z "},"×":{"ha":840,"x_min":122,"x_max":718,"o":"m 170 87 q 136 101 151 87 q 122 133 122 115 q 144 179 122 157 l 349 386 l 144 592 q 123 638 123 614 q 137 670 123 656 q 170 684 151 684 q 219 659 194 684 l 420 457 l 621 659 q 670 684 646 684 q 703 670 689 684 q 718 638 718 656 q 695 592 718 615 l 491 386 l 695 180 q 718 134 718 157 q 703 101 718 115 q 670 87 689 87 q 621 113 646 87 l 420 315 l 218 112 q 170 87 193 87 z "},"Ø":{"ha":1016,"x_min":57,"x_max":959,"o":"m 166 -15 q 136 -4 148 -15 q 123 24 123 7 q 135 56 123 41 l 182 116 q 57 489 57 254 q 178 859 57 722 q 508 995 300 995 q 789 904 675 995 l 842 972 q 879 994 858 994 q 908 982 896 994 q 920 955 920 971 q 910 927 920 939 l 848 846 q 959 489 959 711 q 838 120 959 256 q 508 -16 716 -16 q 245 60 355 -16 l 203 5 q 166 -15 188 -15 m 182 489 q 259 216 182 320 l 715 808 q 508 882 631 882 q 270 776 358 882 q 182 489 182 670 m 508 96 q 746 202 658 96 q 833 489 833 309 q 769 743 833 644 l 319 156 q 508 96 397 96 z "},"Ù":{"ha":967,"x_min":95,"x_max":872,"o":"m 463 1036 q 442 1041 450 1036 q 421 1059 434 1046 l 302 1192 q 283 1232 283 1213 q 297 1265 283 1252 q 332 1278 311 1278 q 382 1248 360 1278 l 490 1107 q 503 1074 503 1088 q 492 1047 503 1058 q 463 1036 480 1036 m 767 84 q 715 34 767 84 q 484 -16 663 -16 q 200 84 304 -16 q 95 343 95 184 l 95 925 q 112 971 95 954 q 156 988 128 988 q 200 971 184 988 q 217 925 217 954 l 217 351 q 288 167 217 238 q 484 96 359 96 q 679 167 608 96 q 750 351 750 238 l 750 925 q 767 971 750 954 q 811 988 783 988 q 856 971 839 988 q 872 925 872 954 l 872 343 q 767 84 872 184 z "},"Ú":{"ha":967,"x_min":95,"x_max":872,"o":"m 505 1036 q 475 1047 487 1036 q 464 1074 464 1058 q 477 1107 464 1088 l 585 1248 q 635 1278 607 1278 q 670 1265 656 1278 q 684 1232 684 1252 q 665 1192 684 1213 l 546 1059 q 525 1041 533 1046 q 505 1036 517 1036 m 767 84 q 715 34 767 84 q 484 -16 663 -16 q 200 84 304 -16 q 95 343 95 184 l 95 925 q 112 971 95 954 q 156 988 128 988 q 200 971 184 988 q 217 925 217 954 l 217 351 q 288 167 217 238 q 484 96 359 96 q 679 167 608 96 q 750 351 750 238 l 750 925 q 767 971 750 954 q 811 988 783 988 q 856 971 839 988 q 872 925 872 954 l 872 343 q 767 84 872 184 z "},"Û":{"ha":967,"x_min":95,"x_max":872,"o":"m 326 1030 q 297 1042 309 1030 q 286 1069 286 1053 q 300 1101 286 1086 l 425 1232 q 484 1261 453 1261 q 543 1232 515 1261 l 668 1100 q 682 1068 682 1085 q 670 1041 682 1053 q 642 1030 659 1030 q 621 1035 629 1030 q 599 1055 612 1040 l 486 1175 l 481 1175 l 368 1055 q 346 1035 355 1040 q 326 1030 338 1030 m 767 84 q 715 34 767 84 q 484 -16 663 -16 q 200 84 304 -16 q 95 343 95 184 l 95 925 q 112 971 95 954 q 156 988 128 988 q 200 971 184 988 q 217 925 217 954 l 217 351 q 288 167 217 238 q 484 96 359 96 q 679 167 608 96 q 750 351 750 238 l 750 925 q 767 971 750 954 q 811 988 783 988 q 856 971 839 988 q 872 925 872 954 l 872 343 q 767 84 872 184 z "},"Ü":{"ha":967,"x_min":95,"x_max":872,"o":"m 410 1109 q 399 1099 410 1109 q 357 1088 388 1088 q 305 1109 327 1088 q 283 1162 283 1131 q 305 1215 283 1194 q 357 1237 327 1237 q 410 1215 388 1237 q 432 1162 432 1194 q 410 1109 432 1131 m 662 1109 q 651 1099 662 1109 q 610 1088 640 1088 q 557 1109 579 1088 q 535 1162 535 1131 q 557 1215 535 1194 q 610 1237 579 1237 q 662 1215 640 1237 q 684 1162 684 1194 q 662 1109 684 1131 m 767 84 q 715 34 767 84 q 484 -16 663 -16 q 200 84 304 -16 q 95 343 95 184 l 95 925 q 112 971 95 954 q 156 988 128 988 q 200 971 184 988 q 217 925 217 954 l 217 351 q 288 167 217 238 q 484 96 359 96 q 679 167 608 96 q 750 351 750 238 l 750 925 q 767 971 750 954 q 811 988 783 988 q 856 971 839 988 q 872 925 872 954 l 872 343 q 767 84 872 184 z "},"Ý":{"ha":850,"x_min":35,"x_max":815,"o":"m 446 1036 q 417 1047 429 1036 q 406 1074 406 1058 q 419 1107 406 1088 l 526 1248 q 576 1278 549 1278 q 612 1265 598 1278 q 625 1232 625 1252 q 607 1192 625 1213 l 488 1059 q 467 1041 475 1046 q 446 1036 458 1036 m 470 7 q 461 -1 470 7 q 425 -9 453 -9 q 381 7 397 -9 q 364 54 364 24 l 364 421 l 47 895 q 35 935 35 913 q 52 973 35 958 q 94 988 69 988 q 148 957 127 988 l 423 539 l 427 539 l 703 957 q 756 988 724 988 q 798 973 781 988 q 815 935 815 958 q 803 895 815 913 l 486 421 l 486 54 q 470 7 486 24 z "},"Þ":{"ha":836,"x_min":109,"x_max":769,"o":"m 214 8 q 206 -1 214 8 q 170 -9 197 -9 q 125 8 142 -9 q 109 54 109 25 l 109 925 q 125 971 109 954 q 170 988 142 988 q 214 971 197 988 q 231 925 231 954 l 231 798 l 483 798 q 591 779 539 798 q 682 725 642 760 q 745 636 722 690 q 769 517 769 582 q 745 397 769 452 q 681 308 722 343 q 589 253 641 273 q 481 234 538 234 l 231 234 l 231 54 q 214 8 231 25 m 231 342 l 448 342 q 590 387 536 342 q 644 517 644 432 q 590 646 644 602 q 448 690 536 690 l 231 690 l 231 342 z "},"ß":{"ha":813,"x_min":118,"x_max":739,"o":"m 218 5 q 210 -4 218 5 q 176 -12 202 -12 q 134 5 151 -12 q 118 50 118 22 l 118 726 q 193 913 118 843 q 395 984 269 984 q 592 915 515 984 q 669 739 669 846 q 628 593 669 655 q 519 510 588 531 l 519 507 q 681 427 623 492 q 739 262 739 362 q 657 64 739 138 q 440 -9 576 -9 q 368 5 392 -9 q 345 50 345 20 q 359 82 345 70 q 394 94 372 94 q 412 94 399 94 q 431 93 425 93 q 568 139 514 93 q 623 264 623 185 q 564 396 623 348 q 403 444 506 444 l 394 444 q 347 459 364 444 q 330 501 330 474 q 347 543 330 528 q 394 558 364 558 l 396 558 q 512 605 470 558 q 554 732 554 651 q 510 840 554 798 q 397 882 467 882 q 277 837 320 882 q 234 713 234 792 l 234 50 q 218 5 234 22 z "},"à":{"ha":697,"x_min":47,"x_max":624,"o":"m 324 789 q 283 811 300 789 l 166 954 q 153 990 153 970 q 166 1022 153 1010 q 201 1035 180 1035 q 229 1028 218 1035 q 254 1000 239 1021 l 355 856 q 365 825 365 841 q 353 799 365 810 q 324 789 342 789 m 282 -12 q 112 46 177 -12 q 47 199 47 104 q 114 345 47 290 q 303 406 181 399 l 506 417 l 506 476 q 465 577 506 541 q 351 614 425 614 q 253 591 293 614 q 183 516 212 568 q 134 488 168 488 q 97 502 111 488 q 82 541 82 517 q 96 589 82 564 q 197 682 126 647 q 354 718 268 718 q 551 655 478 718 q 624 488 624 593 l 624 47 q 608 4 624 21 q 568 -12 593 -12 q 528 4 543 -12 q 512 47 512 21 l 512 121 l 509 121 q 416 24 478 61 q 282 -12 353 -12 m 309 88 q 449 140 392 88 q 506 268 506 192 l 506 326 l 317 314 q 207 279 245 309 q 168 199 168 250 q 206 119 168 149 q 309 88 245 88 z "},"á":{"ha":697,"x_min":47,"x_max":624,"o":"m 361 789 q 332 799 344 789 q 321 825 321 810 q 331 856 321 841 l 432 1000 q 457 1028 446 1021 q 484 1035 468 1035 q 519 1022 506 1035 q 533 990 533 1010 q 519 954 533 970 l 403 811 q 361 789 385 789 m 282 -12 q 112 46 177 -12 q 47 199 47 104 q 114 345 47 290 q 303 406 181 399 l 506 417 l 506 476 q 465 577 506 541 q 351 614 425 614 q 253 591 293 614 q 183 516 212 568 q 134 488 168 488 q 97 502 111 488 q 82 541 82 517 q 96 589 82 564 q 197 682 126 647 q 354 718 268 718 q 551 655 478 718 q 624 488 624 593 l 624 47 q 608 4 624 21 q 568 -12 593 -12 q 528 4 543 -12 q 512 47 512 21 l 512 121 l 509 121 q 416 24 478 61 q 282 -12 353 -12 m 309 88 q 449 140 392 88 q 506 268 506 192 l 506 326 l 317 314 q 207 279 245 309 q 168 199 168 250 q 206 119 168 149 q 309 88 245 88 z "},"â":{"ha":697,"x_min":47,"x_max":624,"o":"m 193 792 q 164 804 176 792 q 152 831 152 815 q 166 863 152 846 l 288 996 q 347 1025 314 1025 q 404 996 378 1025 l 526 863 q 540 831 540 846 q 528 804 540 815 q 499 792 516 792 q 456 817 478 792 l 348 937 l 344 937 l 235 817 q 193 792 214 792 m 282 -12 q 112 46 177 -12 q 47 199 47 104 q 114 345 47 290 q 303 406 181 399 l 506 417 l 506 476 q 465 577 506 541 q 351 614 425 614 q 253 591 293 614 q 183 516 212 568 q 134 488 168 488 q 97 502 111 488 q 82 541 82 517 q 96 589 82 564 q 197 682 126 647 q 354 718 268 718 q 551 655 478 718 q 624 488 624 593 l 624 47 q 608 4 624 21 q 568 -12 593 -12 q 528 4 543 -12 q 512 47 512 21 l 512 121 l 509 121 q 416 24 478 61 q 282 -12 353 -12 m 309 88 q 449 140 392 88 q 506 268 506 192 l 506 326 l 317 314 q 207 279 245 309 q 168 199 168 250 q 206 119 168 149 q 309 88 245 88 z "},"ã":{"ha":697,"x_min":47,"x_max":624,"o":"m 172 802 q 143 814 154 802 q 133 846 133 825 q 170 952 133 913 q 263 992 206 992 q 312 982 289 992 q 351 956 335 971 q 381 925 367 941 q 410 900 395 910 q 438 889 425 889 q 484 957 475 889 q 497 991 488 981 q 524 1002 506 1002 q 553 991 542 1002 q 564 960 564 979 q 527 853 564 895 q 437 812 491 812 q 379 829 407 812 q 335 864 352 845 q 299 899 319 883 q 262 916 279 916 q 228 899 239 916 q 212 844 216 882 q 172 802 208 802 m 282 -12 q 112 46 177 -12 q 47 199 47 104 q 114 345 47 290 q 303 406 181 399 l 506 417 l 506 476 q 465 577 506 541 q 351 614 425 614 q 253 591 293 614 q 183 516 212 568 q 134 488 168 488 q 97 502 111 488 q 82 541 82 517 q 96 589 82 564 q 197 682 126 647 q 354 718 268 718 q 551 655 478 718 q 624 488 624 593 l 624 47 q 608 4 624 21 q 568 -12 593 -12 q 528 4 543 -12 q 512 47 512 21 l 512 121 l 509 121 q 416 24 478 61 q 282 -12 353 -12 m 309 88 q 449 140 392 88 q 506 268 506 192 l 506 326 l 317 314 q 207 279 245 309 q 168 199 168 250 q 206 119 168 149 q 309 88 245 88 z "},"ä":{"ha":697,"x_min":47,"x_max":624,"o":"m 272 838 q 261 827 272 838 q 220 816 250 816 q 167 838 189 816 q 145 890 145 859 q 167 943 145 922 q 220 965 189 965 q 272 943 250 965 q 294 890 294 922 q 272 838 294 859 m 525 838 q 514 827 525 838 q 472 816 503 816 q 419 838 441 816 q 397 890 397 859 q 419 943 397 922 q 472 965 441 965 q 525 943 503 965 q 547 890 547 922 q 525 838 547 859 m 282 -12 q 112 46 177 -12 q 47 199 47 104 q 114 345 47 290 q 303 406 181 399 l 506 417 l 506 476 q 465 577 506 541 q 351 614 425 614 q 253 591 293 614 q 183 516 212 568 q 134 488 168 488 q 97 502 111 488 q 82 541 82 517 q 96 589 82 564 q 197 682 126 647 q 354 718 268 718 q 551 655 478 718 q 624 488 624 593 l 624 47 q 608 4 624 21 q 568 -12 593 -12 q 528 4 543 -12 q 512 47 512 21 l 512 121 l 509 121 q 416 24 478 61 q 282 -12 353 -12 m 309 88 q 449 140 392 88 q 506 268 506 192 l 506 326 l 317 314 q 207 279 245 309 q 168 199 168 250 q 206 119 168 149 q 309 88 245 88 z "},"å":{"ha":697,"x_min":47,"x_max":624,"o":"m 437 806 q 418 787 437 806 q 346 768 399 768 q 254 806 292 768 q 216 897 216 844 q 254 989 216 951 q 346 1027 292 1027 q 437 989 399 1027 q 475 897 475 951 q 437 806 475 844 m 296 848 q 307 838 296 848 q 346 827 317 827 q 395 848 375 827 q 416 897 416 868 q 395 947 416 926 q 346 967 375 967 q 296 947 317 967 q 276 897 276 926 q 296 848 276 868 m 282 -12 q 112 46 177 -12 q 47 199 47 104 q 114 345 47 290 q 303 406 181 399 l 506 417 l 506 476 q 465 577 506 541 q 351 614 425 614 q 253 591 293 614 q 183 516 212 568 q 134 488 168 488 q 97 502 111 488 q 82 541 82 517 q 96 589 82 564 q 197 682 126 647 q 354 718 268 718 q 551 655 478 718 q 624 488 624 593 l 624 47 q 608 4 624 21 q 568 -12 593 -12 q 528 4 543 -12 q 512 47 512 21 l 512 121 l 509 121 q 416 24 478 61 q 282 -12 353 -12 m 309 88 q 449 140 392 88 q 506 268 506 192 l 506 326 l 317 314 q 207 279 245 309 q 168 199 168 250 q 206 119 168 149 q 309 88 245 88 z "},"æ":{"ha":1159,"x_min":45,"x_max":1114,"o":"m 299 -12 q 114 45 182 -12 q 45 199 45 102 q 113 343 45 290 q 309 402 182 396 l 505 412 l 505 462 q 459 571 505 528 q 342 614 414 614 q 243 591 283 614 q 174 516 203 568 q 125 488 158 488 q 87 502 102 488 q 73 541 73 517 q 87 589 73 564 q 187 682 117 647 q 340 718 257 718 q 492 681 428 718 q 581 578 555 644 l 587 578 q 684 682 623 646 q 826 718 745 718 q 1034 626 953 718 q 1114 390 1114 534 q 1097 340 1114 358 q 1049 321 1080 321 l 623 321 l 623 314 q 678 152 623 214 q 827 90 734 90 q 933 115 890 90 q 1017 200 976 140 q 1061 224 1034 224 q 1099 210 1085 224 q 1114 172 1114 195 q 1105 138 1114 159 q 1000 27 1071 66 q 831 -12 928 -12 q 673 27 741 -12 q 571 138 606 67 l 564 138 q 453 27 521 66 q 299 -12 386 -12 m 623 413 l 993 413 q 943 560 991 505 q 817 615 896 615 q 682 559 735 615 q 623 413 629 503 m 303 89 q 447 141 388 89 q 505 268 505 194 l 505 321 l 321 311 q 205 278 245 307 q 165 201 165 250 q 203 120 165 151 q 303 89 241 89 z "},"ç":{"ha":696,"x_min":42,"x_max":647,"o":"m 368 -317 q 311 -313 334 -317 q 265 -274 265 -305 q 275 -252 265 -260 q 302 -243 285 -243 q 325 -245 309 -243 q 351 -247 340 -247 q 437 -198 437 -247 q 351 -155 437 -155 l 333 -155 q 302 -145 314 -155 q 291 -120 291 -136 q 298 -90 291 -108 l 330 -10 q 120 99 198 3 q 42 351 42 196 q 131 617 42 517 q 366 718 220 718 q 544 668 465 718 q 642 545 622 618 q 646 519 646 532 q 633 482 646 496 q 596 468 619 468 q 565 477 577 468 q 540 509 552 486 q 368 614 484 614 q 219 542 275 614 q 162 353 162 471 q 219 162 162 233 q 368 92 275 92 q 471 118 429 92 q 541 196 512 144 q 565 229 553 220 q 596 237 576 237 q 633 223 619 237 q 647 186 647 209 q 642 156 647 174 q 558 47 619 92 q 416 -9 496 3 l 382 -88 q 488 -118 449 -90 q 527 -197 527 -146 q 482 -285 527 -253 q 368 -317 437 -317 z "},"è":{"ha":711,"x_min":42,"x_max":669,"o":"m 340 789 q 298 811 316 789 l 182 954 q 168 990 168 970 q 182 1022 168 1010 q 217 1035 195 1035 q 244 1028 233 1035 q 269 1000 255 1021 l 370 856 q 380 825 380 841 q 369 799 380 810 q 340 789 357 789 m 372 -12 q 129 83 216 -12 q 42 350 42 179 q 129 617 42 517 q 362 718 216 718 q 584 626 498 718 q 669 389 669 534 q 652 339 669 357 q 604 321 635 321 l 163 321 q 218 152 163 214 q 368 90 273 90 q 474 115 431 90 q 558 200 517 140 q 602 224 575 224 q 640 210 626 224 q 654 172 654 195 q 646 138 654 159 q 541 27 612 66 q 372 -12 469 -12 m 164 413 l 547 413 q 494 560 545 505 q 360 615 442 615 q 223 559 277 615 q 164 413 170 504 z "},"é":{"ha":711,"x_min":42,"x_max":669,"o":"m 377 789 q 348 799 359 789 q 336 825 336 810 q 347 856 336 841 l 448 1000 q 473 1028 462 1021 q 500 1035 484 1035 q 535 1022 522 1035 q 549 990 549 1010 q 535 954 549 970 l 418 811 q 377 789 401 789 m 372 -12 q 129 83 216 -12 q 42 350 42 179 q 129 617 42 517 q 362 718 216 718 q 584 626 498 718 q 669 389 669 534 q 652 339 669 357 q 604 321 635 321 l 163 321 q 218 152 163 214 q 368 90 273 90 q 474 115 431 90 q 558 200 517 140 q 602 224 575 224 q 640 210 626 224 q 654 172 654 195 q 646 138 654 159 q 541 27 612 66 q 372 -12 469 -12 m 164 413 l 547 413 q 494 560 545 505 q 360 615 442 615 q 223 559 277 615 q 164 413 170 504 z "},"ê":{"ha":711,"x_min":42,"x_max":669,"o":"m 208 792 q 179 804 191 792 q 168 831 168 815 q 182 863 168 846 l 303 996 q 363 1025 330 1025 q 420 996 393 1025 l 541 863 q 555 831 555 846 q 544 804 555 815 q 515 792 532 792 q 472 817 494 792 l 363 937 l 359 937 l 251 817 q 208 792 229 792 m 372 -12 q 129 83 216 -12 q 42 350 42 179 q 129 617 42 517 q 362 718 216 718 q 584 626 498 718 q 669 389 669 534 q 652 339 669 357 q 604 321 635 321 l 163 321 q 218 152 163 214 q 368 90 273 90 q 474 115 431 90 q 558 200 517 140 q 602 224 575 224 q 640 210 626 224 q 654 172 654 195 q 646 138 654 159 q 541 27 612 66 q 372 -12 469 -12 m 164 413 l 547 413 q 494 560 545 505 q 360 615 442 615 q 223 559 277 615 q 164 413 170 504 z "},"ë":{"ha":711,"x_min":42,"x_max":669,"o":"m 288 838 q 277 827 288 838 q 235 816 266 816 q 183 838 205 816 q 161 890 161 859 q 183 943 161 922 q 235 965 205 965 q 288 943 266 965 q 310 890 310 922 q 288 838 310 859 m 540 838 q 529 827 540 838 q 488 816 518 816 q 435 838 457 816 q 413 890 413 859 q 435 943 413 922 q 488 965 457 965 q 540 943 518 965 q 562 890 562 922 q 540 838 562 859 m 372 -12 q 129 83 216 -12 q 42 350 42 179 q 129 617 42 517 q 362 718 216 718 q 584 626 498 718 q 669 389 669 534 q 652 339 669 357 q 604 321 635 321 l 163 321 q 218 152 163 214 q 368 90 273 90 q 474 115 431 90 q 558 200 517 140 q 602 224 575 224 q 640 210 626 224 q 654 172 654 195 q 646 138 654 159 q 541 27 612 66 q 372 -12 469 -12 m 164 413 l 547 413 q 494 560 545 505 q 360 615 442 615 q 223 559 277 615 q 164 413 170 504 z "},"ì":{"ha":283,"x_min":-52,"x_max":201,"o":"m 120 789 q 79 811 96 789 l -38 954 q -52 990 -52 970 q -38 1022 -52 1010 q -3 1035 -24 1035 q 24 1028 14 1035 q 50 1000 35 1021 l 151 856 q 161 825 161 841 q 149 799 161 810 q 120 789 138 789 m 184 5 q 176 -3 184 5 q 142 -12 168 -12 q 99 5 116 -12 q 83 51 83 23 l 83 654 q 99 700 83 682 q 142 718 116 718 q 184 700 168 718 q 201 654 201 682 l 201 51 q 184 5 201 23 z "},"í":{"ha":283,"x_min":83,"x_max":329,"o":"m 157 789 q 128 799 140 789 q 117 825 117 810 q 127 856 117 841 l 228 1000 q 253 1028 242 1021 q 280 1035 264 1035 q 315 1022 302 1035 q 329 990 329 1010 q 315 954 329 970 l 199 811 q 157 789 181 789 m 184 5 q 176 -3 184 5 q 142 -12 168 -12 q 99 5 116 -12 q 83 51 83 23 l 83 654 q 99 700 83 682 q 142 718 116 718 q 184 700 168 718 q 201 654 201 682 l 201 51 q 184 5 201 23 z "},"î":{"ha":283,"x_min":-52,"x_max":336,"o":"m -12 792 q -40 804 -28 792 q -52 831 -52 815 q -38 863 -52 846 l 83 996 q 143 1025 110 1025 q 200 996 174 1025 l 321 863 q 336 831 336 846 q 324 804 336 815 q 295 792 312 792 q 252 817 274 792 l 144 937 l 140 937 l 31 817 q -12 792 9 792 m 184 5 q 176 -3 184 5 q 142 -12 168 -12 q 99 5 116 -12 q 83 51 83 23 l 83 654 q 99 700 83 682 q 142 718 116 718 q 184 700 168 718 q 201 654 201 682 l 201 51 q 184 5 201 23 z "},"ï":{"ha":283,"x_min":-59,"x_max":342,"o":"m 68 838 q 57 827 68 838 q 16 816 46 816 q -37 838 -15 816 q -59 890 -59 859 q -37 943 -59 922 q 16 965 -15 965 q 68 943 46 965 q 90 890 90 922 q 68 838 90 859 m 320 838 q 309 827 320 838 q 268 816 298 816 q 215 838 237 816 q 193 890 193 859 q 215 943 193 922 q 268 965 237 965 q 320 943 298 965 q 342 890 342 922 q 320 838 342 859 m 184 5 q 176 -3 184 5 q 142 -12 168 -12 q 99 5 116 -12 q 83 51 83 23 l 83 654 q 99 700 83 682 q 142 718 116 718 q 184 700 168 718 q 201 654 201 682 l 201 51 q 184 5 201 23 z "},"ð":{"ha":758,"x_min":54,"x_max":696,"o":"m 378 -12 q 141 82 229 -12 q 54 340 54 176 q 138 595 54 500 q 362 690 222 690 q 478 659 422 690 q 557 582 534 628 l 568 582 q 520 700 553 637 q 449 808 487 763 l 313 764 q 292 760 301 760 q 264 772 275 760 q 253 802 253 783 q 283 837 253 827 l 394 873 q 335 932 389 879 q 317 970 317 949 q 330 1000 317 989 q 362 1012 342 1012 q 404 996 385 1012 q 496 906 452 956 l 614 945 q 637 949 627 949 q 664 937 653 949 q 674 908 674 926 q 648 873 674 882 l 551 843 q 696 374 696 643 q 611 92 696 195 q 378 -12 526 -12 m 379 92 q 528 159 473 92 q 584 340 584 227 q 528 519 584 452 q 379 587 472 587 q 231 520 286 587 q 176 340 176 453 q 231 159 176 227 q 379 92 286 92 z "},"ñ":{"ha":732,"x_min":77,"x_max":659,"o":"m 194 802 q 165 814 176 802 q 155 846 155 825 q 191 952 155 913 q 285 992 228 992 q 334 982 311 992 q 373 956 357 971 q 403 925 389 941 q 432 900 417 910 q 460 889 446 889 q 506 957 496 889 q 518 991 509 981 q 546 1002 528 1002 q 574 991 564 1002 q 585 960 585 979 q 549 853 585 895 q 459 812 513 812 q 401 829 429 812 q 357 864 374 845 q 321 899 340 883 q 284 916 301 916 q 250 899 261 916 q 234 844 238 882 q 194 802 230 802 m 178 5 q 170 -3 178 5 q 136 -12 161 -12 q 93 5 110 -12 q 77 51 77 23 l 77 658 q 92 701 77 684 q 132 718 108 718 q 172 701 157 718 q 188 658 188 684 l 188 593 l 191 593 q 278 685 221 652 q 414 718 335 718 q 594 648 530 718 q 659 458 659 578 l 659 51 q 642 5 659 23 q 600 -12 625 -12 q 557 5 574 -12 q 541 51 541 23 l 541 437 q 500 568 541 523 q 378 613 459 613 q 245 559 295 613 q 195 415 195 505 l 195 51 q 178 5 195 23 z "},"ò":{"ha":737,"x_min":42,"x_max":695,"o":"m 347 789 q 306 811 323 789 l 189 954 q 176 990 176 970 q 189 1022 176 1010 q 224 1035 203 1035 q 252 1028 241 1035 q 277 1000 262 1021 l 378 856 q 388 825 388 841 q 376 799 388 810 q 347 789 365 789 m 369 -12 q 132 86 221 -12 q 42 353 42 185 q 132 619 42 520 q 369 718 221 718 q 606 619 516 718 q 695 353 695 520 q 606 87 695 186 q 369 -12 516 -12 m 218 161 q 246 126 218 161 q 369 92 274 92 q 519 160 464 92 q 575 353 575 229 q 519 545 575 476 q 369 614 464 614 q 218 545 274 614 q 162 353 162 475 q 218 161 162 230 z "},"ó":{"ha":737,"x_min":42,"x_max":695,"o":"m 385 789 q 355 799 367 789 q 344 825 344 810 q 354 856 344 841 l 455 1000 q 480 1028 469 1021 q 507 1035 491 1035 q 543 1022 529 1035 q 556 990 556 1010 q 543 954 556 970 l 426 811 q 385 789 408 789 m 369 -12 q 132 86 221 -12 q 42 353 42 185 q 132 619 42 520 q 369 718 221 718 q 606 619 516 718 q 695 353 695 520 q 606 87 695 186 q 369 -12 516 -12 m 218 161 q 246 126 218 161 q 369 92 274 92 q 519 160 464 92 q 575 353 575 229 q 519 545 575 476 q 369 614 464 614 q 218 545 274 614 q 162 353 162 475 q 218 161 162 230 z "},"ô":{"ha":737,"x_min":42,"x_max":695,"o":"m 216 792 q 187 804 199 792 q 175 831 175 815 q 189 863 175 846 l 311 996 q 370 1025 337 1025 q 427 996 401 1025 l 549 863 q 563 831 563 846 q 551 804 563 815 q 522 792 539 792 q 479 817 501 792 l 371 937 l 367 937 l 258 817 q 216 792 237 792 m 369 -12 q 132 86 221 -12 q 42 353 42 185 q 132 619 42 520 q 369 718 221 718 q 606 619 516 718 q 695 353 695 520 q 606 87 695 186 q 369 -12 516 -12 m 218 161 q 246 126 218 161 q 369 92 274 92 q 519 160 464 92 q 575 353 575 229 q 519 545 575 476 q 369 614 464 614 q 218 545 274 614 q 162 353 162 475 q 218 161 162 230 z "},"õ":{"ha":737,"x_min":42,"x_max":695,"o":"m 195 802 q 166 814 177 802 q 156 846 156 825 q 193 952 156 913 q 286 992 229 992 q 335 982 312 992 q 374 956 358 971 q 404 925 390 941 q 433 900 418 910 q 461 889 448 889 q 507 957 498 889 q 520 991 511 981 q 547 1002 529 1002 q 576 991 565 1002 q 587 960 587 979 q 550 853 587 895 q 460 812 514 812 q 402 829 430 812 q 358 864 375 845 q 322 899 342 883 q 286 916 302 916 q 251 899 262 916 q 235 844 239 882 q 195 802 231 802 m 369 -12 q 132 86 221 -12 q 42 353 42 185 q 132 619 42 520 q 369 718 221 718 q 606 619 516 718 q 695 353 695 520 q 606 87 695 186 q 369 -12 516 -12 m 218 161 q 246 126 218 161 q 369 92 274 92 q 519 160 464 92 q 575 353 575 229 q 519 545 575 476 q 369 614 464 614 q 218 545 274 614 q 162 353 162 475 q 218 161 162 230 z "},"ö":{"ha":737,"x_min":42,"x_max":695,"o":"m 295 838 q 284 827 295 838 q 243 816 273 816 q 190 838 212 816 q 168 890 168 859 q 190 943 168 922 q 243 965 212 965 q 295 943 273 965 q 317 890 317 922 q 295 838 317 859 m 548 838 q 537 827 548 838 q 495 816 526 816 q 443 838 465 816 q 420 890 420 859 q 443 943 420 922 q 495 965 465 965 q 548 943 526 965 q 570 890 570 922 q 548 838 570 859 m 369 -12 q 132 86 221 -12 q 42 353 42 185 q 132 619 42 520 q 369 718 221 718 q 606 619 516 718 q 695 353 695 520 q 606 87 695 186 q 369 -12 516 -12 m 218 161 q 246 126 218 161 q 369 92 274 92 q 519 160 464 92 q 575 353 575 229 q 519 545 575 476 q 369 614 464 614 q 218 545 274 614 q 162 353 162 475 q 218 161 162 230 z "},"÷":{"ha":840,"x_min":82,"x_max":758,"o":"m 420 574 q 366 595 387 574 q 345 650 345 616 q 366 705 345 683 q 420 726 387 726 q 475 705 453 726 q 497 650 497 683 q 475 595 497 616 q 420 574 453 574 m 137 334 q 98 349 113 334 q 82 386 82 363 q 98 424 82 409 q 137 438 113 438 l 703 438 q 742 424 727 438 q 758 386 758 409 q 742 349 758 363 q 703 334 727 334 l 137 334 m 420 45 q 366 66 387 45 q 345 121 345 88 q 366 176 345 155 q 420 198 387 198 q 475 176 453 198 q 497 121 497 155 q 475 66 497 88 q 420 45 453 45 z "},"ø":{"ha":737,"x_min":42,"x_max":695,"o":"m 138 -29 q 109 -18 121 -29 q 96 7 96 -7 q 108 39 96 22 l 137 81 q 42 353 42 180 q 132 619 42 520 q 369 718 221 718 q 541 673 467 718 l 571 717 q 607 738 586 738 q 634 727 623 738 q 645 702 645 717 q 635 674 645 688 l 602 623 q 695 353 695 523 q 606 87 695 186 q 369 -12 516 -12 q 201 31 274 -12 l 174 -9 q 138 -29 161 -29 m 162 353 q 204 180 162 247 l 479 582 q 369 614 433 614 q 218 545 274 614 q 162 353 162 475 m 369 92 q 519 160 464 92 q 575 353 575 229 q 534 524 575 456 l 262 121 q 369 92 309 92 z "},"ù":{"ha":732,"x_min":73,"x_max":656,"o":"m 342 789 q 301 811 319 789 l 184 954 q 171 990 171 970 q 184 1022 171 1010 q 220 1035 198 1035 q 247 1028 236 1035 q 272 1000 258 1021 l 373 856 q 383 825 383 841 q 372 799 383 810 q 342 789 360 789 m 317 -12 q 138 57 203 -12 q 73 248 73 127 l 73 654 q 90 700 73 682 q 132 718 106 718 q 175 700 158 718 q 191 654 191 682 l 191 269 q 354 92 191 92 q 489 146 439 92 q 538 291 538 200 l 538 654 q 554 700 538 682 q 597 718 571 718 q 639 700 623 718 q 656 654 656 682 l 656 47 q 641 5 656 22 q 600 -12 625 -12 q 559 5 575 -12 q 544 47 544 22 l 544 115 l 541 115 q 317 -12 475 -12 z "},"ú":{"ha":732,"x_min":73,"x_max":656,"o":"m 380 789 q 351 799 362 789 q 339 825 339 810 q 349 856 339 841 l 450 1000 q 475 1028 465 1021 q 503 1035 486 1035 q 538 1022 524 1035 q 551 990 551 1010 q 538 954 551 970 l 421 811 q 380 789 404 789 m 317 -12 q 138 57 203 -12 q 73 248 73 127 l 73 654 q 90 700 73 682 q 132 718 106 718 q 175 700 158 718 q 191 654 191 682 l 191 269 q 354 92 191 92 q 489 146 439 92 q 538 291 538 200 l 538 654 q 554 700 538 682 q 597 718 571 718 q 639 700 623 718 q 656 654 656 682 l 656 47 q 641 5 656 22 q 600 -12 625 -12 q 559 5 575 -12 q 544 47 544 22 l 544 115 l 541 115 q 317 -12 475 -12 z "},"û":{"ha":732,"x_min":73,"x_max":656,"o":"m 211 792 q 182 804 194 792 q 170 831 170 815 q 184 863 170 846 l 306 996 q 366 1025 332 1025 q 422 996 396 1025 l 544 863 q 558 831 558 846 q 546 804 558 815 q 517 792 534 792 q 475 817 496 792 l 366 937 l 362 937 l 254 817 q 211 792 232 792 m 317 -12 q 138 57 203 -12 q 73 248 73 127 l 73 654 q 90 700 73 682 q 132 718 106 718 q 175 700 158 718 q 191 654 191 682 l 191 269 q 354 92 191 92 q 489 146 439 92 q 538 291 538 200 l 538 654 q 554 700 538 682 q 597 718 571 718 q 639 700 623 718 q 656 654 656 682 l 656 47 q 641 5 656 22 q 600 -12 625 -12 q 559 5 575 -12 q 544 47 544 22 l 544 115 l 541 115 q 317 -12 475 -12 z "},"ü":{"ha":732,"x_min":73,"x_max":656,"o":"m 291 838 q 280 827 291 838 q 238 816 269 816 q 185 838 208 816 q 163 890 163 859 q 185 943 163 922 q 238 965 208 965 q 291 943 269 965 q 313 890 313 922 q 291 838 313 859 m 543 838 q 532 827 543 838 q 490 816 521 816 q 438 838 460 816 q 416 890 416 859 q 438 943 416 922 q 490 965 460 965 q 543 943 521 965 q 565 890 565 922 q 543 838 565 859 m 317 -12 q 138 57 203 -12 q 73 248 73 127 l 73 654 q 90 700 73 682 q 132 718 106 718 q 175 700 158 718 q 191 654 191 682 l 191 269 q 354 92 191 92 q 489 146 439 92 q 538 291 538 200 l 538 654 q 554 700 538 682 q 597 718 571 718 q 639 700 623 718 q 656 654 656 682 l 656 47 q 641 5 656 22 q 600 -12 625 -12 q 559 5 575 -12 q 544 47 544 22 l 544 115 l 541 115 q 317 -12 475 -12 z "},"ý":{"ha":675,"x_min":27,"x_max":648,"o":"m 353 789 q 324 799 336 789 q 313 825 313 810 q 323 856 313 841 l 424 1000 q 449 1028 438 1021 q 476 1035 460 1035 q 511 1022 498 1035 q 525 990 525 1010 q 511 954 525 970 l 395 811 q 353 789 377 789 m 146 -264 q 80 -249 103 -264 q 57 -205 57 -233 q 70 -174 57 -186 q 104 -162 82 -162 q 124 -162 113 -162 q 144 -163 135 -163 q 260 -50 223 -163 l 276 -1 l 33 632 q 27 663 27 649 q 44 703 27 688 q 86 718 60 718 q 142 674 127 718 l 337 118 l 339 118 l 534 674 q 555 708 543 698 q 590 718 568 718 q 631 702 615 718 q 648 663 648 687 q 642 632 648 649 l 381 -50 q 284 -217 336 -171 q 146 -264 233 -264 z "},"þ":{"ha":768,"x_min":83,"x_max":725,"o":"m 430 -12 q 296 19 355 -12 q 210 106 238 50 l 199 106 l 199 -187 q 183 -232 199 -214 q 141 -249 167 -249 q 99 -232 115 -249 q 83 -187 83 -214 l 83 932 q 98 974 83 958 q 138 991 114 991 q 179 975 163 991 q 195 932 195 958 l 195 587 l 205 587 q 298 683 239 648 q 430 718 358 718 q 645 618 565 718 q 725 353 725 519 q 645 87 725 186 q 430 -12 564 -12 m 401 92 q 550 161 496 92 q 604 353 604 230 q 550 545 604 475 q 401 614 496 614 q 252 543 307 614 q 197 353 197 473 q 252 162 197 233 q 401 92 307 92 z "},"ÿ":{"ha":675,"x_min":27,"x_max":648,"o":"m 264 838 q 253 827 264 838 q 212 816 242 816 q 159 838 181 816 q 137 890 137 859 q 159 943 137 922 q 212 965 181 965 q 264 943 242 965 q 286 890 286 922 q 264 838 286 859 m 516 838 q 505 827 516 838 q 464 816 494 816 q 411 838 433 816 q 389 890 389 859 q 411 943 389 922 q 464 965 433 965 q 516 943 494 965 q 538 890 538 922 q 516 838 538 859 m 146 -264 q 80 -249 103 -264 q 57 -205 57 -233 q 70 -174 57 -186 q 104 -162 82 -162 q 124 -162 113 -162 q 144 -163 135 -163 q 260 -50 223 -163 l 276 -1 l 33 632 q 27 663 27 649 q 44 703 27 688 q 86 718 60 718 q 142 674 127 718 l 337 118 l 339 118 l 534 674 q 555 708 543 698 q 590 718 568 718 q 631 702 615 718 q 648 663 648 687 q 642 632 648 649 l 381 -50 q 284 -217 336 -171 q 146 -264 233 -264 z "},"Ā":{"ha":876,"x_min":37,"x_max":839,"o":"m 255 1108 q 224 1120 236 1108 q 213 1150 213 1132 q 224 1177 213 1166 q 255 1187 236 1187 l 621 1187 q 652 1177 640 1187 q 663 1150 663 1166 q 652 1120 663 1132 q 621 1108 640 1108 l 255 1108 m 98 -9 q 55 6 72 -9 q 37 44 37 21 q 45 78 37 58 l 359 929 q 439 988 381 988 q 516 930 494 988 l 831 78 q 839 44 839 58 q 822 6 839 21 q 778 -9 804 -9 q 718 37 734 -9 l 631 280 l 244 280 l 158 37 q 98 -9 142 -9 m 279 384 l 597 384 l 440 830 l 436 830 l 279 384 z "},"ā":{"ha":697,"x_min":47,"x_max":624,"o":"m 183 850 q 153 861 164 850 q 141 890 141 872 q 153 918 141 907 q 183 929 165 929 l 509 929 q 539 918 527 929 q 551 890 551 907 q 539 861 551 872 q 509 850 528 850 l 183 850 m 282 -12 q 112 46 177 -12 q 47 199 47 104 q 114 345 47 290 q 303 406 181 399 l 506 417 l 506 476 q 465 577 506 541 q 351 614 425 614 q 253 591 293 614 q 183 516 212 568 q 134 488 168 488 q 97 502 111 488 q 82 541 82 517 q 96 589 82 564 q 197 682 126 647 q 354 718 268 718 q 551 655 478 718 q 624 488 624 593 l 624 47 q 608 4 624 21 q 568 -12 593 -12 q 528 4 543 -12 q 512 47 512 21 l 512 121 l 509 121 q 416 24 478 61 q 282 -12 353 -12 m 309 88 q 449 140 392 88 q 506 268 506 192 l 506 326 l 317 314 q 207 279 245 309 q 168 199 168 250 q 206 119 168 149 q 309 88 245 88 z "},"Ă":{"ha":876,"x_min":37,"x_max":839,"o":"m 438 1046 q 301 1089 359 1046 q 231 1200 243 1132 q 228 1227 228 1215 q 239 1256 228 1245 q 267 1267 250 1267 q 296 1258 286 1267 q 311 1225 306 1248 q 357 1149 323 1175 q 438 1122 390 1122 q 519 1149 486 1122 q 565 1225 553 1175 q 581 1258 570 1248 q 609 1267 591 1267 q 637 1256 626 1267 q 648 1227 648 1245 q 646 1202 648 1215 q 576 1090 635 1134 q 438 1046 518 1046 m 98 -9 q 55 6 72 -9 q 37 44 37 21 q 45 78 37 58 l 359 929 q 439 988 381 988 q 516 930 494 988 l 831 78 q 839 44 839 58 q 822 6 839 21 q 778 -9 804 -9 q 718 37 734 -9 l 631 280 l 244 280 l 158 37 q 98 -9 142 -9 m 279 384 l 597 384 l 440 830 l 436 830 l 279 384 z "},"ă":{"ha":697,"x_min":47,"x_max":624,"o":"m 491 845 q 462 823 491 845 q 346 800 433 800 q 201 844 259 800 q 133 956 144 888 q 131 983 131 970 q 142 1015 131 1003 q 171 1026 153 1026 q 200 1016 190 1026 q 215 980 210 1005 q 261 901 227 929 q 345 873 295 873 q 431 902 396 873 q 476 980 466 930 q 491 1016 481 1005 q 520 1026 501 1026 q 549 1014 538 1026 q 559 983 559 1002 q 558 960 559 972 q 491 845 549 890 m 282 -12 q 112 46 177 -12 q 47 199 47 104 q 114 345 47 290 q 303 406 181 399 l 506 417 l 506 476 q 465 577 506 541 q 351 614 425 614 q 253 591 293 614 q 183 516 212 568 q 134 488 168 488 q 97 502 111 488 q 82 541 82 517 q 96 589 82 564 q 197 682 126 647 q 354 718 268 718 q 551 655 478 718 q 624 488 624 593 l 624 47 q 608 4 624 21 q 568 -12 593 -12 q 528 4 543 -12 q 512 47 512 21 l 512 121 l 509 121 q 416 24 478 61 q 282 -12 353 -12 m 309 88 q 449 140 392 88 q 506 268 506 192 l 506 326 l 317 314 q 207 279 245 309 q 168 199 168 250 q 206 119 168 149 q 309 88 245 88 z "},"Ą":{"ha":876,"x_min":36,"x_max":859,"o":"m 97 -16 q 53 -1 71 -16 q 36 37 36 14 q 43 71 36 51 l 362 936 q 438 995 384 995 q 514 936 492 995 l 832 75 q 841 35 841 50 q 829 -3 841 13 q 781 -42 817 -18 q 713 -138 713 -87 q 738 -186 713 -170 q 803 -203 762 -203 q 832 -208 820 -203 q 859 -243 859 -216 q 808 -290 859 -281 q 776 -292 793 -292 q 659 -256 703 -292 q 614 -162 614 -220 q 641 -73 614 -113 q 728 7 667 -32 l 631 280 l 244 280 l 156 31 q 97 -16 140 -16 m 279 384 l 596 384 l 440 827 l 436 827 l 279 384 z "},"ą":{"ha":697,"x_min":47,"x_max":631,"o":"m 282 -12 q 112 46 177 -12 q 47 199 47 104 q 114 345 47 290 q 303 406 181 399 l 506 417 l 506 476 q 465 577 506 541 q 351 614 425 614 q 253 591 293 614 q 183 516 212 568 q 134 488 168 488 q 97 502 111 488 q 82 541 82 517 q 96 589 82 564 q 197 682 126 647 q 354 718 268 718 q 551 655 478 718 q 624 488 624 593 l 624 47 q 622 22 624 32 q 608 -1 619 12 q 575 -24 597 -14 q 512 -72 534 -44 q 490 -129 490 -100 q 509 -177 490 -160 q 562 -193 529 -193 q 575 -193 566 -193 q 590 -193 585 -193 q 620 -203 608 -193 q 631 -231 631 -213 q 606 -269 631 -256 q 547 -279 584 -279 q 433 -245 476 -279 q 391 -154 391 -210 q 516 24 391 -62 q 512 47 512 34 l 512 121 l 509 121 q 416 24 478 61 q 282 -12 353 -12 m 309 88 q 449 140 392 88 q 506 268 506 192 l 506 326 l 317 314 q 207 279 245 309 q 168 199 168 250 q 206 119 168 149 q 309 88 245 88 z "},"Ć":{"ha":953,"x_min":57,"x_max":889,"o":"m 519 1038 q 490 1048 501 1038 q 478 1076 478 1059 q 492 1108 478 1090 l 599 1249 q 649 1279 621 1279 q 684 1266 671 1279 q 698 1233 698 1253 q 680 1194 698 1214 l 560 1061 q 539 1042 547 1047 q 519 1038 531 1038 m 498 -16 q 176 120 295 -16 q 57 490 57 257 q 177 858 57 720 q 498 995 297 995 q 733 931 631 995 q 879 758 836 867 q 889 709 889 732 q 874 669 889 684 q 834 654 859 654 q 770 705 789 654 q 663 836 736 789 q 498 882 590 882 q 269 775 355 882 q 182 490 182 668 q 268 203 182 309 q 498 96 353 96 q 667 138 596 96 q 772 260 739 179 q 829 302 791 302 q 869 287 854 302 q 885 248 885 271 q 869 186 885 219 q 725 36 820 88 q 498 -16 631 -16 z "},"ć":{"ha":696,"x_min":42,"x_max":647,"o":"m 380 789 q 351 799 363 789 q 340 825 340 810 q 350 856 340 841 l 451 1000 q 476 1028 465 1021 q 503 1035 487 1035 q 538 1022 525 1035 q 552 990 552 1010 q 538 954 552 970 l 422 811 q 380 789 404 789 m 368 -12 q 131 86 220 -12 q 42 351 42 185 q 131 617 42 517 q 366 718 220 718 q 544 668 465 718 q 642 545 622 618 q 646 519 646 532 q 633 482 646 496 q 596 468 619 468 q 565 477 577 468 q 540 509 552 486 q 368 614 484 614 q 219 542 275 614 q 162 353 162 471 q 219 162 162 233 q 368 92 275 92 q 471 118 429 92 q 541 196 512 144 q 565 229 553 220 q 596 237 576 237 q 633 223 619 237 q 647 186 647 209 q 642 156 647 174 q 539 35 616 82 q 368 -12 463 -12 z "},"Ĉ":{"ha":953,"x_min":57,"x_max":889,"o":"m 340 1031 q 311 1043 323 1031 q 300 1070 300 1055 q 314 1102 300 1087 l 439 1234 q 498 1263 467 1263 q 557 1234 530 1263 l 682 1101 q 696 1069 696 1086 q 685 1043 696 1054 q 656 1031 673 1031 q 635 1037 644 1031 q 613 1056 627 1042 l 500 1176 l 496 1176 l 382 1056 q 360 1037 369 1042 q 340 1031 352 1031 m 498 -16 q 176 120 295 -16 q 57 490 57 257 q 177 858 57 720 q 498 995 297 995 q 733 931 631 995 q 879 758 836 867 q 889 709 889 732 q 874 669 889 684 q 834 654 859 654 q 770 705 789 654 q 663 836 736 789 q 498 882 590 882 q 269 775 355 882 q 182 490 182 668 q 268 203 182 309 q 498 96 353 96 q 667 138 596 96 q 772 260 739 179 q 829 302 791 302 q 869 287 854 302 q 885 248 885 271 q 869 186 885 219 q 725 36 820 88 q 498 -16 631 -16 z "},"ĉ":{"ha":696,"x_min":42,"x_max":647,"o":"m 212 792 q 183 804 195 792 q 171 831 171 815 q 185 863 171 846 l 307 996 q 366 1025 333 1025 q 423 996 397 1025 l 545 863 q 559 831 559 846 q 547 804 559 815 q 518 792 535 792 q 475 817 497 792 l 367 937 l 363 937 l 254 817 q 212 792 233 792 m 368 -12 q 131 86 220 -12 q 42 351 42 185 q 131 617 42 517 q 366 718 220 718 q 544 668 465 718 q 642 545 622 618 q 646 519 646 532 q 633 482 646 496 q 596 468 619 468 q 565 477 577 468 q 540 509 552 486 q 368 614 484 614 q 219 542 275 614 q 162 353 162 471 q 219 162 162 233 q 368 92 275 92 q 471 118 429 92 q 541 196 512 144 q 565 229 553 220 q 596 237 576 237 q 633 223 619 237 q 647 186 647 209 q 642 156 647 174 q 539 35 616 82 q 368 -12 463 -12 z "},"Ċ":{"ha":953,"x_min":57,"x_max":889,"o":"m 556 1100 q 544 1088 556 1100 q 498 1076 532 1076 q 440 1100 464 1076 q 416 1158 416 1124 q 440 1216 416 1192 q 498 1240 464 1240 q 556 1216 532 1240 q 580 1158 580 1192 q 556 1100 580 1124 m 498 -16 q 176 120 295 -16 q 57 490 57 257 q 177 858 57 720 q 498 995 297 995 q 733 931 631 995 q 879 758 836 867 q 889 709 889 732 q 874 669 889 684 q 834 654 859 654 q 770 705 789 654 q 663 836 736 789 q 498 882 590 882 q 269 775 355 882 q 182 490 182 668 q 268 203 182 309 q 498 96 353 96 q 667 138 596 96 q 772 260 739 179 q 829 302 791 302 q 869 287 854 302 q 885 248 885 271 q 869 186 885 219 q 725 36 820 88 q 498 -16 631 -16 z "},"ċ":{"ha":696,"x_min":42,"x_max":647,"o":"m 424 839 q 412 827 424 839 q 365 814 399 814 q 306 839 330 814 q 281 899 281 864 q 306 958 281 933 q 365 983 330 983 q 424 958 399 983 q 449 899 449 933 q 424 839 449 864 m 368 -12 q 131 86 220 -12 q 42 351 42 185 q 131 617 42 517 q 366 718 220 718 q 544 668 465 718 q 642 545 622 618 q 646 519 646 532 q 633 482 646 496 q 596 468 619 468 q 565 477 577 468 q 540 509 552 486 q 368 614 484 614 q 219 542 275 614 q 162 353 162 471 q 219 162 162 233 q 368 92 275 92 q 471 118 429 92 q 541 196 512 144 q 565 229 553 220 q 596 237 576 237 q 633 223 619 237 q 647 186 647 209 q 642 156 647 174 q 539 35 616 82 q 368 -12 463 -12 z "},"Č":{"ha":953,"x_min":57,"x_max":889,"o":"m 498 1036 q 440 1065 468 1036 l 313 1200 q 298 1232 298 1215 q 310 1258 298 1247 q 339 1270 322 1270 q 359 1265 351 1270 q 382 1245 368 1260 l 496 1124 l 500 1124 l 614 1245 q 636 1265 628 1260 q 656 1270 645 1270 q 685 1258 673 1270 q 697 1232 697 1247 q 683 1200 697 1215 l 554 1064 q 528 1043 540 1049 q 498 1036 516 1036 m 498 -16 q 176 120 295 -16 q 57 490 57 257 q 177 858 57 720 q 498 995 297 995 q 733 931 631 995 q 879 758 836 867 q 889 709 889 732 q 874 669 889 684 q 834 654 859 654 q 770 705 789 654 q 663 836 736 789 q 498 882 590 882 q 269 775 355 882 q 182 490 182 668 q 268 203 182 309 q 498 96 353 96 q 667 138 596 96 q 772 260 739 179 q 829 302 791 302 q 869 287 854 302 q 885 248 885 271 q 869 186 885 219 q 725 36 820 88 q 498 -16 631 -16 z "},"č":{"ha":696,"x_min":42,"x_max":647,"o":"m 366 789 q 309 819 336 789 l 186 954 q 172 987 172 970 q 184 1013 172 1002 q 213 1024 196 1024 q 256 1000 234 1024 l 363 878 l 367 878 l 474 1000 q 517 1024 496 1024 q 546 1013 534 1024 q 557 986 557 1002 q 543 954 557 970 l 419 817 q 366 789 393 789 m 368 -12 q 131 86 220 -12 q 42 351 42 185 q 131 617 42 517 q 366 718 220 718 q 544 668 465 718 q 642 545 622 618 q 646 519 646 532 q 633 482 646 496 q 596 468 619 468 q 565 477 577 468 q 540 509 552 486 q 368 614 484 614 q 219 542 275 614 q 162 353 162 471 q 219 162 162 233 q 368 92 275 92 q 471 118 429 92 q 541 196 512 144 q 565 229 553 220 q 596 237 576 237 q 633 223 619 237 q 647 186 647 209 q 642 156 647 174 q 539 35 616 82 q 368 -12 463 -12 z "},"Ď":{"ha":942,"x_min":95,"x_max":886,"o":"m 373 1035 q 315 1064 343 1035 l 188 1198 q 174 1230 174 1213 q 185 1257 174 1246 q 214 1268 197 1268 q 234 1263 226 1268 q 257 1244 243 1259 l 371 1123 l 375 1123 l 489 1244 q 512 1263 503 1259 q 532 1268 520 1268 q 561 1257 549 1268 q 572 1230 572 1246 q 558 1198 572 1213 l 429 1063 q 403 1041 415 1048 q 373 1035 391 1035 m 156 0 q 112 17 128 0 q 95 63 95 34 l 95 916 q 112 962 95 945 q 156 979 128 979 l 424 979 q 764 849 642 979 q 886 490 886 720 q 764 129 886 258 q 424 0 642 0 l 156 0 m 217 110 l 416 110 q 671 208 582 110 q 761 488 761 306 q 672 770 761 672 q 416 869 583 869 l 217 869 l 217 110 z "},"ď":{"ha":873,"x_min":42,"x_max":890,"o":"m 822 660 q 791 671 803 660 q 780 700 780 682 l 780 937 q 795 976 780 960 q 834 991 810 991 q 874 976 859 991 q 890 938 890 962 q 888 916 890 930 l 865 701 q 851 671 863 682 q 822 660 840 660 m 344 -12 q 125 87 208 -12 q 42 353 42 187 q 125 617 42 517 q 341 718 208 718 q 475 684 416 718 q 566 591 534 650 l 568 591 l 568 928 q 585 973 568 956 q 627 991 602 991 q 670 973 653 991 q 686 928 686 956 l 686 45 q 670 4 686 20 q 629 -12 654 -12 q 586 4 603 -12 q 568 45 568 20 l 568 126 l 566 126 q 480 24 536 61 q 344 -12 425 -12 m 366 92 q 513 163 458 92 q 569 353 569 235 q 513 542 569 471 q 366 614 457 614 q 218 543 273 614 q 163 353 163 472 q 218 162 163 233 q 366 92 273 92 z "},"Đ":{"ha":951,"x_min":6,"x_max":895,"o":"m 165 0 q 120 17 137 0 q 104 63 104 34 l 104 450 l 65 450 q 23 465 39 450 q 6 505 6 480 q 23 545 6 529 q 65 560 39 560 l 104 560 l 104 916 q 120 962 104 945 q 165 979 137 979 l 433 979 q 772 849 650 979 q 895 490 895 720 q 773 129 895 258 q 433 0 651 0 l 165 0 m 226 110 l 425 110 q 680 208 591 110 q 770 488 770 306 q 681 770 770 672 q 425 869 591 869 l 226 869 l 226 560 l 365 560 q 407 545 391 560 q 424 505 424 529 q 407 465 424 480 q 365 450 391 450 l 226 450 l 226 110 z "},"đ":{"ha":781,"x_min":42,"x_max":781,"o":"m 344 -12 q 125 87 208 -12 q 42 353 42 187 q 125 617 42 517 q 341 718 208 718 q 475 684 416 718 q 566 591 534 650 l 568 591 l 568 827 l 440 827 q 408 839 420 827 q 396 869 396 850 q 409 898 396 886 q 440 909 421 909 l 568 909 l 568 928 q 585 973 568 956 q 627 991 602 991 q 670 973 653 991 q 686 928 686 956 l 686 909 l 737 909 q 769 898 757 909 q 781 868 781 886 q 769 839 781 850 q 737 827 756 827 l 686 827 l 686 45 q 670 4 686 20 q 629 -12 654 -12 q 586 4 603 -12 q 568 45 568 20 l 568 126 l 566 126 q 480 24 536 61 q 344 -12 425 -12 m 366 92 q 513 163 458 92 q 569 353 569 235 q 513 542 569 471 q 366 614 457 614 q 218 543 273 614 q 163 353 163 472 q 218 162 163 233 q 366 92 273 92 z "},"Ē":{"ha":767,"x_min":95,"x_max":711,"o":"m 215 1108 q 184 1120 196 1108 q 173 1150 173 1132 q 184 1177 173 1166 q 215 1187 196 1187 l 581 1187 q 612 1177 600 1187 q 623 1150 623 1166 q 612 1120 623 1132 q 581 1108 600 1108 l 215 1108 m 156 0 q 112 17 128 0 q 95 63 95 34 l 95 916 q 112 962 95 945 q 156 979 128 979 l 653 979 q 695 963 679 979 q 711 924 711 948 q 695 884 711 899 q 653 869 679 869 l 217 869 l 217 555 l 629 555 q 670 540 654 555 q 686 500 686 525 q 670 461 686 477 q 629 446 654 446 l 217 446 l 217 110 l 653 110 q 695 95 679 110 q 711 55 711 79 q 695 15 711 31 q 653 0 679 0 l 156 0 z "},"ē":{"ha":711,"x_min":42,"x_max":669,"o":"m 199 850 q 168 861 180 850 q 157 890 157 872 q 169 918 157 907 q 199 929 180 929 l 524 929 q 554 918 543 929 q 566 890 566 907 q 555 861 566 872 q 524 850 543 850 l 199 850 m 372 -12 q 129 83 216 -12 q 42 350 42 179 q 129 617 42 517 q 362 718 216 718 q 584 626 498 718 q 669 389 669 534 q 652 339 669 357 q 604 321 635 321 l 163 321 q 218 152 163 214 q 368 90 273 90 q 474 115 431 90 q 558 200 517 140 q 602 224 575 224 q 640 210 626 224 q 654 172 654 195 q 646 138 654 159 q 541 27 612 66 q 372 -12 469 -12 m 164 413 l 547 413 q 494 560 545 505 q 360 615 442 615 q 223 559 277 615 q 164 413 170 504 z "},"Ĕ":{"ha":767,"x_min":95,"x_max":711,"o":"m 398 1046 q 261 1089 319 1046 q 191 1200 203 1132 q 188 1227 188 1215 q 199 1256 188 1245 q 227 1267 210 1267 q 256 1258 245 1267 q 271 1225 266 1248 q 317 1149 283 1175 q 398 1122 350 1122 q 479 1149 446 1122 q 525 1225 513 1175 q 541 1258 530 1248 q 569 1267 551 1267 q 597 1256 586 1267 q 608 1227 608 1245 q 606 1202 608 1215 q 536 1090 595 1134 q 398 1046 478 1046 m 156 0 q 112 17 128 0 q 95 63 95 34 l 95 916 q 112 962 95 945 q 156 979 128 979 l 653 979 q 695 963 679 979 q 711 924 711 948 q 695 884 711 899 q 653 869 679 869 l 217 869 l 217 555 l 629 555 q 670 540 654 555 q 686 500 686 525 q 670 461 686 477 q 629 446 654 446 l 217 446 l 217 110 l 653 110 q 695 95 679 110 q 711 55 711 79 q 695 15 711 31 q 653 0 679 0 l 156 0 z "},"ĕ":{"ha":711,"x_min":42,"x_max":669,"o":"m 506 845 q 477 823 506 845 q 361 800 448 800 q 217 844 275 800 q 149 956 159 888 q 146 983 146 970 q 157 1015 146 1003 q 186 1026 168 1026 q 215 1016 205 1026 q 231 980 225 1005 q 276 901 242 929 q 361 873 311 873 q 447 902 412 873 q 492 980 481 930 q 507 1016 497 1005 q 536 1026 517 1026 q 565 1014 554 1026 q 575 983 575 1002 q 574 960 575 972 q 506 845 564 890 m 372 -12 q 129 83 216 -12 q 42 350 42 179 q 129 617 42 517 q 362 718 216 718 q 584 626 498 718 q 669 389 669 534 q 652 339 669 357 q 604 321 635 321 l 163 321 q 218 152 163 214 q 368 90 273 90 q 474 115 431 90 q 558 200 517 140 q 602 224 575 224 q 640 210 626 224 q 654 172 654 195 q 646 138 654 159 q 541 27 612 66 q 372 -12 469 -12 m 164 413 l 547 413 q 494 560 545 505 q 360 615 442 615 q 223 559 277 615 q 164 413 170 504 z "},"Ė":{"ha":767,"x_min":95,"x_max":711,"o":"m 456 1099 q 444 1087 456 1099 q 398 1075 432 1075 q 340 1099 364 1075 q 316 1157 316 1123 q 340 1215 316 1191 q 398 1239 364 1239 q 456 1215 432 1239 q 480 1157 480 1191 q 456 1099 480 1123 m 156 0 q 112 17 128 0 q 95 63 95 34 l 95 916 q 112 962 95 945 q 156 979 128 979 l 653 979 q 695 963 679 979 q 711 924 711 948 q 695 884 711 899 q 653 869 679 869 l 217 869 l 217 555 l 629 555 q 670 540 654 555 q 686 500 686 525 q 670 461 686 477 q 629 446 654 446 l 217 446 l 217 110 l 653 110 q 695 95 679 110 q 711 55 711 79 q 695 15 711 31 q 653 0 679 0 l 156 0 z "},"ė":{"ha":711,"x_min":42,"x_max":669,"o":"m 421 839 q 408 827 421 839 q 361 814 396 814 q 302 839 327 814 q 277 899 277 864 q 302 958 277 933 q 361 983 327 983 q 421 958 396 983 q 446 899 446 933 q 421 839 446 864 m 372 -12 q 129 83 216 -12 q 42 350 42 179 q 129 617 42 517 q 362 718 216 718 q 584 626 498 718 q 669 389 669 534 q 652 339 669 357 q 604 321 635 321 l 163 321 q 218 152 163 214 q 368 90 273 90 q 474 115 431 90 q 558 200 517 140 q 602 224 575 224 q 640 210 626 224 q 654 172 654 195 q 646 138 654 159 q 541 27 612 66 q 372 -12 469 -12 m 164 413 l 547 413 q 494 560 545 505 q 360 615 442 615 q 223 559 277 615 q 164 413 170 504 z "},"Ę":{"ha":767,"x_min":95,"x_max":711,"o":"m 156 0 q 112 17 128 0 q 95 63 95 34 l 95 916 q 112 962 95 945 q 156 979 128 979 l 653 979 q 695 963 679 979 q 711 924 711 948 q 695 884 711 899 q 653 869 679 869 l 217 869 l 217 555 l 629 555 q 670 540 654 555 q 686 500 686 525 q 670 461 686 477 q 629 446 654 446 l 217 446 l 217 110 l 653 110 q 695 95 679 110 q 711 55 711 79 q 699 21 711 36 q 658 -13 686 5 l 608 -45 q 537 -138 537 -92 q 560 -187 537 -170 q 618 -204 583 -204 q 649 -208 639 -204 q 676 -243 676 -216 q 625 -290 676 -281 q 593 -292 610 -292 q 482 -256 526 -292 q 438 -164 438 -221 q 536 -3 438 -77 l 536 0 l 156 0 z "},"ę":{"ha":711,"x_min":42,"x_max":669,"o":"m 372 -12 q 129 83 216 -12 q 42 350 42 179 q 129 617 42 517 q 362 718 216 718 q 584 626 498 718 q 669 389 669 534 q 652 339 669 357 q 604 321 635 321 l 163 321 q 218 152 163 214 q 368 90 273 90 q 474 115 431 90 q 558 200 517 140 q 602 224 575 224 q 640 210 626 224 q 654 172 654 195 q 646 138 654 159 q 549 28 625 92 q 525 8 543 23 q 498 -14 506 -7 q 476 -34 491 -20 q 454 -57 461 -47 q 439 -79 448 -66 q 428 -104 431 -92 q 425 -129 425 -116 q 446 -176 425 -159 q 498 -193 467 -193 q 511 -193 502 -193 q 526 -193 521 -193 q 556 -203 545 -193 q 567 -231 567 -213 q 523 -275 567 -266 q 481 -279 503 -279 q 369 -245 411 -279 q 327 -155 327 -212 q 414 -10 327 -79 l 414 -8 q 372 -12 393 -12 m 164 413 l 547 413 q 494 560 545 505 q 360 615 442 615 q 223 559 277 615 q 164 413 170 504 z "},"Ě":{"ha":767,"x_min":95,"x_max":711,"o":"m 398 1035 q 340 1064 368 1035 l 213 1198 q 199 1230 199 1213 q 211 1257 199 1246 q 239 1268 222 1268 q 259 1263 251 1268 q 282 1244 268 1259 l 396 1123 l 400 1123 l 514 1244 q 537 1263 528 1259 q 557 1268 545 1268 q 586 1257 574 1268 q 597 1230 597 1246 q 583 1198 597 1213 l 454 1063 q 428 1041 440 1048 q 398 1035 416 1035 m 156 0 q 112 17 128 0 q 95 63 95 34 l 95 916 q 112 962 95 945 q 156 979 128 979 l 653 979 q 695 963 679 979 q 711 924 711 948 q 695 884 711 899 q 653 869 679 869 l 217 869 l 217 555 l 629 555 q 670 540 654 555 q 686 500 686 525 q 670 461 686 477 q 629 446 654 446 l 217 446 l 217 110 l 653 110 q 695 95 679 110 q 711 55 711 79 q 695 15 711 31 q 653 0 679 0 l 156 0 z "},"ě":{"ha":711,"x_min":42,"x_max":669,"o":"m 363 789 q 306 819 333 789 l 182 954 q 169 987 169 970 q 181 1013 169 1002 q 210 1024 193 1024 q 252 1000 231 1024 l 359 878 l 363 878 l 471 1000 q 513 1024 492 1024 q 542 1013 530 1024 q 554 986 554 1002 q 540 954 554 970 l 416 817 q 363 789 390 789 m 372 -12 q 129 83 216 -12 q 42 350 42 179 q 129 617 42 517 q 362 718 216 718 q 584 626 498 718 q 669 389 669 534 q 652 339 669 357 q 604 321 635 321 l 163 321 q 218 152 163 214 q 368 90 273 90 q 474 115 431 90 q 558 200 517 140 q 602 224 575 224 q 640 210 626 224 q 654 172 654 195 q 646 138 654 159 q 541 27 612 66 q 372 -12 469 -12 m 164 413 l 547 413 q 494 560 545 505 q 360 615 442 615 q 223 559 277 615 q 164 413 170 504 z "},"Ĝ":{"ha":981,"x_min":57,"x_max":920,"o":"m 347 1030 q 319 1042 330 1030 q 307 1069 307 1053 q 321 1101 307 1086 l 446 1232 q 505 1261 475 1261 q 564 1232 537 1261 l 690 1100 q 704 1068 704 1085 q 692 1041 704 1053 q 663 1030 680 1030 q 643 1035 651 1030 q 621 1055 634 1040 l 507 1175 l 503 1175 l 390 1055 q 368 1035 376 1040 q 347 1030 359 1030 m 505 -16 q 179 122 300 -16 q 57 494 57 261 q 178 859 57 724 q 505 995 300 995 q 741 932 638 995 q 884 766 844 869 q 893 714 893 741 q 878 674 893 689 q 838 659 863 659 q 800 670 815 659 q 774 709 785 682 q 667 838 736 794 q 505 882 598 882 q 268 780 354 882 q 182 495 182 677 q 269 203 182 311 q 505 96 356 96 q 717 173 635 96 q 798 373 798 250 l 798 391 l 570 391 q 528 406 545 391 q 512 444 512 420 q 528 483 512 468 q 570 498 545 498 l 859 498 q 904 481 887 498 q 920 435 920 464 l 920 405 q 811 95 920 206 q 505 -16 701 -16 z "},"ĝ":{"ha":763,"x_min":42,"x_max":687,"o":"m 212 792 q 183 804 195 792 q 171 831 171 815 q 185 863 171 846 l 307 996 q 366 1025 333 1025 q 423 996 397 1025 l 545 863 q 559 831 559 846 q 547 804 559 815 q 518 792 535 792 q 475 817 497 792 l 367 937 l 363 937 l 254 817 q 212 792 233 792 m 361 -266 q 203 -232 273 -265 q 96 -140 133 -198 q 82 -96 82 -119 q 97 -59 82 -73 q 135 -45 112 -45 q 160 -51 149 -45 q 184 -72 171 -56 q 271 -143 230 -122 q 366 -165 313 -165 q 514 -118 460 -167 q 569 10 569 -70 l 569 121 l 566 121 q 473 29 533 63 q 340 -5 413 -5 q 123 93 205 -5 q 42 355 42 191 q 124 619 42 521 q 342 718 205 718 q 473 684 416 718 q 567 589 531 650 l 569 589 l 569 656 q 586 701 569 684 q 628 718 602 718 q 670 701 654 718 q 687 656 687 684 l 687 14 q 599 -190 687 -113 q 361 -266 511 -267 m 363 98 q 512 169 456 98 q 569 355 569 239 q 512 543 569 471 q 363 614 456 614 q 217 544 272 614 q 163 355 163 473 q 217 168 163 237 q 363 98 272 98 z "},"Ğ":{"ha":981,"x_min":57,"x_max":920,"o":"m 505 1046 q 368 1089 426 1046 q 298 1200 310 1132 q 295 1227 295 1215 q 306 1256 295 1245 q 334 1267 317 1267 q 363 1258 353 1267 q 378 1225 373 1248 q 424 1149 391 1175 q 505 1122 457 1122 q 587 1149 553 1122 q 632 1225 620 1175 q 648 1258 637 1248 q 676 1267 658 1267 q 704 1256 693 1267 q 715 1227 715 1245 q 713 1202 715 1215 q 644 1090 702 1134 q 505 1046 585 1046 m 505 -16 q 179 122 300 -16 q 57 494 57 261 q 178 859 57 724 q 505 995 300 995 q 741 932 638 995 q 884 766 844 869 q 893 714 893 741 q 878 674 893 689 q 838 659 863 659 q 800 670 815 659 q 774 709 785 682 q 667 838 736 794 q 505 882 598 882 q 268 780 354 882 q 182 495 182 677 q 269 203 182 311 q 505 96 356 96 q 717 173 635 96 q 798 373 798 250 l 798 391 l 570 391 q 528 406 545 391 q 512 444 512 420 q 528 483 512 468 q 570 498 545 498 l 859 498 q 904 481 887 498 q 920 435 920 464 l 920 405 q 811 95 920 206 q 505 -16 701 -16 z "},"ğ":{"ha":763,"x_min":42,"x_max":687,"o":"m 510 845 q 481 823 510 845 q 365 800 452 800 q 220 844 278 800 q 152 956 163 888 q 150 983 150 970 q 161 1015 150 1003 q 190 1026 172 1026 q 219 1016 209 1026 q 234 980 229 1005 q 280 901 245 929 q 364 873 314 873 q 450 902 415 873 q 495 980 485 930 q 510 1016 500 1005 q 539 1026 520 1026 q 568 1014 557 1026 q 578 983 578 1002 q 577 960 578 972 q 510 845 568 890 m 361 -266 q 203 -232 273 -265 q 96 -140 133 -198 q 82 -96 82 -119 q 97 -59 82 -73 q 135 -45 112 -45 q 160 -51 149 -45 q 184 -72 171 -56 q 271 -143 230 -122 q 366 -165 313 -165 q 514 -118 460 -167 q 569 10 569 -70 l 569 121 l 566 121 q 473 29 533 63 q 340 -5 413 -5 q 123 93 205 -5 q 42 355 42 191 q 124 619 42 521 q 342 718 205 718 q 473 684 416 718 q 567 589 531 650 l 569 589 l 569 656 q 586 701 569 684 q 628 718 602 718 q 670 701 654 718 q 687 656 687 684 l 687 14 q 599 -190 687 -113 q 361 -266 511 -267 m 363 98 q 512 169 456 98 q 569 355 569 239 q 512 543 569 471 q 363 614 456 614 q 217 544 272 614 q 163 355 163 473 q 217 168 163 237 q 363 98 272 98 z "},"Ġ":{"ha":981,"x_min":57,"x_max":920,"o":"m 563 1099 q 551 1087 563 1099 q 505 1075 539 1075 q 447 1099 471 1075 q 423 1157 423 1123 q 447 1215 423 1191 q 505 1239 471 1239 q 563 1215 539 1239 q 587 1157 587 1191 q 563 1099 587 1123 m 505 -16 q 179 122 300 -16 q 57 494 57 261 q 178 859 57 724 q 505 995 300 995 q 741 932 638 995 q 884 766 844 869 q 893 714 893 741 q 878 674 893 689 q 838 659 863 659 q 800 670 815 659 q 774 709 785 682 q 667 838 736 794 q 505 882 598 882 q 268 780 354 882 q 182 495 182 677 q 269 203 182 311 q 505 96 356 96 q 717 173 635 96 q 798 373 798 250 l 798 391 l 570 391 q 528 406 545 391 q 512 444 512 420 q 528 483 512 468 q 570 498 545 498 l 859 498 q 904 481 887 498 q 920 435 920 464 l 920 405 q 811 95 920 206 q 505 -16 701 -16 z "},"ġ":{"ha":763,"x_min":42,"x_max":687,"o":"m 424 839 q 412 827 424 839 q 365 814 399 814 q 306 839 330 814 q 281 899 281 864 q 306 958 281 933 q 365 983 330 983 q 424 958 399 983 q 449 899 449 933 q 424 839 449 864 m 361 -266 q 203 -232 273 -265 q 96 -140 133 -198 q 82 -96 82 -119 q 97 -59 82 -73 q 135 -45 112 -45 q 160 -51 149 -45 q 184 -72 171 -56 q 271 -143 230 -122 q 366 -165 313 -165 q 514 -118 460 -167 q 569 10 569 -70 l 569 121 l 566 121 q 473 29 533 63 q 340 -5 413 -5 q 123 93 205 -5 q 42 355 42 191 q 124 619 42 521 q 342 718 205 718 q 473 684 416 718 q 567 589 531 650 l 569 589 l 569 656 q 586 701 569 684 q 628 718 602 718 q 670 701 654 718 q 687 656 687 684 l 687 14 q 599 -190 687 -113 q 361 -266 511 -267 m 363 98 q 512 169 456 98 q 569 355 569 239 q 512 543 569 471 q 363 614 456 614 q 217 544 272 614 q 163 355 163 473 q 217 168 163 237 q 363 98 272 98 z "},"Ģ":{"ha":981,"x_min":57,"x_max":920,"o":"m 505 -16 q 179 122 300 -16 q 57 494 57 261 q 178 859 57 724 q 505 995 300 995 q 741 932 638 995 q 884 766 844 869 q 893 714 893 741 q 878 674 893 689 q 838 659 863 659 q 800 670 815 659 q 774 709 785 682 q 667 838 736 794 q 505 882 598 882 q 268 780 354 882 q 182 495 182 677 q 269 203 182 311 q 505 96 356 96 q 717 173 635 96 q 798 373 798 250 l 798 391 l 570 391 q 528 406 545 391 q 512 444 512 420 q 528 483 512 468 q 570 498 545 498 l 859 498 q 904 481 887 498 q 920 435 920 464 l 920 405 q 811 95 920 206 q 505 -16 701 -16 m 451 -340 q 422 -330 433 -340 q 411 -304 411 -320 q 414 -287 411 -295 l 466 -112 q 518 -69 479 -69 q 550 -81 538 -69 q 563 -112 563 -93 q 557 -139 563 -124 l 495 -306 q 451 -340 482 -340 z "},"ģ":{"ha":763,"x_min":42,"x_max":687,"o":"m 419 1046 q 448 1036 437 1046 q 459 1009 459 1025 q 456 992 459 1000 l 404 817 q 352 774 391 774 q 320 786 332 774 q 307 817 307 798 q 313 844 307 829 l 375 1011 q 419 1046 388 1046 m 361 -266 q 203 -232 273 -265 q 96 -140 133 -198 q 82 -96 82 -119 q 97 -59 82 -73 q 135 -45 112 -45 q 160 -51 149 -45 q 184 -72 171 -56 q 271 -143 230 -122 q 366 -165 313 -165 q 514 -118 460 -167 q 569 10 569 -70 l 569 121 l 566 121 q 473 29 533 63 q 340 -5 413 -5 q 123 93 205 -5 q 42 355 42 191 q 124 619 42 521 q 342 718 205 718 q 473 684 416 718 q 567 589 531 650 l 569 589 l 569 656 q 586 701 569 684 q 628 718 602 718 q 670 701 654 718 q 687 656 687 684 l 687 14 q 599 -190 687 -113 q 361 -266 511 -267 m 363 98 q 512 169 456 98 q 569 355 569 239 q 512 543 569 471 q 363 614 456 614 q 217 544 272 614 q 163 355 163 473 q 217 168 163 237 q 363 98 272 98 z "},"Ĥ":{"ha":971,"x_min":95,"x_max":876,"o":"m 328 1030 q 299 1042 311 1030 q 288 1069 288 1053 q 302 1101 288 1086 l 427 1232 q 486 1261 455 1261 q 545 1232 517 1261 l 670 1100 q 684 1068 684 1085 q 672 1041 684 1053 q 644 1030 661 1030 q 623 1035 631 1030 q 601 1055 614 1040 l 488 1175 l 484 1175 l 370 1055 q 348 1035 357 1040 q 328 1030 340 1030 m 200 7 q 192 -1 200 7 q 156 -9 184 -9 q 112 7 128 -9 q 95 54 95 24 l 95 925 q 112 971 95 954 q 156 988 128 988 q 200 971 184 988 q 217 925 217 954 l 217 555 l 754 555 l 754 925 q 771 971 754 954 q 815 988 787 988 q 860 971 843 988 q 876 925 876 954 l 876 54 q 860 7 876 24 q 815 -9 843 -9 q 771 7 787 -9 q 754 54 754 24 l 754 446 l 217 446 l 217 54 q 200 7 217 24 z "},"ĥ":{"ha":749,"x_min":-56,"x_max":675,"o":"m -16 1030 q -44 1042 -33 1030 q -56 1069 -56 1053 q -41 1101 -56 1086 l 83 1232 q 142 1261 112 1261 q 201 1232 174 1261 l 327 1100 q 341 1068 341 1085 q 329 1041 341 1053 q 300 1030 317 1030 q 280 1035 288 1030 q 258 1055 271 1040 l 144 1175 l 140 1175 l 27 1055 q 5 1035 14 1040 q -16 1030 -3 1030 m 184 5 q 176 -3 184 5 q 142 -12 168 -12 q 99 5 116 -12 q 83 51 83 23 l 83 929 q 99 974 83 957 q 142 991 115 991 q 185 974 169 991 q 201 929 201 957 l 201 593 l 203 593 q 291 685 233 652 q 427 718 348 718 q 609 646 543 718 q 675 456 675 575 l 675 51 q 659 5 675 23 q 616 -12 642 -12 q 574 5 591 -12 q 557 51 557 23 l 557 434 q 515 566 557 519 q 391 613 473 613 q 252 558 303 613 q 201 411 201 503 l 201 51 q 184 5 201 23 z "},"Ħ":{"ha":971,"x_min":7,"x_max":968,"o":"m 200 7 q 192 -1 200 7 q 156 -9 184 -9 q 112 7 128 -9 q 95 54 95 24 l 95 729 l 58 729 q 21 743 36 729 q 7 778 7 756 q 21 813 7 800 q 58 826 36 826 l 95 826 l 95 925 q 112 971 95 954 q 156 988 128 988 q 200 971 184 988 q 217 925 217 954 l 217 826 l 754 826 l 754 925 q 771 971 754 954 q 815 988 787 988 q 860 971 843 988 q 876 925 876 954 l 876 826 l 916 826 q 953 812 939 826 q 968 777 968 799 q 953 742 968 755 q 916 729 939 729 l 876 729 l 876 54 q 860 7 876 24 q 815 -9 843 -9 q 771 7 787 -9 q 754 54 754 24 l 754 446 l 217 446 l 217 54 q 200 7 217 24 m 217 555 l 754 555 l 754 729 l 217 729 l 217 555 z "},"ħ":{"ha":749,"x_min":3,"x_max":675,"o":"m 184 5 q 176 -3 184 5 q 142 -12 168 -12 q 99 5 116 -12 q 83 51 83 23 l 83 827 l 47 827 q 15 839 27 827 q 3 869 3 850 q 15 898 3 886 q 47 909 28 909 l 83 909 l 83 929 q 99 974 83 957 q 142 991 115 991 q 185 974 169 991 q 201 929 201 957 l 201 909 l 344 909 q 376 898 363 909 q 388 868 388 886 q 375 839 388 850 q 344 827 363 827 l 201 827 l 201 593 l 203 593 q 291 685 233 652 q 427 718 348 718 q 609 646 543 718 q 675 456 675 575 l 675 51 q 659 5 675 23 q 616 -12 642 -12 q 574 5 591 -12 q 557 51 557 23 l 557 434 q 515 566 557 519 q 391 613 473 613 q 252 558 303 613 q 201 411 201 503 l 201 51 q 184 5 201 23 z "},"Ĩ":{"ha":312,"x_min":-60,"x_max":371,"o":"m -20 1061 q -49 1073 -39 1061 q -60 1105 -60 1084 q -23 1212 -60 1172 q 71 1251 14 1251 q 119 1241 96 1251 q 158 1215 142 1230 q 189 1184 174 1200 q 217 1159 203 1169 q 245 1148 232 1148 q 292 1216 282 1148 q 304 1251 295 1240 q 332 1261 313 1261 q 360 1250 349 1261 q 371 1219 371 1238 q 335 1113 371 1154 q 245 1072 298 1072 q 187 1088 214 1072 q 143 1123 159 1104 q 106 1158 126 1142 q 70 1175 87 1175 q 35 1158 47 1175 q 20 1103 24 1141 q -20 1061 16 1061 m 200 7 q 192 -1 200 7 q 156 -9 184 -9 q 112 7 128 -9 q 95 54 95 24 l 95 925 q 112 971 95 954 q 156 988 128 988 q 200 971 184 988 q 217 925 217 954 l 217 54 q 200 7 217 24 z "},"ĩ":{"ha":283,"x_min":-71,"x_max":359,"o":"m -32 802 q -61 814 -50 802 q -71 846 -71 825 q -35 952 -71 913 q 59 992 2 992 q 108 982 85 992 q 147 956 131 971 q 177 925 163 941 q 206 900 191 910 q 234 889 220 889 q 280 957 271 889 q 293 991 283 981 q 320 1002 302 1002 q 349 991 338 1002 q 359 960 359 979 q 323 853 359 895 q 233 812 287 812 q 175 829 203 812 q 131 864 148 845 q 95 899 115 883 q 58 916 75 916 q 24 899 35 916 q 8 844 12 882 q -32 802 4 802 m 184 5 q 176 -3 184 5 q 142 -12 168 -12 q 99 5 116 -12 q 83 51 83 23 l 83 654 q 99 700 83 682 q 142 718 116 718 q 184 700 168 718 q 201 654 201 682 l 201 51 q 184 5 201 23 z "},"Ī":{"ha":312,"x_min":-69,"x_max":381,"o":"m -27 1108 q -58 1120 -46 1108 q -69 1150 -69 1132 q -58 1177 -69 1166 q -27 1187 -46 1187 l 339 1187 q 370 1177 358 1187 q 381 1150 381 1166 q 370 1120 381 1132 q 339 1108 358 1108 l -27 1108 m 200 7 q 192 -1 200 7 q 156 -9 184 -9 q 112 7 128 -9 q 95 54 95 24 l 95 925 q 112 971 95 954 q 156 988 128 988 q 200 971 184 988 q 217 925 217 954 l 217 54 q 200 7 217 24 z "},"ī":{"ha":283,"x_min":-63,"x_max":347,"o":"m -21 850 q -52 861 -40 850 q -63 890 -63 872 q -51 918 -63 907 q -21 929 -39 929 l 304 929 q 335 918 323 929 q 347 890 347 907 q 335 861 347 872 q 304 850 323 850 l -21 850 m 184 5 q 176 -3 184 5 q 142 -12 168 -12 q 99 5 116 -12 q 83 51 83 23 l 83 654 q 99 700 83 682 q 142 718 116 718 q 184 700 168 718 q 201 654 201 682 l 201 51 q 184 5 201 23 z "},"Ĭ":{"ha":312,"x_min":-54,"x_max":366,"o":"m 156 1046 q 19 1089 77 1046 q -52 1200 -39 1132 q -54 1227 -54 1215 q -43 1256 -54 1245 q -15 1267 -32 1267 q 14 1258 3 1267 q 29 1225 24 1248 q 75 1149 41 1175 q 156 1122 108 1122 q 237 1149 204 1122 q 283 1225 271 1175 q 298 1258 288 1248 q 327 1267 309 1267 q 355 1256 344 1267 q 366 1227 366 1245 q 364 1202 366 1215 q 294 1090 353 1134 q 156 1046 236 1046 m 200 7 q 192 -1 200 7 q 156 -9 184 -9 q 112 7 128 -9 q 95 54 95 24 l 95 925 q 112 971 95 954 q 156 988 128 988 q 200 971 184 988 q 217 925 217 954 l 217 54 q 200 7 217 24 z "},"ĭ":{"ha":283,"x_min":-73,"x_max":355,"o":"m 287 845 q 258 823 287 845 q 142 800 229 800 q -3 844 55 800 q -71 956 -60 888 q -73 983 -73 970 q -62 1015 -73 1003 q -33 1026 -52 1026 q -4 1016 -14 1026 q 11 980 5 1005 q 57 901 22 929 q 141 873 91 873 q 227 902 192 873 q 272 980 262 930 q 287 1016 277 1005 q 316 1026 297 1026 q 345 1014 334 1026 q 355 983 355 1002 q 354 960 355 972 q 287 845 345 890 m 184 5 q 176 -3 184 5 q 142 -12 168 -12 q 99 5 116 -12 q 83 51 83 23 l 83 654 q 99 700 83 682 q 142 718 116 718 q 184 700 168 718 q 201 654 201 682 l 201 51 q 184 5 201 23 z "},"Į":{"ha":312,"x_min":1,"x_max":239,"o":"m 1 -160 q 30 -68 1 -111 q 107 3 58 -24 l 107 6 q 95 47 95 21 l 95 932 q 112 978 95 961 q 156 995 128 995 q 200 978 184 995 q 217 932 217 961 l 217 47 q 207 7 217 22 q 158 -42 196 -9 q 100 -138 100 -92 q 123 -187 100 -170 q 181 -204 146 -204 q 212 -208 202 -204 q 239 -243 239 -216 q 188 -290 239 -281 q 156 -292 174 -292 q 44 -255 86 -292 q 1 -160 1 -219 z "},"į":{"ha":283,"x_min":-8,"x_max":232,"o":"m 142 817 q 90 839 112 817 q 68 890 68 861 q 90 942 68 921 q 142 964 112 964 q 194 942 172 964 q 216 890 216 921 q 194 839 216 861 q 142 817 172 817 m 99 700 q 108 709 99 700 q 142 718 116 718 q 184 700 168 718 q 201 654 201 682 l 201 49 q 191 7 201 22 q 151 -32 182 -8 q 91 -129 91 -77 q 110 -176 91 -159 q 163 -193 130 -193 q 176 -193 167 -193 q 191 -193 186 -193 q 221 -203 210 -193 q 232 -231 232 -213 q 207 -269 232 -256 q 148 -279 185 -279 q 34 -245 77 -279 q -8 -153 -8 -210 q 20 -64 -8 -106 q 98 1 48 -23 q 83 49 83 16 l 83 654 q 99 700 83 682 z "},"İ":{"ha":312,"x_min":74,"x_max":238,"o":"m 214 1099 q 202 1087 214 1099 q 156 1075 190 1075 q 98 1099 122 1075 q 74 1157 74 1123 q 98 1215 74 1191 q 156 1239 122 1239 q 214 1215 190 1239 q 238 1157 238 1191 q 214 1099 238 1123 m 200 7 q 192 -1 200 7 q 156 -9 184 -9 q 112 7 128 -9 q 95 54 95 24 l 95 925 q 112 971 95 954 q 156 988 128 988 q 200 971 184 988 q 217 925 217 954 l 217 54 q 200 7 217 24 z "},"ı":{"ha":283,"x_min":83,"x_max":201,"o":"m 184 5 q 176 -3 184 5 q 142 -12 168 -12 q 99 5 116 -12 q 83 51 83 23 l 83 654 q 99 700 83 682 q 142 718 116 718 q 184 700 168 718 q 201 654 201 682 l 201 51 q 184 5 201 23 z "},"Ĳ":{"ha":1000,"x_min":95,"x_max":905,"o":"m 200 7 q 192 -1 200 7 q 156 -9 184 -9 q 112 7 128 -9 q 95 54 95 24 l 95 925 q 112 971 95 954 q 156 988 128 988 q 200 971 184 988 q 217 925 217 954 l 217 54 q 200 7 217 24 m 617 -16 q 452 29 523 -16 q 353 152 380 75 q 341 216 341 187 q 356 262 341 245 q 399 279 372 279 q 459 224 444 279 q 517 129 476 162 q 616 96 557 96 q 740 143 697 96 q 783 280 783 191 l 783 925 q 799 971 783 954 q 844 988 816 988 q 888 971 871 988 q 905 925 905 954 l 905 279 q 829 62 905 140 q 617 -16 753 -16 z "},"ĳ":{"ha":583,"x_min":68,"x_max":507,"o":"m 142 824 q 90 846 112 824 q 68 897 68 867 q 90 949 68 928 q 142 970 112 970 q 194 949 172 970 q 216 897 216 928 q 194 846 216 867 q 142 824 172 824 m 433 824 q 382 846 404 824 q 360 897 360 867 q 382 949 360 928 q 433 970 404 970 q 486 949 464 970 q 507 897 507 928 q 486 846 507 867 q 433 824 464 824 m 184 5 q 176 -3 184 5 q 142 -12 168 -12 q 99 5 116 -12 q 83 51 83 23 l 83 654 q 99 700 83 682 q 142 718 116 718 q 184 700 168 718 q 201 654 201 682 l 201 51 q 184 5 201 23 m 391 700 q 399 709 391 700 q 433 718 408 718 q 476 700 459 718 q 492 654 492 682 l 492 -52 q 446 -194 492 -145 q 312 -242 399 -242 q 261 -228 279 -242 q 242 -191 242 -214 q 295 -142 242 -149 l 300 -141 q 357 -111 340 -135 q 374 -40 374 -87 l 374 654 q 391 700 374 682 z "},"Ĵ":{"ha":688,"x_min":29,"x_max":730,"o":"m 374 1030 q 345 1042 357 1030 q 334 1069 334 1053 q 348 1101 334 1086 l 473 1232 q 532 1261 501 1261 q 591 1232 564 1261 l 716 1100 q 730 1068 730 1085 q 719 1041 730 1053 q 690 1030 707 1030 q 669 1035 677 1030 q 647 1055 661 1040 l 534 1175 l 530 1175 l 416 1055 q 394 1035 403 1040 q 374 1030 386 1030 m 305 -16 q 140 29 211 -16 q 41 152 68 75 q 29 216 29 187 q 44 262 29 245 q 87 279 60 279 q 147 224 132 279 q 205 129 164 162 q 304 96 245 96 q 428 143 385 96 q 471 280 471 191 l 471 925 q 487 971 471 954 q 532 988 504 988 q 576 971 559 988 q 593 925 593 954 l 593 279 q 517 62 593 140 q 305 -16 441 -16 z "},"ĵ":{"ha":283,"x_min":-53,"x_max":335,"o":"m -12 792 q -41 804 -29 792 q -53 831 -53 815 q -39 863 -53 846 l 83 996 q 142 1025 109 1025 q 199 996 173 1025 l 321 863 q 335 831 335 846 q 323 804 335 815 q 294 792 311 792 q 252 817 273 792 l 143 937 l 139 937 l 31 817 q -12 792 9 792 m 99 700 q 108 709 99 700 q 142 718 116 718 q 184 700 168 718 q 201 654 201 682 l 201 -52 q 154 -194 201 -145 q 20 -242 107 -242 q -31 -228 -12 -242 q -50 -191 -50 -214 q 3 -142 -50 -149 l 8 -141 q 66 -111 49 -135 q 83 -40 83 -87 l 83 654 q 99 700 83 682 z "},"Ķ":{"ha":854,"x_min":95,"x_max":804,"o":"m 200 7 q 192 -1 200 7 q 156 -9 184 -9 q 112 7 128 -9 q 95 54 95 24 l 95 925 q 112 971 95 954 q 156 988 128 988 q 200 971 184 988 q 217 925 217 954 l 217 501 l 224 501 l 660 965 q 708 989 682 989 q 748 973 732 989 q 764 933 764 957 q 748 895 764 911 l 411 545 l 786 94 q 804 48 804 72 q 787 7 804 24 q 745 -10 770 -10 q 690 20 714 -10 l 326 458 l 217 342 l 217 54 q 200 7 217 24 m 359 -340 q 330 -330 340 -340 q 319 -304 319 -320 q 321 -287 319 -295 l 374 -112 q 426 -69 387 -69 q 458 -81 446 -69 q 471 -112 471 -93 q 465 -139 471 -124 l 403 -306 q 359 -340 390 -340 z "},"ķ":{"ha":674,"x_min":83,"x_max":630,"o":"m 184 5 q 176 -3 184 5 q 142 -12 168 -12 q 99 5 116 -12 q 83 51 83 23 l 83 928 q 99 973 83 956 q 142 991 116 991 q 184 973 168 991 q 201 928 201 956 l 201 392 l 516 698 q 559 718 536 718 q 594 703 580 718 q 609 669 609 688 q 590 629 609 647 l 350 401 l 615 78 q 630 38 630 60 q 614 2 630 17 q 576 -12 599 -12 q 532 9 550 -12 l 267 328 l 201 266 l 201 51 q 184 5 201 23 m 310 -340 q 281 -330 292 -340 q 270 -304 270 -320 q 273 -287 270 -295 l 325 -112 q 377 -69 338 -69 q 409 -81 397 -69 q 422 -112 422 -93 q 416 -139 422 -124 l 354 -306 q 310 -340 341 -340 z "},"ĸ":{"ha":677,"x_min":83,"x_max":619,"o":"m 183 3 q 174 -5 183 3 q 140 -12 166 -12 q 99 3 115 -12 q 83 43 83 18 l 83 663 q 99 702 83 687 q 140 718 115 718 q 183 702 166 718 q 199 663 199 687 l 199 393 l 205 393 l 517 699 q 559 718 536 718 q 596 704 582 718 q 611 668 611 690 q 607 647 611 656 q 590 627 603 639 l 322 372 l 600 84 q 619 41 619 64 q 604 3 619 19 q 566 -12 589 -12 q 515 12 536 -12 l 205 339 l 199 339 l 199 43 q 183 3 199 18 z "},"Ĺ":{"ha":728,"x_min":95,"x_max":699,"o":"m 177 1036 q 148 1047 159 1036 q 136 1074 136 1058 q 150 1107 136 1088 l 257 1248 q 307 1278 279 1278 q 342 1265 329 1278 q 356 1232 356 1252 q 338 1192 356 1213 l 218 1059 q 197 1041 205 1046 q 177 1036 189 1036 m 156 0 q 112 17 128 0 q 95 63 95 34 l 95 925 q 112 971 95 954 q 156 988 128 988 q 200 971 184 988 q 217 925 217 954 l 217 110 l 641 110 q 683 95 667 110 q 699 55 699 79 q 683 15 699 31 q 641 0 667 0 l 156 0 z "},"ĺ":{"ha":283,"x_min":83,"x_max":342,"o":"m 163 1036 q 134 1047 145 1036 q 122 1074 122 1058 q 136 1107 122 1088 l 243 1248 q 293 1278 265 1278 q 328 1265 315 1278 q 342 1232 342 1252 q 323 1192 342 1213 l 204 1059 q 183 1041 191 1046 q 163 1036 175 1036 m 184 5 q 176 -3 184 5 q 142 -12 168 -12 q 99 5 116 -12 q 83 51 83 23 l 83 928 q 99 973 83 956 q 142 991 116 991 q 184 973 168 991 q 201 928 201 956 l 201 51 q 184 5 201 23 z "},"Ļ":{"ha":728,"x_min":95,"x_max":699,"o":"m 156 0 q 112 17 128 0 q 95 63 95 34 l 95 925 q 112 971 95 954 q 156 988 128 988 q 200 971 184 988 q 217 925 217 954 l 217 110 l 641 110 q 683 95 667 110 q 699 55 699 79 q 683 15 699 31 q 641 0 667 0 l 156 0 m 338 -340 q 309 -330 319 -340 q 298 -304 298 -320 q 300 -287 298 -295 l 353 -112 q 405 -69 366 -69 q 437 -81 425 -69 q 450 -112 450 -93 q 444 -139 450 -124 l 382 -306 q 338 -340 369 -340 z "},"ļ":{"ha":283,"x_min":47,"x_max":201,"o":"m 184 5 q 176 -3 184 5 q 142 -12 168 -12 q 99 5 116 -12 q 83 51 83 23 l 83 928 q 99 973 83 956 q 142 991 116 991 q 184 973 168 991 q 201 928 201 956 l 201 51 q 184 5 201 23 m 87 -340 q 58 -330 69 -340 q 47 -304 47 -320 q 50 -287 47 -295 l 102 -112 q 155 -69 115 -69 q 187 -81 174 -69 q 199 -112 199 -93 q 194 -139 199 -124 l 132 -306 q 87 -340 119 -340 z "},"Ľ":{"ha":728,"x_min":95,"x_max":699,"o":"m 441 638 q 411 649 422 638 q 399 678 399 660 l 399 935 q 415 973 399 958 q 454 988 430 988 q 494 974 479 988 q 509 936 509 960 q 508 914 509 929 l 484 680 q 471 649 482 661 q 441 638 459 638 m 156 0 q 112 17 128 0 q 95 63 95 34 l 95 925 q 112 971 95 954 q 156 988 128 988 q 200 971 184 988 q 217 925 217 954 l 217 110 l 641 110 q 683 95 667 110 q 699 55 699 79 q 683 15 699 31 q 641 0 667 0 l 156 0 z "},"ľ":{"ha":387,"x_min":83,"x_max":401,"o":"m 333 660 q 302 671 314 660 q 291 700 291 682 l 291 937 q 306 976 291 960 q 345 991 321 991 q 386 976 370 991 q 401 938 401 962 q 399 916 401 930 l 376 701 q 362 671 374 682 q 333 660 351 660 m 184 5 q 176 -3 184 5 q 142 -12 168 -12 q 99 5 116 -12 q 83 51 83 23 l 83 928 q 99 973 83 956 q 142 991 116 991 q 184 973 168 991 q 201 928 201 956 l 201 51 q 184 5 201 23 z "},"Ŀ":{"ha":728,"x_min":95,"x_max":699,"o":"m 156 0 q 112 17 128 0 q 95 63 95 34 l 95 925 q 112 971 95 954 q 156 988 128 988 q 200 971 184 988 q 217 925 217 954 l 217 110 l 641 110 q 683 95 667 110 q 699 55 699 79 q 683 15 699 31 q 641 0 667 0 l 156 0 m 532 438 q 521 427 532 438 q 476 416 509 416 q 420 438 443 416 q 397 494 397 461 q 420 550 397 528 q 476 573 443 573 q 532 550 509 573 q 555 494 555 528 q 532 438 555 461 z "},"ŀ":{"ha":441,"x_min":83,"x_max":441,"o":"m 184 5 q 176 -3 184 5 q 142 -12 168 -12 q 99 5 116 -12 q 83 51 83 23 l 83 928 q 99 973 83 956 q 142 991 116 991 q 184 973 168 991 q 201 928 201 956 l 201 51 q 184 5 201 23 m 418 402 q 407 391 418 402 q 362 380 395 380 q 306 402 329 380 q 283 458 283 425 q 306 514 283 492 q 362 537 329 537 q 418 514 395 537 q 441 458 441 492 q 418 402 441 425 z "},"Ł":{"ha":728,"x_min":1,"x_max":699,"o":"m 156 0 q 112 17 128 0 q 95 63 95 34 l 95 474 l 73 464 q 42 457 57 457 q 12 468 24 457 q 1 497 1 479 q 33 543 1 528 l 95 571 l 95 925 q 112 971 95 954 q 156 988 128 988 q 200 971 184 988 q 217 925 217 954 l 217 627 l 401 711 q 432 718 417 718 q 462 706 450 718 q 473 677 473 695 q 441 632 473 647 l 217 530 l 217 110 l 641 110 q 683 95 667 110 q 699 55 699 79 q 683 15 699 31 q 641 0 667 0 l 156 0 z "},"ł":{"ha":301,"x_min":0,"x_max":301,"o":"m 193 5 q 185 -3 193 5 q 151 -12 176 -12 q 108 5 125 -12 q 92 51 92 23 l 92 460 l 71 450 q 42 442 55 442 q 12 454 24 442 q 0 486 0 466 q 33 528 0 511 l 92 555 l 92 928 q 108 973 92 956 q 151 991 125 991 q 193 973 176 991 q 210 928 210 956 l 210 612 l 226 621 q 260 631 246 631 q 289 619 277 631 q 301 589 301 608 q 267 545 301 562 l 210 517 l 210 51 q 193 5 210 23 z "},"Ń":{"ha":971,"x_min":95,"x_max":876,"o":"m 507 1036 q 477 1047 489 1036 q 466 1074 466 1058 q 479 1107 466 1088 l 587 1248 q 637 1278 609 1278 q 672 1265 659 1278 q 686 1232 686 1252 q 667 1192 686 1213 l 548 1059 q 527 1041 535 1046 q 507 1036 519 1036 m 199 7 q 191 -1 199 7 q 155 -9 183 -9 q 111 7 127 -9 q 95 54 95 24 l 95 917 q 114 968 95 949 q 165 988 134 988 q 204 980 189 988 q 235 947 219 971 l 749 210 l 755 210 l 755 925 q 772 971 755 954 q 816 988 788 988 q 860 971 844 988 q 876 925 876 954 l 876 57 q 858 8 876 26 q 807 -9 840 -9 q 767 -1 782 -9 q 736 31 753 7 l 222 766 l 216 766 l 216 54 q 199 7 216 24 z "},"ń":{"ha":732,"x_min":77,"x_max":659,"o":"m 383 789 q 354 799 366 789 q 342 825 342 810 q 353 856 342 841 l 454 1000 q 479 1028 468 1021 q 506 1035 490 1035 q 541 1022 528 1035 q 555 990 555 1010 q 541 954 555 970 l 425 811 q 383 789 407 789 m 178 5 q 170 -3 178 5 q 136 -12 161 -12 q 93 5 110 -12 q 77 51 77 23 l 77 658 q 92 701 77 684 q 132 718 108 718 q 172 701 157 718 q 188 658 188 684 l 188 593 l 191 593 q 278 685 221 652 q 414 718 335 718 q 594 648 530 718 q 659 458 659 578 l 659 51 q 642 5 659 23 q 600 -12 625 -12 q 557 5 574 -12 q 541 51 541 23 l 541 437 q 500 568 541 523 q 378 613 459 613 q 245 559 295 613 q 195 415 195 505 l 195 51 q 178 5 195 23 z "},"Ņ":{"ha":971,"x_min":95,"x_max":876,"o":"m 199 7 q 191 -1 199 7 q 155 -9 183 -9 q 111 7 127 -9 q 95 54 95 24 l 95 917 q 114 968 95 949 q 165 988 134 988 q 204 980 189 988 q 235 947 219 971 l 749 210 l 755 210 l 755 925 q 772 971 755 954 q 816 988 788 988 q 860 971 844 988 q 876 925 876 954 l 876 57 q 858 8 876 26 q 807 -9 840 -9 q 767 -1 782 -9 q 736 31 753 7 l 222 766 l 216 766 l 216 54 q 199 7 216 24 m 431 -340 q 402 -330 413 -340 q 391 -304 391 -320 q 394 -287 391 -295 l 446 -112 q 498 -69 459 -69 q 531 -81 518 -69 q 543 -112 543 -93 q 538 -139 543 -124 l 475 -306 q 431 -340 463 -340 z "},"ņ":{"ha":732,"x_min":77,"x_max":659,"o":"m 178 5 q 170 -3 178 5 q 136 -12 161 -12 q 93 5 110 -12 q 77 51 77 23 l 77 658 q 92 701 77 684 q 132 718 108 718 q 172 701 157 718 q 188 658 188 684 l 188 593 l 191 593 q 278 685 221 652 q 414 718 335 718 q 594 648 530 718 q 659 458 659 578 l 659 51 q 642 5 659 23 q 600 -12 625 -12 q 557 5 574 -12 q 541 51 541 23 l 541 437 q 500 568 541 523 q 378 613 459 613 q 245 559 295 613 q 195 415 195 505 l 195 51 q 178 5 195 23 m 319 -340 q 290 -330 301 -340 q 279 -304 279 -320 q 282 -287 279 -295 l 334 -112 q 387 -69 347 -69 q 419 -81 406 -69 q 431 -112 431 -93 q 426 -139 431 -124 l 363 -306 q 319 -340 351 -340 z "},"Ň":{"ha":971,"x_min":95,"x_max":876,"o":"m 486 1035 q 428 1064 456 1035 l 300 1198 q 286 1230 286 1213 q 298 1257 286 1246 q 327 1268 310 1268 q 347 1263 338 1268 q 370 1244 355 1259 l 484 1123 l 488 1123 l 602 1244 q 624 1263 616 1259 q 644 1268 633 1268 q 673 1257 661 1268 q 685 1230 685 1246 q 671 1198 685 1213 l 542 1063 q 516 1041 528 1048 q 486 1035 504 1035 m 199 7 q 191 -1 199 7 q 155 -9 183 -9 q 111 7 127 -9 q 95 54 95 24 l 95 917 q 114 968 95 949 q 165 988 134 988 q 204 980 189 988 q 235 947 219 971 l 749 210 l 755 210 l 755 925 q 772 971 755 954 q 816 988 788 988 q 860 971 844 988 q 876 925 876 954 l 876 57 q 858 8 876 26 q 807 -9 840 -9 q 767 -1 782 -9 q 736 31 753 7 l 222 766 l 216 766 l 216 54 q 199 7 216 24 z "},"ň":{"ha":732,"x_min":77,"x_max":659,"o":"m 369 789 q 312 819 339 789 l 189 954 q 175 987 175 970 q 187 1013 175 1002 q 216 1024 199 1024 q 258 1000 237 1024 l 366 878 l 370 878 l 477 1000 q 519 1024 498 1024 q 548 1013 536 1024 q 560 986 560 1002 q 546 954 560 970 l 422 817 q 369 789 396 789 m 178 5 q 170 -3 178 5 q 136 -12 161 -12 q 93 5 110 -12 q 77 51 77 23 l 77 658 q 92 701 77 684 q 132 718 108 718 q 172 701 157 718 q 188 658 188 684 l 188 593 l 191 593 q 278 685 221 652 q 414 718 335 718 q 594 648 530 718 q 659 458 659 578 l 659 51 q 642 5 659 23 q 600 -12 625 -12 q 557 5 574 -12 q 541 51 541 23 l 541 437 q 500 568 541 523 q 378 613 459 613 q 245 559 295 613 q 195 415 195 505 l 195 51 q 178 5 195 23 z "},"ŋ":{"ha":732,"x_min":77,"x_max":659,"o":"m 178 5 q 170 -3 178 5 q 136 -12 161 -12 q 93 5 110 -12 q 77 51 77 23 l 77 658 q 92 701 77 684 q 132 718 108 718 q 172 701 157 718 q 188 658 188 684 l 188 593 l 191 593 q 278 685 221 652 q 414 718 335 718 q 594 648 530 718 q 659 458 659 578 l 659 -66 q 642 -152 659 -115 q 599 -207 626 -188 q 544 -234 572 -226 q 485 -243 515 -243 q 418 -229 445 -243 q 385 -179 385 -213 q 396 -151 385 -161 q 425 -140 408 -140 q 440 -140 429 -140 q 459 -141 451 -141 q 516 -120 492 -141 q 541 -50 541 -98 l 541 437 q 500 568 541 523 q 378 613 459 613 q 245 559 295 613 q 195 415 195 505 l 195 51 q 178 5 195 23 z "},"Ō":{"ha":1016,"x_min":57,"x_max":959,"o":"m 325 1108 q 294 1120 306 1108 q 283 1150 283 1132 q 294 1177 283 1166 q 325 1187 306 1187 l 691 1187 q 722 1177 710 1187 q 733 1150 733 1166 q 722 1120 733 1132 q 691 1108 710 1108 l 325 1108 m 838 120 q 777 52 838 120 q 508 -16 716 -16 q 178 120 300 -16 q 57 489 57 256 q 178 859 57 722 q 508 995 300 995 q 838 859 716 995 q 959 489 959 722 q 838 120 959 256 m 270 202 q 314 149 270 202 q 508 96 358 96 q 746 202 658 96 q 833 489 833 309 q 746 776 833 670 q 508 882 658 882 q 270 776 358 882 q 182 489 182 670 q 270 202 182 309 z "},"ō":{"ha":737,"x_min":42,"x_max":695,"o":"m 206 850 q 176 861 187 850 q 164 890 164 872 q 176 918 164 907 q 206 929 188 929 l 532 929 q 562 918 550 929 q 574 890 574 907 q 562 861 574 872 q 532 850 551 850 l 206 850 m 369 -12 q 132 86 221 -12 q 42 353 42 185 q 132 619 42 520 q 369 718 221 718 q 606 619 516 718 q 695 353 695 520 q 606 87 695 186 q 369 -12 516 -12 m 218 161 q 246 126 218 161 q 369 92 274 92 q 519 160 464 92 q 575 353 575 229 q 519 545 575 476 q 369 614 464 614 q 218 545 274 614 q 162 353 162 475 q 218 161 162 230 z "},"Ŏ":{"ha":1016,"x_min":57,"x_max":959,"o":"m 508 1046 q 371 1089 429 1046 q 300 1200 313 1132 q 298 1227 298 1215 q 309 1256 298 1245 q 337 1267 320 1267 q 366 1258 355 1267 q 381 1225 376 1248 q 427 1149 393 1175 q 508 1122 460 1122 q 589 1149 556 1122 q 635 1225 623 1175 q 650 1258 640 1248 q 679 1267 661 1267 q 707 1256 696 1267 q 718 1227 718 1245 q 716 1202 718 1215 q 646 1090 705 1134 q 508 1046 588 1046 m 838 120 q 777 52 838 120 q 508 -16 716 -16 q 178 120 300 -16 q 57 489 57 256 q 178 859 57 722 q 508 995 300 995 q 838 859 716 995 q 959 489 959 722 q 838 120 959 256 m 270 202 q 314 149 270 202 q 508 96 358 96 q 746 202 658 96 q 833 489 833 309 q 746 776 833 670 q 508 882 658 882 q 270 776 358 882 q 182 489 182 670 q 270 202 182 309 z "},"ŏ":{"ha":737,"x_min":42,"x_max":695,"o":"m 514 845 q 485 823 514 845 q 369 800 456 800 q 224 844 282 800 q 156 956 167 888 q 154 983 154 970 q 165 1015 154 1003 q 194 1026 176 1026 q 223 1016 213 1026 q 238 980 233 1005 q 284 901 250 929 q 368 873 318 873 q 454 902 419 873 q 499 980 489 930 q 514 1016 505 1005 q 543 1026 524 1026 q 572 1014 562 1026 q 583 983 583 1002 q 581 960 583 972 q 514 845 572 890 m 369 -12 q 132 86 221 -12 q 42 353 42 185 q 132 619 42 520 q 369 718 221 718 q 606 619 516 718 q 695 353 695 520 q 606 87 695 186 q 369 -12 516 -12 m 218 161 q 246 126 218 161 q 369 92 274 92 q 519 160 464 92 q 575 353 575 229 q 519 545 575 476 q 369 614 464 614 q 218 545 274 614 q 162 353 162 475 q 218 161 162 230 z "},"Ő":{"ha":1016,"x_min":57,"x_max":959,"o":"m 427 1044 q 397 1055 409 1044 q 386 1081 386 1065 q 398 1114 386 1097 l 494 1239 q 520 1266 509 1259 q 547 1274 531 1274 q 583 1261 569 1274 q 596 1227 596 1248 q 580 1191 596 1209 l 468 1066 q 427 1044 448 1044 m 644 1044 q 614 1055 626 1044 q 603 1081 603 1065 q 615 1114 603 1097 l 711 1239 q 737 1266 726 1259 q 764 1274 748 1274 q 800 1261 786 1274 q 813 1227 813 1248 q 797 1191 813 1209 l 685 1066 q 644 1044 665 1044 m 838 120 q 777 52 838 120 q 508 -16 716 -16 q 178 120 300 -16 q 57 489 57 256 q 178 859 57 722 q 508 995 300 995 q 838 859 716 995 q 959 489 959 722 q 838 120 959 256 m 270 202 q 314 149 270 202 q 508 96 358 96 q 746 202 658 96 q 833 489 833 309 q 746 776 833 670 q 508 882 658 882 q 270 776 358 882 q 182 489 182 670 q 270 202 182 309 z "},"ő":{"ha":737,"x_min":42,"x_max":695,"o":"m 273 789 q 247 799 258 789 q 235 824 235 808 q 245 852 235 837 l 340 997 q 362 1021 352 1015 q 388 1027 372 1027 q 422 1015 410 1027 q 435 983 435 1003 q 422 947 435 963 l 313 811 q 273 789 294 789 m 488 789 q 461 799 472 789 q 450 824 450 808 q 459 852 450 837 l 554 997 q 576 1021 566 1015 q 602 1027 587 1027 q 637 1015 624 1027 q 650 983 650 1003 q 636 947 650 963 l 527 811 q 488 789 509 789 m 369 -12 q 132 86 221 -12 q 42 353 42 185 q 132 619 42 520 q 369 718 221 718 q 606 619 516 718 q 695 353 695 520 q 606 87 695 186 q 369 -12 516 -12 m 218 161 q 246 126 218 161 q 369 92 274 92 q 519 160 464 92 q 575 353 575 229 q 519 545 575 476 q 369 614 464 614 q 218 545 274 614 q 162 353 162 475 q 218 161 162 230 z "},"Œ":{"ha":1503,"x_min":57,"x_max":1447,"o":"m 513 -16 q 180 120 302 -16 q 57 489 57 256 q 180 859 57 722 q 513 995 302 995 q 708 951 622 995 q 844 827 793 907 l 844 916 q 861 962 844 945 q 905 979 878 979 l 1389 979 q 1431 963 1415 979 q 1447 924 1447 948 q 1431 884 1447 899 q 1389 869 1415 869 l 966 869 l 966 555 l 1364 555 q 1406 540 1390 555 q 1421 500 1421 525 q 1405 461 1421 477 q 1364 446 1389 446 l 966 446 l 966 110 l 1389 110 q 1431 95 1415 110 q 1447 55 1447 79 q 1431 15 1447 31 q 1389 0 1415 0 l 905 0 q 861 17 878 0 q 844 63 844 34 l 844 155 q 707 28 793 73 q 513 -16 620 -16 m 513 96 q 753 202 664 96 q 842 489 842 309 q 753 776 842 669 q 513 882 664 882 q 272 776 361 882 q 182 489 182 670 q 272 202 182 309 q 513 96 361 96 z "},"œ":{"ha":1244,"x_min":42,"x_max":1202,"o":"m 368 -12 q 131 87 219 -12 q 42 353 42 186 q 131 618 42 519 q 368 718 219 718 q 631 571 541 718 l 636 571 q 741 678 674 638 q 895 718 808 718 q 1117 625 1032 718 q 1202 389 1202 532 q 1184 339 1202 357 q 1137 321 1167 321 l 696 321 l 696 313 q 753 152 696 213 q 907 90 810 90 q 1014 115 970 90 q 1098 200 1057 140 q 1142 224 1115 224 q 1180 210 1166 224 q 1194 172 1194 195 q 1185 138 1194 159 q 1080 27 1152 66 q 909 -12 1008 -12 q 746 25 817 -12 q 636 127 674 63 l 631 127 q 368 -12 540 -12 m 696 413 l 1080 413 q 1026 559 1078 503 q 892 615 975 615 q 757 559 811 615 q 696 413 703 503 m 368 92 q 520 161 465 92 q 574 353 574 231 q 520 545 574 475 q 368 614 465 614 q 217 544 271 614 q 162 353 162 475 q 217 161 162 231 q 368 92 272 92 z "},"Ŕ":{"ha":832,"x_min":95,"x_max":774,"o":"m 384 1036 q 355 1047 366 1036 q 343 1074 343 1058 q 357 1107 343 1088 l 464 1248 q 514 1278 486 1278 q 549 1265 536 1278 q 563 1232 563 1252 q 545 1192 563 1213 l 425 1059 q 404 1041 412 1046 q 384 1036 396 1036 m 200 5 q 192 -4 200 5 q 156 -12 184 -12 q 112 5 128 -12 q 95 51 95 22 l 95 916 q 112 962 95 945 q 156 979 128 979 l 462 979 q 689 899 604 979 q 774 687 774 819 q 722 510 774 585 q 577 406 669 435 l 756 87 q 769 44 769 64 q 751 4 769 20 q 707 -12 733 -12 q 672 -3 686 -12 q 647 27 659 5 l 451 387 l 217 387 l 217 51 q 200 5 217 22 m 217 495 l 451 495 q 596 544 545 495 q 648 683 648 593 q 594 821 648 771 q 446 870 541 870 l 217 870 l 217 495 z "},"ŕ":{"ha":428,"x_min":77,"x_max":428,"o":"m 256 789 q 227 799 239 789 q 216 825 216 810 q 226 856 216 841 l 327 1000 q 352 1028 341 1021 q 379 1035 363 1035 q 414 1022 401 1035 q 428 990 428 1010 q 414 954 428 970 l 298 811 q 256 789 280 789 m 178 5 q 170 -3 178 5 q 136 -12 161 -12 q 93 5 110 -12 q 77 51 77 23 l 77 658 q 92 701 77 684 q 132 718 108 718 q 172 701 157 718 q 188 658 188 684 l 188 590 l 191 590 q 252 681 205 645 q 351 718 298 718 q 406 701 388 718 q 421 661 421 686 q 403 620 421 634 q 347 605 385 605 q 233 558 271 605 q 195 438 195 511 l 195 51 q 178 5 195 23 z "},"Ŗ":{"ha":832,"x_min":95,"x_max":774,"o":"m 200 5 q 192 -4 200 5 q 156 -12 184 -12 q 112 5 128 -12 q 95 51 95 22 l 95 916 q 112 962 95 945 q 156 979 128 979 l 462 979 q 689 899 604 979 q 774 687 774 819 q 722 510 774 585 q 577 406 669 435 l 756 87 q 769 44 769 64 q 751 4 769 20 q 707 -12 733 -12 q 672 -3 686 -12 q 647 27 659 5 l 451 387 l 217 387 l 217 51 q 200 5 217 22 m 217 495 l 451 495 q 596 544 545 495 q 648 683 648 593 q 594 821 648 771 q 446 870 541 870 l 217 870 l 217 495 m 309 -340 q 279 -330 290 -340 q 269 -304 269 -320 q 271 -287 269 -295 l 323 -112 q 376 -69 336 -69 q 408 -81 395 -69 q 420 -112 420 -93 q 415 -139 420 -124 l 353 -306 q 309 -340 340 -340 z "},"ŗ":{"ha":428,"x_min":41,"x_max":421,"o":"m 178 5 q 170 -3 178 5 q 136 -12 161 -12 q 93 5 110 -12 q 77 51 77 23 l 77 658 q 92 701 77 684 q 132 718 108 718 q 172 701 157 718 q 188 658 188 684 l 188 590 l 191 590 q 252 681 205 645 q 351 718 298 718 q 406 701 388 718 q 421 661 421 686 q 403 620 421 634 q 347 605 385 605 q 233 558 271 605 q 195 438 195 511 l 195 51 q 178 5 195 23 m 81 -340 q 52 -330 63 -340 q 41 -304 41 -320 q 44 -287 41 -295 l 96 -112 q 149 -69 109 -69 q 181 -81 168 -69 q 193 -112 193 -93 q 188 -139 193 -124 l 125 -306 q 81 -340 113 -340 z "},"Ř":{"ha":832,"x_min":95,"x_max":774,"o":"m 363 1035 q 305 1064 333 1035 l 178 1198 q 163 1230 163 1213 q 175 1257 163 1246 q 204 1268 187 1268 q 224 1263 216 1268 q 247 1244 233 1259 l 361 1123 l 365 1123 l 479 1244 q 502 1263 493 1259 q 522 1268 510 1268 q 550 1257 538 1268 q 562 1230 562 1246 q 548 1198 562 1213 l 419 1063 q 393 1041 405 1048 q 363 1035 381 1035 m 200 5 q 192 -4 200 5 q 156 -12 184 -12 q 112 5 128 -12 q 95 51 95 22 l 95 916 q 112 962 95 945 q 156 979 128 979 l 462 979 q 689 899 604 979 q 774 687 774 819 q 722 510 774 585 q 577 406 669 435 l 756 87 q 769 44 769 64 q 751 4 769 20 q 707 -12 733 -12 q 672 -3 686 -12 q 647 27 659 5 l 451 387 l 217 387 l 217 51 q 200 5 217 22 m 217 495 l 451 495 q 596 544 545 495 q 648 683 648 593 q 594 821 648 771 q 446 870 541 870 l 217 870 l 217 495 z "},"ř":{"ha":428,"x_min":48,"x_max":433,"o":"m 242 789 q 185 819 212 789 l 62 954 q 48 987 48 970 q 60 1013 48 1002 q 89 1024 72 1024 q 132 1000 110 1024 l 239 878 l 243 878 l 350 1000 q 393 1024 372 1024 q 421 1013 410 1024 q 433 986 433 1002 q 419 954 433 970 l 295 817 q 242 789 269 789 m 178 5 q 170 -3 178 5 q 136 -12 161 -12 q 93 5 110 -12 q 77 51 77 23 l 77 658 q 92 701 77 684 q 132 718 108 718 q 172 701 157 718 q 188 658 188 684 l 188 590 l 191 590 q 252 681 205 645 q 351 718 298 718 q 406 701 388 718 q 421 661 421 686 q 403 620 421 634 q 347 605 385 605 q 233 558 271 605 q 195 438 195 511 l 195 51 q 178 5 195 23 z "},"Ś":{"ha":825,"x_min":58,"x_max":777,"o":"m 443 1036 q 414 1047 425 1036 q 402 1074 402 1058 q 416 1107 402 1088 l 523 1248 q 573 1278 545 1278 q 608 1265 595 1278 q 622 1232 622 1252 q 604 1192 622 1213 l 484 1059 q 463 1041 471 1046 q 443 1036 455 1036 m 416 -16 q 186 39 280 -16 q 64 184 92 94 q 58 227 58 207 q 73 273 58 256 q 114 290 88 290 q 173 242 159 290 q 261 131 195 168 q 422 94 327 94 q 587 140 522 94 q 652 260 652 187 q 607 363 652 323 q 462 426 562 404 l 353 450 q 140 548 208 481 q 73 720 73 614 q 169 918 73 841 q 418 995 266 995 q 631 937 541 995 q 748 781 722 879 q 751 750 751 768 q 736 710 751 726 q 696 695 720 695 q 635 743 651 695 q 414 885 586 885 q 259 842 320 885 q 198 726 198 799 q 242 627 198 666 q 384 566 286 587 l 492 543 q 710 446 644 509 q 777 278 777 383 q 679 63 777 142 q 416 -16 581 -16 z "},"ś":{"ha":646,"x_min":58,"x_max":602,"o":"m 343 789 q 314 799 326 789 q 302 825 302 810 q 313 856 302 841 l 414 1000 q 439 1028 428 1021 q 466 1035 450 1035 q 501 1022 488 1035 q 515 990 515 1010 q 501 954 515 970 l 385 811 q 343 789 367 789 m 321 -12 q 159 27 228 -12 q 64 132 90 66 q 58 160 58 146 q 73 196 58 183 q 112 209 88 209 q 163 174 144 209 q 228 105 191 125 q 331 84 265 84 q 441 112 399 84 q 482 189 482 140 q 457 250 482 228 q 374 287 433 272 l 266 314 q 64 511 64 364 q 138 661 64 604 q 331 718 212 718 q 486 674 418 718 q 568 568 555 631 q 570 550 570 557 q 558 516 570 529 q 524 504 545 504 q 472 536 489 504 q 414 600 449 580 q 324 621 378 621 q 220 592 260 621 q 180 517 180 563 q 296 416 180 444 l 401 390 q 557 320 511 363 q 602 199 602 277 q 525 46 602 104 q 321 -12 447 -12 z "},"Ŝ":{"ha":825,"x_min":58,"x_max":777,"o":"m 264 1030 q 235 1042 247 1030 q 224 1069 224 1053 q 238 1101 224 1086 l 363 1232 q 422 1261 391 1261 q 481 1232 454 1261 l 606 1100 q 621 1068 621 1085 q 609 1041 621 1053 q 580 1030 597 1030 q 559 1035 568 1030 q 537 1055 551 1040 l 424 1175 l 420 1175 l 307 1055 q 284 1035 293 1040 q 264 1030 276 1030 m 416 -16 q 186 39 280 -16 q 64 184 92 94 q 58 227 58 207 q 73 273 58 256 q 114 290 88 290 q 173 242 159 290 q 261 131 195 168 q 422 94 327 94 q 587 140 522 94 q 652 260 652 187 q 607 363 652 323 q 462 426 562 404 l 353 450 q 140 548 208 481 q 73 720 73 614 q 169 918 73 841 q 418 995 266 995 q 631 937 541 995 q 748 781 722 879 q 751 750 751 768 q 736 710 751 726 q 696 695 720 695 q 635 743 651 695 q 414 885 586 885 q 259 842 320 885 q 198 726 198 799 q 242 627 198 666 q 384 566 286 587 l 492 543 q 710 446 644 509 q 777 278 777 383 q 679 63 777 142 q 416 -16 581 -16 z "},"ŝ":{"ha":646,"x_min":58,"x_max":602,"o":"m 174 792 q 145 804 157 792 q 134 831 134 815 q 148 863 134 846 l 269 996 q 329 1025 296 1025 q 386 996 359 1025 l 507 863 q 522 831 522 846 q 510 804 522 815 q 481 792 498 792 q 438 817 460 792 l 330 937 l 326 937 l 217 817 q 174 792 195 792 m 321 -12 q 159 27 228 -12 q 64 132 90 66 q 58 160 58 146 q 73 196 58 183 q 112 209 88 209 q 163 174 144 209 q 228 105 191 125 q 331 84 265 84 q 441 112 399 84 q 482 189 482 140 q 457 250 482 228 q 374 287 433 272 l 266 314 q 64 511 64 364 q 138 661 64 604 q 331 718 212 718 q 486 674 418 718 q 568 568 555 631 q 570 550 570 557 q 558 516 570 529 q 524 504 545 504 q 472 536 489 504 q 414 600 449 580 q 324 621 378 621 q 220 592 260 621 q 180 517 180 563 q 296 416 180 444 l 401 390 q 557 320 511 363 q 602 199 602 277 q 525 46 602 104 q 321 -12 447 -12 z "},"Ş":{"ha":825,"x_min":58,"x_max":777,"o":"m 414 -317 q 357 -313 379 -317 q 311 -274 311 -305 q 320 -252 311 -260 q 348 -243 330 -243 q 370 -245 355 -243 q 397 -247 386 -247 q 483 -198 483 -247 q 397 -155 483 -155 l 378 -155 q 348 -145 359 -155 q 336 -120 336 -136 q 343 -90 336 -108 l 373 -15 q 172 48 254 -6 q 64 184 90 102 q 58 227 58 207 q 73 273 58 256 q 114 290 88 290 q 173 242 159 290 q 261 131 195 168 q 422 94 327 94 q 587 140 522 94 q 652 260 652 187 q 607 363 652 323 q 462 426 562 404 l 353 450 q 140 548 208 481 q 73 720 73 614 q 169 918 73 841 q 418 995 266 995 q 631 937 541 995 q 748 781 722 879 q 751 750 751 768 q 736 710 751 726 q 696 695 720 695 q 635 743 651 695 q 414 885 586 885 q 259 842 320 885 q 198 726 198 799 q 242 627 198 666 q 384 566 286 587 l 492 543 q 710 446 644 509 q 777 278 777 383 q 691 74 777 152 q 459 -15 606 -4 l 427 -88 q 533 -118 494 -90 q 572 -197 572 -146 q 527 -285 572 -253 q 414 -317 482 -317 z "},"ş":{"ha":646,"x_min":58,"x_max":602,"o":"m 323 -317 q 266 -313 288 -317 q 220 -274 220 -305 q 230 -252 220 -260 q 257 -243 239 -243 q 279 -245 264 -243 q 306 -247 295 -247 q 392 -198 392 -247 q 306 -155 392 -155 l 288 -155 q 257 -145 269 -155 q 245 -120 245 -136 q 252 -90 245 -108 l 284 -10 q 145 35 203 -3 q 64 132 87 73 q 58 160 58 146 q 73 196 58 183 q 112 209 88 209 q 163 174 144 209 q 228 105 191 125 q 331 84 265 84 q 441 112 399 84 q 482 189 482 140 q 457 250 482 228 q 374 287 433 272 l 266 314 q 64 511 64 364 q 138 661 64 604 q 331 718 212 718 q 486 674 418 718 q 568 568 555 631 q 570 550 570 557 q 558 516 570 529 q 524 504 545 504 q 472 536 489 504 q 414 600 449 580 q 324 621 378 621 q 220 592 260 621 q 180 517 180 563 q 296 416 180 444 l 401 390 q 557 320 511 363 q 602 199 602 277 q 539 58 602 114 q 370 -9 476 2 l 336 -88 q 443 -118 404 -90 q 481 -197 481 -146 q 436 -285 481 -253 q 323 -317 391 -317 z "},"Š":{"ha":825,"x_min":58,"x_max":777,"o":"m 422 1035 q 364 1064 392 1035 l 237 1198 q 222 1230 222 1213 q 234 1257 222 1246 q 263 1268 246 1268 q 283 1263 275 1268 q 306 1244 292 1259 l 420 1123 l 424 1123 l 538 1244 q 561 1263 552 1259 q 581 1268 569 1268 q 609 1257 597 1268 q 621 1230 621 1246 q 607 1198 621 1213 l 478 1063 q 452 1041 464 1048 q 422 1035 440 1035 m 416 -16 q 186 39 280 -16 q 64 184 92 94 q 58 227 58 207 q 73 273 58 256 q 114 290 88 290 q 173 242 159 290 q 261 131 195 168 q 422 94 327 94 q 587 140 522 94 q 652 260 652 187 q 607 363 652 323 q 462 426 562 404 l 353 450 q 140 548 208 481 q 73 720 73 614 q 169 918 73 841 q 418 995 266 995 q 631 937 541 995 q 748 781 722 879 q 751 750 751 768 q 736 710 751 726 q 696 695 720 695 q 635 743 651 695 q 414 885 586 885 q 259 842 320 885 q 198 726 198 799 q 242 627 198 666 q 384 566 286 587 l 492 543 q 710 446 644 509 q 777 278 777 383 q 679 63 777 142 q 416 -16 581 -16 z "},"š":{"ha":646,"x_min":58,"x_max":602,"o":"m 329 789 q 272 819 299 789 l 149 954 q 135 987 135 970 q 147 1013 135 1002 q 176 1024 159 1024 q 218 1000 197 1024 l 326 878 l 330 878 l 437 1000 q 479 1024 458 1024 q 508 1013 496 1024 q 520 986 520 1002 q 506 954 520 970 l 382 817 q 329 789 356 789 m 321 -12 q 159 27 228 -12 q 64 132 90 66 q 58 160 58 146 q 73 196 58 183 q 112 209 88 209 q 163 174 144 209 q 228 105 191 125 q 331 84 265 84 q 441 112 399 84 q 482 189 482 140 q 457 250 482 228 q 374 287 433 272 l 266 314 q 64 511 64 364 q 138 661 64 604 q 331 718 212 718 q 486 674 418 718 q 568 568 555 631 q 570 550 570 557 q 558 516 570 529 q 524 504 545 504 q 472 536 489 504 q 414 600 449 580 q 324 621 378 621 q 220 592 260 621 q 180 517 180 563 q 296 416 180 444 l 401 390 q 557 320 511 363 q 602 199 602 277 q 525 46 602 104 q 321 -12 447 -12 z "},"Ţ":{"ha":807,"x_min":27,"x_max":780,"o":"m 342 869 l 85 869 q 44 884 60 869 q 27 924 27 899 q 44 963 27 948 q 85 979 60 979 l 722 979 q 763 963 747 979 q 780 924 780 948 q 763 884 780 899 q 722 869 747 869 l 465 869 l 465 31 q 450 -33 465 0 l 427 -88 q 533 -118 494 -90 q 572 -197 572 -146 q 527 -285 572 -253 q 413 -317 481 -317 q 356 -313 378 -317 q 310 -274 310 -305 q 320 -252 310 -260 q 347 -243 330 -243 q 370 -245 354 -243 q 396 -247 385 -247 q 482 -198 482 -247 q 396 -155 482 -155 l 378 -155 q 347 -145 359 -155 q 336 -120 336 -136 q 342 -90 336 -108 l 374 -10 q 342 47 342 5 l 342 869 z "},"ţ":{"ha":418,"x_min":3,"x_max":404,"o":"m 115 163 l 115 608 l 56 608 q 17 621 31 608 q 3 657 3 633 q 17 693 3 680 q 56 705 31 705 l 115 705 l 115 826 q 131 871 115 854 q 174 889 148 889 q 216 871 199 889 q 233 826 233 854 l 233 705 l 323 705 q 362 693 349 705 q 376 657 376 680 q 362 621 376 633 q 323 608 349 608 l 233 608 l 233 189 q 251 121 233 143 q 313 96 269 99 l 323 96 q 379 50 379 92 q 360 8 379 22 q 294 -5 341 -5 l 258 -88 q 365 -118 326 -90 q 404 -197 404 -146 q 358 -285 404 -253 q 245 -317 313 -317 q 188 -313 210 -317 q 142 -274 142 -305 q 152 -252 142 -260 q 179 -243 161 -243 q 201 -245 186 -243 q 228 -247 217 -247 q 314 -198 314 -247 q 228 -155 314 -155 l 210 -155 q 179 -145 191 -155 q 168 -120 168 -136 q 174 -90 168 -108 l 212 5 q 115 163 115 35 z "},"Ť":{"ha":807,"x_min":24,"x_max":783,"o":"m 404 1035 q 346 1064 374 1035 l 218 1198 q 204 1230 204 1213 q 216 1257 204 1246 q 245 1268 228 1268 q 265 1263 256 1268 q 288 1244 273 1259 l 401 1123 l 406 1123 l 519 1244 q 542 1263 534 1259 q 562 1268 551 1268 q 591 1257 579 1268 q 603 1230 603 1246 q 589 1198 603 1213 l 460 1063 q 434 1041 446 1048 q 404 1035 422 1035 m 448 7 q 440 -1 448 7 q 404 -9 431 -9 q 359 7 376 -9 q 342 54 342 24 l 342 869 l 82 869 q 40 884 56 869 q 24 924 24 899 q 40 963 24 948 q 82 979 56 979 l 725 979 q 767 963 751 979 q 783 924 783 948 q 767 884 783 899 q 725 869 751 869 l 465 869 l 465 54 q 448 7 465 24 z "},"ť":{"ha":478,"x_min":3,"x_max":434,"o":"m 366 800 q 336 811 347 800 q 324 840 324 823 l 324 1077 q 339 1116 324 1101 q 378 1131 355 1131 q 419 1117 404 1131 q 434 1078 434 1102 q 433 1057 434 1070 l 410 842 q 396 811 408 823 q 366 800 384 800 m 115 163 l 115 608 l 56 608 q 17 621 31 608 q 3 657 3 633 q 17 693 3 680 q 56 705 31 705 l 115 705 l 115 826 q 131 871 115 854 q 174 889 148 889 q 216 871 199 889 q 233 826 233 854 l 233 705 l 323 705 q 362 693 349 705 q 376 657 376 680 q 362 621 376 633 q 323 608 349 608 l 233 608 l 233 189 q 251 121 233 143 q 313 96 269 99 l 323 96 q 379 50 379 92 q 360 8 379 21 q 293 -5 340 -5 l 286 -5 q 115 163 115 -5 z "},"Ŧ":{"ha":807,"x_min":24,"x_max":783,"o":"m 448 7 q 440 -1 448 7 q 404 -9 431 -9 q 359 7 376 -9 q 342 54 342 24 l 342 441 l 177 441 q 140 454 155 441 q 125 490 125 468 q 140 525 125 511 q 177 538 155 538 l 342 538 l 342 869 l 82 869 q 40 884 56 869 q 24 924 24 899 q 40 963 24 948 q 82 979 56 979 l 725 979 q 767 963 751 979 q 783 924 783 948 q 767 884 783 899 q 725 869 751 869 l 465 869 l 465 538 l 630 538 q 667 524 652 538 q 682 489 682 511 q 667 454 682 467 q 630 441 652 441 l 465 441 l 465 54 q 448 7 465 24 z "},"ŧ":{"ha":421,"x_min":3,"x_max":379,"o":"m 115 163 l 115 323 l 53 323 q 17 337 31 323 q 3 371 3 350 q 17 405 3 392 q 53 418 31 418 l 115 418 l 115 608 l 56 608 q 17 621 31 608 q 3 657 3 633 q 17 693 3 680 q 56 705 31 705 l 115 705 l 115 826 q 131 871 115 854 q 174 889 148 889 q 216 871 199 889 q 233 826 233 854 l 233 705 l 323 705 q 362 693 349 705 q 376 657 376 680 q 362 621 376 633 q 323 608 349 608 l 233 608 l 233 418 l 326 418 q 362 405 348 418 q 376 370 376 391 q 362 336 376 349 q 326 323 348 323 l 233 323 l 233 189 q 251 121 233 143 q 313 96 269 99 l 323 96 q 379 50 379 92 q 360 8 379 21 q 293 -5 340 -5 l 286 -5 q 115 163 115 -5 z "},"Ũ":{"ha":967,"x_min":95,"x_max":872,"o":"m 307 1061 q 278 1073 289 1061 q 268 1105 268 1084 q 304 1212 268 1172 q 398 1251 341 1251 q 447 1241 424 1251 q 486 1215 470 1230 q 516 1184 502 1200 q 545 1159 530 1169 q 573 1148 559 1148 q 619 1216 610 1148 q 632 1251 623 1240 q 659 1261 641 1261 q 688 1250 677 1261 q 699 1219 699 1238 q 662 1113 699 1154 q 572 1072 626 1072 q 514 1088 542 1072 q 470 1123 487 1104 q 434 1158 454 1142 q 397 1175 414 1175 q 363 1158 374 1175 q 347 1103 351 1141 q 307 1061 343 1061 m 767 84 q 715 34 767 84 q 484 -16 663 -16 q 200 84 304 -16 q 95 343 95 184 l 95 925 q 112 971 95 954 q 156 988 128 988 q 200 971 184 988 q 217 925 217 954 l 217 351 q 288 167 217 238 q 484 96 359 96 q 679 167 608 96 q 750 351 750 238 l 750 925 q 767 971 750 954 q 811 988 783 988 q 856 971 839 988 q 872 925 872 954 l 872 343 q 767 84 872 184 z "},"ũ":{"ha":732,"x_min":73,"x_max":656,"o":"m 191 802 q 162 814 172 802 q 151 846 151 825 q 188 952 151 913 q 281 992 224 992 q 330 982 307 992 q 369 956 353 971 q 399 925 385 941 q 428 900 414 910 q 456 889 443 889 q 503 957 493 889 q 515 991 506 981 q 543 1002 524 1002 q 571 991 560 1002 q 582 960 582 979 q 546 853 582 895 q 456 812 509 812 q 398 829 425 812 q 354 864 370 845 q 317 899 337 883 q 281 916 298 916 q 246 899 258 916 q 231 844 235 882 q 191 802 227 802 m 317 -12 q 138 57 203 -12 q 73 248 73 127 l 73 654 q 90 700 73 682 q 132 718 106 718 q 175 700 158 718 q 191 654 191 682 l 191 269 q 354 92 191 92 q 489 146 439 92 q 538 291 538 200 l 538 654 q 554 700 538 682 q 597 718 571 718 q 639 700 623 718 q 656 654 656 682 l 656 47 q 641 5 656 22 q 600 -12 625 -12 q 559 5 575 -12 q 544 47 544 22 l 544 115 l 541 115 q 317 -12 475 -12 z "},"Ū":{"ha":967,"x_min":95,"x_max":872,"o":"m 300 1108 q 270 1120 281 1108 q 258 1150 258 1132 q 270 1177 258 1166 q 300 1187 281 1187 l 667 1187 q 697 1177 686 1187 q 709 1150 709 1166 q 697 1120 709 1132 q 667 1108 686 1108 l 300 1108 m 767 84 q 715 34 767 84 q 484 -16 663 -16 q 200 84 304 -16 q 95 343 95 184 l 95 925 q 112 971 95 954 q 156 988 128 988 q 200 971 184 988 q 217 925 217 954 l 217 351 q 288 167 217 238 q 484 96 359 96 q 679 167 608 96 q 750 351 750 238 l 750 925 q 767 971 750 954 q 811 988 783 988 q 856 971 839 988 q 872 925 872 954 l 872 343 q 767 84 872 184 z "},"ū":{"ha":732,"x_min":73,"x_max":656,"o":"m 201 850 q 171 861 182 850 q 159 890 159 872 q 171 918 159 907 q 201 929 183 929 l 527 929 q 557 918 545 929 q 569 890 569 907 q 557 861 569 872 q 527 850 546 850 l 201 850 m 317 -12 q 138 57 203 -12 q 73 248 73 127 l 73 654 q 90 700 73 682 q 132 718 106 718 q 175 700 158 718 q 191 654 191 682 l 191 269 q 354 92 191 92 q 489 146 439 92 q 538 291 538 200 l 538 654 q 554 700 538 682 q 597 718 571 718 q 639 700 623 718 q 656 654 656 682 l 656 47 q 641 5 656 22 q 600 -12 625 -12 q 559 5 575 -12 q 544 47 544 22 l 544 115 l 541 115 q 317 -12 475 -12 z "},"Ŭ":{"ha":967,"x_min":95,"x_max":872,"o":"m 484 1046 q 346 1089 404 1046 q 276 1200 288 1132 q 273 1227 273 1215 q 284 1256 273 1245 q 313 1267 296 1267 q 341 1258 331 1267 q 357 1225 351 1248 q 402 1149 369 1175 q 484 1122 435 1122 q 565 1149 532 1122 q 610 1225 598 1175 q 626 1258 616 1248 q 654 1267 636 1267 q 683 1256 671 1267 q 694 1227 694 1245 q 692 1202 694 1215 q 622 1090 680 1134 q 484 1046 564 1046 m 767 84 q 715 34 767 84 q 484 -16 663 -16 q 200 84 304 -16 q 95 343 95 184 l 95 925 q 112 971 95 954 q 156 988 128 988 q 200 971 184 988 q 217 925 217 954 l 217 351 q 288 167 217 238 q 484 96 359 96 q 679 167 608 96 q 750 351 750 238 l 750 925 q 767 971 750 954 q 811 988 783 988 q 856 971 839 988 q 872 925 872 954 l 872 343 q 767 84 872 184 z "},"ŭ":{"ha":732,"x_min":73,"x_max":656,"o":"m 509 845 q 480 823 509 845 q 364 800 451 800 q 220 844 277 800 q 151 956 162 888 q 149 983 149 970 q 160 1015 149 1003 q 189 1026 171 1026 q 218 1016 208 1026 q 233 980 228 1005 q 279 901 245 929 q 363 873 313 873 q 449 902 414 873 q 494 980 484 930 q 510 1016 500 1005 q 538 1026 519 1026 q 567 1014 557 1026 q 578 983 578 1002 q 576 960 578 972 q 509 845 567 890 m 317 -12 q 138 57 203 -12 q 73 248 73 127 l 73 654 q 90 700 73 682 q 132 718 106 718 q 175 700 158 718 q 191 654 191 682 l 191 269 q 354 92 191 92 q 489 146 439 92 q 538 291 538 200 l 538 654 q 554 700 538 682 q 597 718 571 718 q 639 700 623 718 q 656 654 656 682 l 656 47 q 641 5 656 22 q 600 -12 625 -12 q 559 5 575 -12 q 544 47 544 22 l 544 115 l 541 115 q 317 -12 475 -12 z "},"Ů":{"ha":967,"x_min":95,"x_max":872,"o":"m 575 1066 q 556 1047 575 1066 q 484 1028 537 1028 q 392 1066 430 1028 q 354 1158 354 1104 q 392 1249 354 1211 q 484 1287 430 1287 q 575 1249 537 1287 q 613 1158 613 1211 q 575 1066 613 1104 m 434 1108 q 444 1098 434 1108 q 484 1088 454 1088 q 533 1108 513 1088 q 553 1158 553 1128 q 533 1207 553 1187 q 484 1227 513 1227 q 434 1207 454 1227 q 414 1158 414 1187 q 434 1108 414 1128 m 767 84 q 715 34 767 84 q 484 -16 663 -16 q 200 84 304 -16 q 95 343 95 184 l 95 925 q 112 971 95 954 q 156 988 128 988 q 200 971 184 988 q 217 925 217 954 l 217 351 q 288 167 217 238 q 484 96 359 96 q 679 167 608 96 q 750 351 750 238 l 750 925 q 767 971 750 954 q 811 988 783 988 q 856 971 839 988 q 872 925 872 954 l 872 343 q 767 84 872 184 z "},"ů":{"ha":732,"x_min":73,"x_max":656,"o":"m 456 806 q 437 787 456 806 q 364 768 418 768 q 273 806 311 768 q 235 897 235 844 q 273 989 235 951 q 364 1027 311 1027 q 456 989 418 1027 q 494 897 494 951 q 456 806 494 844 m 315 848 q 325 838 315 848 q 364 827 335 827 q 414 848 393 827 q 434 897 434 868 q 414 947 434 926 q 364 967 393 967 q 315 947 335 967 q 294 897 294 926 q 315 848 294 868 m 317 -12 q 138 57 203 -12 q 73 248 73 127 l 73 654 q 90 700 73 682 q 132 718 106 718 q 175 700 158 718 q 191 654 191 682 l 191 269 q 354 92 191 92 q 489 146 439 92 q 538 291 538 200 l 538 654 q 554 700 538 682 q 597 718 571 718 q 639 700 623 718 q 656 654 656 682 l 656 47 q 641 5 656 22 q 600 -12 625 -12 q 559 5 575 -12 q 544 47 544 22 l 544 115 l 541 115 q 317 -12 475 -12 z "},"Ű":{"ha":967,"x_min":95,"x_max":872,"o":"m 402 1044 q 373 1055 385 1044 q 361 1081 361 1065 q 374 1114 361 1097 l 469 1239 q 495 1266 484 1259 q 523 1274 507 1274 q 558 1261 545 1274 q 572 1227 572 1248 q 555 1191 572 1209 l 444 1066 q 402 1044 424 1044 m 619 1044 q 590 1055 602 1044 q 578 1081 578 1065 q 591 1114 578 1097 l 686 1239 q 712 1266 701 1259 q 740 1274 724 1274 q 775 1261 762 1274 q 789 1227 789 1248 q 772 1191 789 1209 l 661 1066 q 619 1044 641 1044 m 767 84 q 715 34 767 84 q 484 -16 663 -16 q 200 84 304 -16 q 95 343 95 184 l 95 925 q 112 971 95 954 q 156 988 128 988 q 200 971 184 988 q 217 925 217 954 l 217 351 q 288 167 217 238 q 484 96 359 96 q 679 167 608 96 q 750 351 750 238 l 750 925 q 767 971 750 954 q 811 988 783 988 q 856 971 839 988 q 872 925 872 954 l 872 343 q 767 84 872 184 z "},"ű":{"ha":732,"x_min":73,"x_max":656,"o":"m 269 789 q 242 799 253 789 q 231 824 231 808 q 240 852 231 837 l 335 997 q 357 1021 347 1015 q 383 1027 368 1027 q 417 1015 404 1027 q 431 983 431 1003 q 417 947 431 963 l 308 811 q 269 789 290 789 m 483 789 q 456 799 467 789 q 445 824 445 808 q 454 852 445 837 l 549 997 q 572 1021 562 1015 q 597 1027 582 1027 q 632 1015 618 1027 q 645 983 645 1003 q 631 947 645 963 l 522 811 q 483 789 504 789 m 317 -12 q 138 57 203 -12 q 73 248 73 127 l 73 654 q 90 700 73 682 q 132 718 106 718 q 175 700 158 718 q 191 654 191 682 l 191 269 q 354 92 191 92 q 489 146 439 92 q 538 291 538 200 l 538 654 q 554 700 538 682 q 597 718 571 718 q 639 700 623 718 q 656 654 656 682 l 656 47 q 641 5 656 22 q 600 -12 625 -12 q 559 5 575 -12 q 544 47 544 22 l 544 115 l 541 115 q 317 -12 475 -12 z "},"Ų":{"ha":967,"x_min":95,"x_max":872,"o":"m 484 -16 q 201 82 308 -16 q 95 343 95 180 l 95 932 q 112 978 95 961 q 156 995 128 995 q 200 978 184 995 q 217 932 217 961 l 217 351 q 290 165 217 235 q 484 96 362 96 q 677 165 605 96 q 750 351 750 235 l 750 932 q 767 978 750 961 q 811 995 783 995 q 856 978 839 995 q 872 932 872 961 l 872 343 q 830 172 872 248 q 696 15 789 95 q 613 -69 641 -33 q 585 -138 585 -105 q 607 -187 585 -170 q 665 -204 630 -204 q 696 -208 686 -204 q 724 -243 724 -216 q 672 -290 724 -281 q 640 -292 658 -292 q 529 -256 573 -292 q 486 -164 486 -221 q 579 -3 486 -79 l 579 0 q 484 -16 526 -16 z "},"ų":{"ha":732,"x_min":73,"x_max":663,"o":"m 317 -12 q 138 57 203 -12 q 73 248 73 127 l 73 654 q 90 700 73 682 q 132 718 106 718 q 175 700 158 718 q 191 654 191 682 l 191 269 q 354 92 191 92 q 489 146 439 92 q 538 291 538 200 l 538 654 q 554 700 538 682 q 597 718 571 718 q 639 700 623 718 q 656 654 656 682 l 656 47 q 653 22 656 32 q 640 -1 651 12 q 607 -24 629 -14 q 544 -72 566 -44 q 522 -129 522 -100 q 541 -177 522 -160 q 594 -193 561 -193 q 607 -193 597 -193 q 622 -193 616 -193 q 651 -203 640 -193 q 663 -231 663 -213 q 637 -269 663 -256 q 578 -279 616 -279 q 465 -245 508 -279 q 422 -154 422 -210 q 548 24 422 -62 q 544 47 544 34 l 544 115 l 541 115 q 317 -12 475 -12 z "},"Ŵ":{"ha":1283,"x_min":41,"x_max":1242,"o":"m 484 1030 q 455 1042 467 1030 q 444 1069 444 1053 q 458 1101 444 1086 l 583 1232 q 642 1261 611 1261 q 701 1232 673 1261 l 826 1100 q 840 1068 840 1085 q 828 1041 840 1053 q 800 1030 817 1030 q 779 1035 787 1030 q 757 1055 770 1040 l 644 1175 l 640 1175 l 526 1055 q 504 1035 513 1040 q 484 1030 496 1030 m 354 -9 q 311 4 327 -9 q 286 49 294 18 l 46 899 q 41 932 41 918 q 58 972 41 957 q 101 988 75 988 q 161 939 149 988 l 354 180 l 359 180 l 566 920 q 593 972 576 956 q 642 988 611 988 q 690 972 672 988 q 717 922 707 957 l 924 180 l 929 180 l 1122 939 q 1182 988 1134 988 q 1225 972 1208 988 q 1242 932 1242 957 q 1237 899 1242 918 l 998 49 q 972 4 989 18 q 929 -9 956 -9 q 884 4 901 -9 q 859 48 868 18 l 645 777 l 638 777 l 425 48 q 399 4 415 18 q 354 -9 382 -9 z "},"ŵ":{"ha":994,"x_min":27,"x_max":966,"o":"m 343 792 q 314 804 326 792 q 302 831 302 815 q 317 863 302 846 l 438 996 q 498 1025 465 1025 q 555 996 528 1025 l 676 863 q 690 831 690 846 q 679 804 690 815 q 650 792 667 792 q 607 817 629 792 l 498 937 l 494 937 l 386 817 q 343 792 364 792 m 275 -12 q 204 45 221 -12 l 32 636 q 27 667 27 652 q 43 704 27 690 q 85 718 58 718 q 119 706 106 718 q 138 669 132 695 l 277 132 l 280 132 l 428 665 q 497 718 442 718 q 564 665 550 718 l 713 132 l 716 132 l 855 669 q 874 706 862 695 q 909 718 887 718 q 951 704 935 718 q 966 667 966 690 q 962 636 966 652 l 789 45 q 718 -12 773 -12 q 644 45 661 -12 l 498 546 l 495 546 l 349 45 q 275 -12 333 -12 z "},"Ŷ":{"ha":850,"x_min":35,"x_max":815,"o":"m 267 1030 q 239 1042 250 1030 q 227 1069 227 1053 q 241 1101 227 1086 l 366 1232 q 425 1261 395 1261 q 484 1232 457 1261 l 610 1100 q 624 1068 624 1085 q 612 1041 624 1053 q 583 1030 600 1030 q 563 1035 571 1030 q 541 1055 554 1040 l 427 1175 l 423 1175 l 310 1055 q 288 1035 296 1040 q 267 1030 279 1030 m 470 7 q 461 -1 470 7 q 425 -9 453 -9 q 381 7 397 -9 q 364 54 364 24 l 364 421 l 47 895 q 35 935 35 913 q 52 973 35 958 q 94 988 69 988 q 148 957 127 988 l 423 539 l 427 539 l 703 957 q 756 988 724 988 q 798 973 781 988 q 815 935 815 958 q 803 895 815 913 l 486 421 l 486 54 q 470 7 486 24 z "},"ŷ":{"ha":675,"x_min":27,"x_max":648,"o":"m 184 792 q 156 804 168 792 q 144 831 144 815 q 158 863 144 846 l 279 996 q 339 1025 306 1025 q 396 996 370 1025 l 517 863 q 532 831 532 846 q 520 804 532 815 q 491 792 508 792 q 448 817 470 792 l 340 937 l 336 937 l 227 817 q 184 792 205 792 m 146 -264 q 80 -249 103 -264 q 57 -205 57 -233 q 70 -174 57 -186 q 104 -162 82 -162 q 124 -162 113 -162 q 144 -163 135 -163 q 260 -50 223 -163 l 276 -1 l 33 632 q 27 663 27 649 q 44 703 27 688 q 86 718 60 718 q 142 674 127 718 l 337 118 l 339 118 l 534 674 q 555 708 543 698 q 590 718 568 718 q 631 702 615 718 q 648 663 648 687 q 642 632 648 649 l 381 -50 q 284 -217 336 -171 q 146 -264 233 -264 z "},"Ÿ":{"ha":850,"x_min":35,"x_max":815,"o":"m 352 1109 q 341 1099 352 1109 q 299 1088 330 1088 q 247 1109 269 1088 q 224 1162 224 1131 q 247 1215 224 1194 q 299 1237 269 1237 q 352 1215 330 1237 q 374 1162 374 1194 q 352 1109 374 1131 m 604 1109 q 593 1099 604 1109 q 551 1088 582 1088 q 499 1109 521 1088 q 477 1162 477 1131 q 499 1215 477 1194 q 551 1237 521 1237 q 604 1215 582 1237 q 626 1162 626 1194 q 604 1109 626 1131 m 470 7 q 461 -1 470 7 q 425 -9 453 -9 q 381 7 397 -9 q 364 54 364 24 l 364 421 l 47 895 q 35 935 35 913 q 52 973 35 958 q 94 988 69 988 q 148 957 127 988 l 423 539 l 427 539 l 703 957 q 756 988 724 988 q 798 973 781 988 q 815 935 815 958 q 803 895 815 913 l 486 421 l 486 54 q 470 7 486 24 z "},"Ź":{"ha":857,"x_min":66,"x_max":800,"o":"m 450 1036 q 420 1047 432 1036 q 409 1074 409 1058 q 422 1107 409 1088 l 530 1248 q 580 1278 552 1278 q 615 1265 602 1278 q 629 1232 629 1252 q 610 1192 629 1213 l 491 1059 q 470 1041 478 1046 q 450 1036 462 1036 m 131 0 q 84 17 102 0 q 66 62 66 34 q 88 117 66 86 l 625 864 l 625 869 l 134 869 q 92 884 108 869 q 75 924 75 899 q 92 963 75 948 q 134 979 108 979 l 712 979 q 760 961 742 979 q 779 916 779 944 q 757 861 779 892 l 223 115 l 223 110 l 742 110 q 784 95 768 110 q 800 55 800 79 q 784 15 800 31 q 742 0 768 0 l 131 0 z "},"ź":{"ha":650,"x_min":56,"x_max":595,"o":"m 340 789 q 311 799 323 789 q 300 825 300 810 q 310 856 300 841 l 411 1000 q 436 1028 425 1021 q 463 1035 447 1035 q 498 1022 485 1035 q 512 990 512 1010 q 498 954 512 970 l 382 811 q 340 789 364 789 m 124 0 q 78 16 96 0 q 61 58 61 32 q 81 111 61 85 l 452 606 l 452 608 l 109 608 q 70 621 83 608 q 56 657 56 633 q 70 693 56 680 q 109 705 83 705 l 517 705 q 569 689 550 705 q 587 645 587 673 q 559 582 587 619 l 198 99 l 198 97 l 543 97 q 582 84 568 97 q 595 49 595 72 q 582 13 595 25 q 543 0 568 0 l 124 0 z "},"Ż":{"ha":857,"x_min":66,"x_max":800,"o":"m 487 1099 q 475 1087 487 1099 q 429 1075 463 1075 q 371 1099 395 1075 q 347 1157 347 1123 q 371 1215 347 1191 q 429 1239 395 1239 q 487 1215 463 1239 q 511 1157 511 1191 q 487 1099 511 1123 m 131 0 q 84 17 102 0 q 66 62 66 34 q 88 117 66 86 l 625 864 l 625 869 l 134 869 q 92 884 108 869 q 75 924 75 899 q 92 963 75 948 q 134 979 108 979 l 712 979 q 760 961 742 979 q 779 916 779 944 q 757 861 779 892 l 223 115 l 223 110 l 742 110 q 784 95 768 110 q 800 55 800 79 q 784 15 800 31 q 742 0 768 0 l 131 0 z "},"ż":{"ha":650,"x_min":56,"x_max":595,"o":"m 384 839 q 372 827 384 839 q 325 814 359 814 q 266 839 290 814 q 241 899 241 864 q 266 958 241 933 q 325 983 290 983 q 384 958 359 983 q 409 899 409 933 q 384 839 409 864 m 124 0 q 78 16 96 0 q 61 58 61 32 q 81 111 61 85 l 452 606 l 452 608 l 109 608 q 70 621 83 608 q 56 657 56 633 q 70 693 56 680 q 109 705 83 705 l 517 705 q 569 689 550 705 q 587 645 587 673 q 559 582 587 619 l 198 99 l 198 97 l 543 97 q 582 84 568 97 q 595 49 595 72 q 582 13 595 25 q 543 0 568 0 l 124 0 z "},"Ž":{"ha":857,"x_min":66,"x_max":800,"o":"m 429 1035 q 371 1064 399 1035 l 243 1198 q 229 1230 229 1213 q 241 1257 229 1246 q 270 1268 253 1268 q 290 1263 281 1268 q 313 1244 298 1259 l 427 1123 l 431 1123 l 545 1244 q 567 1263 559 1259 q 587 1268 576 1268 q 616 1257 604 1268 q 628 1230 628 1246 q 614 1198 628 1213 l 485 1063 q 459 1041 471 1048 q 429 1035 447 1035 m 131 0 q 84 17 102 0 q 66 62 66 34 q 88 117 66 86 l 625 864 l 625 869 l 134 869 q 92 884 108 869 q 75 924 75 899 q 92 963 75 948 q 134 979 108 979 l 712 979 q 760 961 742 979 q 779 916 779 944 q 757 861 779 892 l 223 115 l 223 110 l 742 110 q 784 95 768 110 q 800 55 800 79 q 784 15 800 31 q 742 0 768 0 l 131 0 z "},"ž":{"ha":650,"x_min":56,"x_max":595,"o":"m 326 789 q 269 819 296 789 l 146 954 q 132 987 132 970 q 144 1013 132 1002 q 173 1024 156 1024 q 216 1000 194 1024 l 323 878 l 327 878 l 434 1000 q 477 1024 456 1024 q 506 1013 494 1024 q 517 986 517 1002 q 503 954 517 970 l 379 817 q 326 789 353 789 m 124 0 q 78 16 96 0 q 61 58 61 32 q 81 111 61 85 l 452 606 l 452 608 l 109 608 q 70 621 83 608 q 56 657 56 633 q 70 693 56 680 q 109 705 83 705 l 517 705 q 569 689 550 705 q 587 645 587 673 q 559 582 587 619 l 198 99 l 198 97 l 543 97 q 582 84 568 97 q 595 49 595 72 q 582 13 595 25 q 543 0 568 0 l 124 0 z "},"ʻ":{"ha":353,"x_min":73,"x_max":225,"o":"m 185 1061 q 214 1051 203 1061 q 225 1025 225 1041 q 222 1008 225 1016 l 170 833 q 118 790 157 790 q 86 802 98 790 q 73 833 73 814 q 79 860 73 845 l 141 1027 q 185 1061 154 1061 z "},"ʼ":{"ha":365,"x_min":95,"x_max":262,"o":"m 143 624 q 109 635 122 624 q 95 667 95 647 q 97 688 95 675 l 145 939 q 203 991 155 991 q 246 976 230 991 q 262 937 262 962 q 257 900 262 920 l 195 667 q 143 624 184 624 z "},"’":{"ha":365,"x_min":95,"x_max":262,"o":"m 143 624 q 109 635 122 624 q 95 667 95 647 q 97 688 95 675 l 145 939 q 203 991 155 991 q 246 976 230 991 q 262 937 262 962 q 257 900 262 920 l 195 667 q 143 624 184 624 z "},"ˆ":{"ha":682,"x_min":147,"x_max":535,"o":"m 188 859 q 159 870 171 859 q 147 897 147 882 q 161 929 147 913 l 283 1063 q 342 1092 309 1092 q 399 1063 373 1092 l 521 929 q 535 897 535 913 q 523 870 535 882 q 494 859 511 859 q 452 883 473 859 l 343 1004 l 339 1004 l 231 883 q 188 859 209 859 z "},"˚":{"ha":711,"x_min":226,"x_max":485,"o":"m 447 873 q 428 854 447 873 q 355 836 409 836 q 264 873 302 836 q 226 965 226 911 q 264 1057 226 1019 q 355 1095 302 1095 q 447 1057 409 1095 q 485 965 485 1019 q 447 873 485 911 m 306 916 q 316 905 306 916 q 355 895 326 895 q 405 916 385 895 q 425 965 425 936 q 405 1015 425 994 q 355 1035 385 1035 q 306 1015 326 1035 q 286 965 286 994 q 306 916 286 936 z "},"˜":{"ha":682,"x_min":125,"x_max":556,"o":"m 165 869 q 136 880 146 869 q 125 912 125 892 q 162 1019 125 979 q 256 1059 199 1059 q 304 1048 281 1059 q 343 1022 328 1038 q 374 992 359 1007 q 402 966 388 977 q 431 956 417 956 q 477 1023 467 956 q 489 1058 480 1047 q 517 1069 498 1069 q 545 1057 534 1069 q 556 1026 556 1046 q 520 920 556 961 q 430 879 484 879 q 372 895 399 879 q 328 930 345 911 q 292 966 311 949 q 255 982 272 982 q 220 965 232 982 q 205 910 209 949 q 165 869 201 869 z "},"∆":{"ha":880,"x_min":31,"x_max":850,"o":"m 91 0 q 47 15 63 0 q 31 54 31 29 q 38 87 31 70 l 364 939 q 440 995 385 995 q 487 982 469 995 q 516 939 505 968 l 842 87 q 850 54 850 70 q 833 15 850 30 q 791 0 817 0 l 91 0 m 174 110 l 707 110 l 707 115 l 442 837 l 438 837 l 174 115 l 174 110 z "}," ":{"ha":694,"x_min":0,"x_max":0,"o":""}," ":{"ha":1389,"x_min":0,"x_max":0,"o":""}," ":{"ha":791,"x_min":0,"x_max":0,"o":""}," ":{"ha":1362,"x_min":0,"x_max":0,"o":""}," ":{"ha":463,"x_min":0,"x_max":0,"o":""}," ":{"ha":347,"x_min":0,"x_max":0,"o":""}," ":{"ha":231,"x_min":0,"x_max":0,"o":""}," ":{"ha":840,"x_min":0,"x_max":0,"o":""}," ":{"ha":353,"x_min":0,"x_max":0,"o":""}," ":{"ha":278,"x_min":0,"x_max":0,"o":""}," ":{"ha":77,"x_min":0,"x_max":0,"o":""},"​":{"ha":0,"x_min":0,"x_max":0,"o":""},"⁠":{"ha":0,"x_min":0,"x_max":0,"o":""},"‌":{"ha":339,"x_min":0,"x_max":0,"o":""},"‍":{"ha":339,"x_min":0,"x_max":0,"o":""},"‒":{"ha":840,"x_min":0,"x_max":840,"o":"m 58 342 q 17 357 33 342 q 0 397 0 372 q 17 436 0 421 q 58 452 33 452 l 781 452 q 823 436 806 452 q 840 397 840 421 q 823 357 840 372 q 781 342 806 342 l 58 342 z "},"–":{"ha":694,"x_min":0,"x_max":694,"o":"m 58 342 q 17 357 33 342 q 0 397 0 372 q 17 436 0 421 q 58 452 33 452 l 636 452 q 678 436 661 452 q 694 397 694 421 q 678 357 694 372 q 636 342 661 342 l 58 342 z "},"—":{"ha":1389,"x_min":0,"x_max":1389,"o":"m 58 342 q 17 357 33 342 q 0 397 0 372 q 17 436 0 421 q 58 452 33 452 l 1331 452 q 1372 436 1356 452 q 1389 397 1389 421 q 1372 357 1389 372 q 1331 342 1356 342 l 58 342 z "},"‖":{"ha":721,"x_min":174,"x_max":547,"o":"m 259 -218 q 252 -226 259 -218 q 224 -233 245 -233 q 188 -218 202 -233 q 174 -180 174 -203 l 174 938 q 188 976 174 961 q 224 991 202 991 q 259 976 245 991 q 273 938 273 961 l 273 -180 q 259 -218 273 -203 m 533 -218 q 526 -226 533 -218 q 497 -233 519 -233 q 461 -218 475 -233 q 448 -180 448 -203 l 448 938 q 461 976 448 961 q 497 991 475 991 q 533 976 519 991 q 547 938 547 961 l 547 -180 q 533 -218 547 -203 z "},"‘":{"ha":365,"x_min":103,"x_max":271,"o":"m 162 624 q 119 638 136 624 q 103 677 103 653 q 109 715 103 695 l 171 948 q 222 991 182 991 q 257 979 243 991 q 271 948 271 968 q 269 927 271 939 l 220 675 q 162 624 210 624 z "},"‚":{"ha":365,"x_min":93,"x_max":260,"o":"m 201 157 q 244 143 228 157 q 260 104 260 128 q 255 66 260 86 l 193 -167 q 141 -210 182 -210 q 106 -198 120 -210 q 93 -167 93 -186 q 95 -146 93 -158 l 143 106 q 201 157 153 157 z "},"“":{"ha":628,"x_min":103,"x_max":534,"o":"m 162 624 q 119 638 136 624 q 103 677 103 653 q 109 715 103 695 l 171 948 q 222 991 182 991 q 257 979 243 991 q 271 948 271 968 q 269 927 271 939 l 220 675 q 162 624 210 624 m 425 624 q 382 638 399 624 q 366 677 366 653 q 372 715 366 695 l 434 948 q 486 991 445 991 q 520 979 507 991 q 534 948 534 968 q 532 927 534 939 l 484 675 q 425 624 473 624 z "},"”":{"ha":628,"x_min":95,"x_max":526,"o":"m 203 991 q 246 976 230 991 q 262 937 262 962 q 257 900 262 920 l 195 667 q 143 624 184 624 q 109 635 122 624 q 95 667 95 647 q 97 688 95 675 l 145 939 q 203 991 155 991 m 467 991 q 509 976 493 991 q 526 937 526 962 q 520 900 526 920 l 458 667 q 406 624 447 624 q 372 635 385 624 q 358 667 358 647 q 360 688 358 675 l 408 939 q 467 991 418 991 z "},"„":{"ha":628,"x_min":93,"x_max":524,"o":"m 201 157 q 244 143 228 157 q 260 104 260 128 q 255 66 260 86 l 193 -167 q 141 -210 182 -210 q 106 -198 120 -210 q 93 -167 93 -186 q 95 -146 93 -158 l 143 106 q 201 157 153 157 m 465 157 q 507 143 491 157 q 524 104 524 128 q 518 66 524 86 l 456 -167 q 404 -210 445 -210 q 370 -198 383 -210 q 356 -167 356 -186 q 358 -146 356 -158 l 406 106 q 465 157 416 157 z "},"†":{"ha":556,"x_min":45,"x_max":511,"o":"m 277 373 q 240 388 255 373 q 226 428 226 404 l 226 764 l 96 764 q 59 777 73 764 q 45 812 45 790 q 59 847 45 834 q 96 861 73 861 l 226 861 l 226 1001 q 240 1041 226 1025 q 277 1056 255 1056 q 315 1041 300 1056 q 330 1001 330 1025 l 330 861 l 460 861 q 497 847 483 861 q 511 812 511 834 q 497 777 511 790 q 460 764 483 764 l 330 764 l 330 428 q 315 388 330 404 q 277 373 300 373 z "},"‡":{"ha":556,"x_min":45,"x_max":511,"o":"m 277 373 q 240 388 255 373 q 226 428 226 404 l 226 534 l 96 534 q 59 548 73 534 q 45 583 45 561 q 59 618 45 605 q 96 631 73 631 l 227 631 l 227 791 l 96 791 q 59 804 73 791 q 45 839 45 817 q 59 874 45 861 q 96 888 73 888 l 226 888 l 226 1001 q 240 1041 226 1025 q 277 1056 255 1056 q 315 1041 300 1056 q 330 1001 330 1025 l 330 888 l 460 888 q 497 874 483 888 q 511 839 511 861 q 497 804 511 817 q 460 791 483 791 l 329 791 l 329 631 l 460 631 q 497 618 483 631 q 511 583 511 605 q 497 548 511 561 q 460 534 483 534 l 330 534 l 330 428 q 315 388 330 404 q 277 373 300 373 z "},"•":{"ha":556,"x_min":113,"x_max":443,"o":"m 394 262 q 370 238 394 262 q 278 214 346 214 q 162 262 210 214 q 113 379 113 311 q 162 496 113 448 q 278 544 210 544 q 394 496 346 544 q 443 379 443 448 q 394 262 443 311 z "},"‣":{"ha":556,"x_min":98,"x_max":471,"o":"m 98 214 l 98 544 q 110 562 98 556 q 132 563 121 568 l 459 401 q 471 379 471 395 q 460 357 471 363 l 132 195 q 110 196 121 190 q 98 214 98 202 z "},"…":{"ha":1027,"x_min":99,"x_max":928,"o":"m 231 16 q 220 4 231 16 q 176 -7 209 -7 q 121 16 144 -7 q 99 71 99 38 q 121 125 99 103 q 176 148 144 148 q 231 125 209 148 q 254 71 254 103 q 231 16 254 38 m 568 16 q 557 4 568 16 q 513 -7 546 -7 q 458 16 481 -7 q 436 71 436 38 q 458 125 436 103 q 513 148 481 148 q 568 125 546 148 q 591 71 591 103 q 568 16 591 38 m 905 16 q 894 4 905 16 q 850 -7 883 -7 q 795 16 818 -7 q 773 71 773 38 q 795 125 773 103 q 850 148 818 148 q 905 125 883 148 q 928 71 928 103 q 905 16 928 38 z "}," ":{"ha":278,"x_min":0,"x_max":0,"o":""},"‰":{"ha":1535,"x_min":43,"x_max":1492,"o":"m 224 -12 q 191 -1 203 -12 q 178 28 178 10 q 189 61 178 46 l 507 516 l 816 962 q 838 985 827 979 q 863 991 848 991 q 893 979 880 991 q 906 951 906 968 q 896 919 906 932 l 587 475 l 269 16 q 248 -6 258 0 q 224 -12 238 -12 m 374 561 q 349 527 374 561 q 234 494 323 494 q 94 560 144 494 q 43 742 43 627 q 94 923 43 857 q 234 989 145 989 q 374 923 323 989 q 425 742 425 857 q 374 561 425 627 m 164 615 q 176 593 164 615 q 234 570 189 570 q 304 615 279 570 q 329 742 329 660 q 304 868 329 823 q 234 912 279 912 q 164 868 189 912 q 139 742 139 823 q 164 615 139 660 m 990 57 q 965 23 990 57 q 850 -10 939 -10 q 709 56 760 -10 q 659 238 659 123 q 710 419 659 353 q 850 485 761 485 q 990 419 939 485 q 1041 238 1041 353 q 990 57 1041 123 m 1441 57 q 1416 23 1441 57 q 1301 -10 1390 -10 q 1160 56 1211 -10 q 1109 238 1109 123 q 1161 419 1109 353 q 1301 485 1212 485 q 1441 419 1390 485 q 1492 238 1492 353 q 1441 57 1492 123 m 780 111 q 792 89 780 111 q 850 66 804 66 q 920 111 895 66 q 945 238 945 156 q 920 364 945 319 q 850 408 895 408 q 780 364 805 408 q 755 238 755 319 q 780 111 755 156 m 1231 111 q 1243 89 1231 111 q 1301 66 1255 66 q 1371 111 1346 66 q 1396 238 1396 156 q 1371 364 1396 319 q 1301 408 1345 408 q 1231 364 1256 408 q 1206 238 1206 319 q 1231 111 1206 156 z "},"′":{"ha":365,"x_min":117,"x_max":294,"o":"m 239 991 q 279 978 263 991 q 294 940 294 964 q 289 905 294 925 l 219 665 q 168 624 207 624 q 132 636 146 624 q 117 670 117 649 q 120 693 117 682 l 182 941 q 202 980 189 969 q 239 991 216 991 z "},"″":{"ha":628,"x_min":117,"x_max":557,"o":"m 239 991 q 278 978 262 991 q 294 941 294 964 q 288 904 294 926 l 220 667 q 201 634 214 644 q 168 624 189 624 q 132 636 146 624 q 117 671 117 649 q 119 691 117 682 l 181 939 q 201 979 189 967 q 239 991 214 991 m 502 991 q 542 978 526 991 q 557 941 557 964 q 551 904 557 926 l 483 667 q 465 634 477 644 q 431 624 452 624 q 395 636 409 624 q 380 671 380 649 q 382 691 380 682 l 444 939 q 465 979 452 967 q 502 991 477 991 z "},"‴":{"ha":891,"x_min":117,"x_max":821,"o":"m 239 991 q 278 978 262 991 q 294 941 294 964 q 288 904 294 926 l 220 667 q 201 634 214 644 q 168 624 189 624 q 132 636 146 624 q 117 671 117 649 q 119 691 117 682 l 181 939 q 201 979 189 967 q 239 991 214 991 m 502 991 q 542 978 526 991 q 557 941 557 964 q 551 904 557 926 l 483 667 q 465 634 477 644 q 431 624 452 624 q 395 636 409 624 q 380 671 380 649 q 382 691 380 682 l 444 939 q 465 979 452 967 q 502 991 477 991 m 765 991 q 805 978 789 991 q 821 941 821 964 q 814 904 821 926 l 746 667 q 728 634 740 644 q 694 624 715 624 q 658 636 672 624 q 644 671 644 649 q 646 691 644 682 l 707 939 q 728 979 715 967 q 765 991 741 991 z "},"‸":{"ha":694,"x_min":149,"x_max":546,"o":"m 189 -302 q 161 -291 172 -302 q 149 -264 149 -279 q 163 -232 149 -247 l 288 -100 q 347 -71 317 -71 q 406 -100 379 -71 l 532 -233 q 546 -264 546 -248 q 534 -291 546 -280 q 505 -302 522 -302 q 485 -297 493 -302 q 463 -278 476 -292 l 349 -158 l 345 -158 l 232 -278 q 210 -297 218 -292 q 189 -302 201 -302 z "},"‹":{"ha":559,"x_min":109,"x_max":427,"o":"m 109 382 q 115 411 109 399 q 136 441 121 422 l 327 665 q 372 692 350 692 q 411 677 395 692 q 427 642 427 662 q 410 601 427 620 l 229 388 l 229 378 l 410 165 q 427 125 427 146 q 411 89 427 104 q 372 74 395 74 q 327 101 350 74 l 132 332 q 109 382 109 359 z "},"›":{"ha":559,"x_min":132,"x_max":450,"o":"m 450 382 q 427 332 450 359 l 232 101 q 187 74 209 74 q 148 89 164 74 q 132 125 132 104 q 149 165 132 146 l 330 378 l 330 388 l 149 601 q 132 642 132 620 q 148 677 132 662 q 187 692 164 692 q 232 665 209 692 l 422 441 q 444 411 438 422 q 450 382 450 399 z "},"‽":{"ha":680,"x_min":46,"x_max":621,"o":"m 46 756 q 127 920 46 854 q 331 986 208 986 q 539 916 457 986 q 621 738 621 846 q 580 587 621 648 q 465 480 538 525 q 389 417 409 446 q 363 349 368 389 l 363 343 q 311 287 356 287 q 272 302 286 287 q 257 343 258 317 l 250 686 q 267 730 250 713 q 311 747 285 747 q 354 730 336 747 q 371 686 372 713 l 365 524 q 397 553 374 538 q 473 629 450 588 q 495 732 495 670 q 448 839 495 798 q 326 880 401 880 q 217 847 261 880 q 157 755 174 814 q 135 711 148 724 q 100 699 123 699 q 60 714 74 699 q 46 756 46 730 m 310 -7 q 255 16 277 -7 q 233 71 233 38 q 255 126 233 104 q 310 148 277 148 q 365 126 343 148 q 387 71 387 104 q 365 16 387 38 q 310 -7 343 -7 z "}}}
